{"glyphs":{"0":{"ha":886,"x_min":81,"x_max":806,"o":"m 443 991 q 712 864 619 991 q 806 493 806 736 q 712 120 806 250 q 443 -11 618 -11 q 174 120 268 -11 q 81 493 81 250 q 174 864 81 736 q 443 991 267 991 m 443 876 q 272 779 330 876 q 214 493 214 681 q 273 204 214 304 q 443 104 332 104 q 614 203 555 104 q 672 493 672 302 q 614 778 672 680 q 443 876 555 876 z "},"1":{"ha":553,"x_min":17,"x_max":416,"o":"m 416 972 l 416 0 l 286 0 l 286 846 l 49 772 l 17 854 l 318 989 l 416 972 z "},"2":{"ha":724,"x_min":47,"x_max":659,"o":"m 298 983 q 545 903 456 983 q 633 681 633 822 q 615 554 633 609 q 543 429 597 500 q 376 244 489 358 l 239 106 q 659 121 401 106 l 659 0 l 47 0 l 47 93 l 283 322 q 418 469 372 408 q 479 579 464 530 q 494 689 494 628 q 442 820 494 774 q 296 865 390 865 q 182 851 241 865 q 78 811 123 836 l 56 930 q 298 983 174 983 z "},"3":{"ha":719,"x_min":40,"x_max":644,"o":"m 436 514 q 590 430 536 493 q 644 269 644 367 q 546 64 644 138 q 272 -9 447 -9 q 53 21 166 -9 l 75 135 q 170 116 115 123 q 272 109 224 109 q 445 151 385 109 q 505 271 505 193 q 444 403 505 359 q 258 447 383 447 l 208 447 l 208 561 l 250 561 q 425 603 364 561 q 485 726 485 646 q 436 828 485 791 q 298 864 387 864 q 65 817 199 864 l 40 928 q 302 981 166 981 q 539 914 454 981 q 624 729 624 847 q 576 588 624 643 q 436 514 528 533 z "},"4":{"ha":817,"x_min":29,"x_max":778,"o":"m 529 0 l 529 227 l 43 227 l 29 314 l 452 983 l 660 983 l 660 338 l 778 338 l 764 227 l 660 227 l 660 0 l 529 0 m 529 338 l 529 873 l 197 338 l 529 338 z "},"5":{"ha":755,"x_min":66,"x_max":690,"o":"m 399 600 q 550 565 484 600 q 653 466 616 529 q 690 321 690 403 q 602 79 690 164 q 350 -7 513 -7 q 205 7 279 -7 q 66 47 131 21 l 92 161 q 218 124 153 138 q 335 111 283 111 q 500 165 444 111 q 557 321 557 218 q 508 445 557 401 q 371 489 460 489 q 273 476 323 489 q 180 439 222 463 l 97 496 l 144 983 l 650 983 l 650 872 l 261 872 l 229 570 q 399 600 314 600 z "},"6":{"ha":812,"x_min":68,"x_max":758,"o":"m 447 599 q 607 560 536 599 q 718 451 677 521 q 758 296 758 382 q 715 135 758 205 q 595 26 672 65 q 418 -12 518 -12 q 160 93 252 -12 q 68 390 68 199 q 140 693 68 562 q 347 899 212 823 q 664 983 482 974 l 677 873 q 365 765 484 860 q 212 509 245 671 q 447 599 318 599 m 415 103 q 522 129 473 103 q 597 198 570 154 q 625 296 625 243 q 572 433 625 383 q 424 484 518 484 q 311 460 368 484 q 201 395 254 437 l 201 385 q 258 178 201 252 q 415 103 315 103 z "},"7":{"ha":712,"x_min":22,"x_max":679,"o":"m 679 885 l 273 0 l 135 0 l 536 872 l 22 872 l 22 983 l 661 983 l 679 885 z "},"8":{"ha":842,"x_min":68,"x_max":777,"o":"m 572 518 q 722 422 668 478 q 777 269 777 366 q 733 121 777 186 q 610 22 689 57 q 428 -14 530 -14 q 164 61 261 -14 q 68 262 68 135 q 112 407 68 345 q 245 517 155 469 q 146 606 182 553 q 111 743 111 660 q 195 926 111 859 q 422 994 279 994 q 649 926 566 994 q 733 743 733 859 q 690 614 733 674 q 572 518 647 554 m 422 884 q 289 846 338 884 q 240 743 240 808 q 272 659 240 693 q 351 603 304 624 q 481 553 397 582 q 572 638 541 589 q 604 743 604 688 q 556 847 604 810 q 422 884 509 884 m 428 97 q 587 145 526 97 q 647 271 647 193 q 616 355 647 322 q 542 406 586 387 q 418 450 497 425 l 345 473 q 231 375 264 423 q 197 264 197 328 q 260 142 197 187 q 428 97 323 97 z "},"9":{"ha":812,"x_min":54,"x_max":745,"o":"m 395 996 q 652 890 559 996 q 745 593 745 785 q 672 290 745 420 q 465 85 600 160 q 149 0 330 9 l 135 110 q 448 218 328 123 q 600 475 567 313 q 366 385 494 385 q 206 424 277 385 q 95 532 135 463 q 54 688 54 602 q 97 848 54 778 q 217 957 140 918 q 395 996 294 996 m 389 500 q 501 523 444 500 q 611 589 558 546 l 611 599 q 554 806 611 731 q 397 880 497 880 q 291 855 339 880 q 215 785 243 829 q 187 688 187 741 q 241 550 187 600 q 389 500 294 500 z "}," ":{"ha":347,"x_min":0,"x_max":0,"o":""},"!":{"ha":336,"x_min":102,"x_max":235,"o":"m 102 1000 l 235 1000 l 216 256 l 118 256 l 102 1000 m 104 127 l 233 127 l 233 0 l 104 0 l 104 127 z "},"\"":{"ha":548,"x_min":107,"x_max":441,"o":"m 107 1011 l 218 1011 l 211 672 l 114 672 l 107 1011 m 330 1011 l 441 1011 l 435 672 l 338 672 l 330 1011 z "},"#":{"ha":930,"x_min":7,"x_max":924,"o":"m 261 611 l 68 611 l 85 711 l 278 711 l 325 983 l 433 983 l 386 711 l 621 711 l 668 983 l 778 983 l 730 711 l 924 711 l 907 611 l 714 611 l 671 359 l 861 359 l 844 260 l 654 260 l 611 0 l 500 0 l 545 260 l 310 260 l 267 0 l 157 0 l 201 260 l 7 260 l 22 359 l 218 359 l 261 611 m 561 359 l 604 611 l 370 611 l 326 359 l 561 359 z "},"$":{"ha":682,"x_min":47,"x_max":629,"o":"m 629 286 q 571 123 629 189 q 412 40 513 57 l 412 -117 l 296 -117 l 296 36 q 174 55 231 40 q 47 98 117 69 l 87 211 q 218 164 167 178 q 318 151 269 151 q 445 188 399 151 q 492 286 492 224 q 468 352 492 326 q 410 393 444 378 q 314 428 375 408 q 186 476 235 453 q 103 546 138 498 q 68 671 68 593 q 132 836 68 775 q 296 913 196 897 l 296 1075 l 412 1075 l 412 916 q 508 900 467 911 q 603 867 549 888 l 570 757 q 379 800 463 800 q 253 770 298 800 q 207 685 207 739 q 229 619 207 645 q 286 578 252 593 q 379 545 319 564 q 509 494 460 518 q 594 419 558 469 q 629 286 629 370 z "},"%":{"ha":1352,"x_min":40,"x_max":1312,"o":"m 334 -1 l 926 1025 l 1019 974 l 427 -53 l 334 -1 m 40 668 q 100 903 40 823 q 277 982 160 982 q 454 901 393 982 q 515 668 515 821 q 454 432 515 514 q 277 350 392 350 q 101 431 161 350 q 40 668 40 513 m 399 668 q 277 893 399 893 q 155 668 156 893 q 277 440 155 440 q 368 496 338 440 q 399 668 399 553 m 838 307 q 897 542 838 463 q 1074 621 957 621 q 1251 540 1190 621 q 1312 307 1312 460 q 1251 71 1312 153 q 1074 -11 1189 -11 q 898 70 958 -11 q 838 307 838 151 m 1196 307 q 1074 532 1196 532 q 953 307 953 532 q 1074 79 953 79 q 1165 136 1135 79 q 1196 307 1196 192 z "},"&":{"ha":891,"x_min":33,"x_max":889,"o":"m 679 111 q 372 -16 568 -16 q 194 19 271 -16 q 75 115 117 53 q 33 261 33 178 q 204 538 33 440 q 136 641 157 591 q 115 754 115 692 q 151 871 115 817 q 252 958 186 925 q 404 990 318 990 q 615 927 536 990 q 693 761 693 864 l 562 761 q 517 844 562 811 q 404 876 472 876 q 294 840 339 876 q 249 754 249 804 q 280 652 249 700 q 396 530 311 604 l 647 310 q 671 518 671 400 l 802 518 q 747 221 802 342 l 889 97 l 802 3 l 679 111 m 372 98 q 589 192 513 99 l 292 454 q 167 261 167 382 q 224 144 167 191 q 372 98 282 98 z "},"'":{"ha":325,"x_min":107,"x_max":218,"o":"m 107 1011 l 218 1011 l 211 672 l 114 672 l 107 1011 z "},"(":{"ha":387,"x_min":58,"x_max":364,"o":"m 364 1050 q 225 720 267 871 q 183 396 183 568 q 224 77 183 227 q 364 -258 265 -72 l 286 -309 q 112 46 165 -118 q 58 396 58 211 q 111 742 58 578 q 286 1100 164 905 l 364 1050 z "},")":{"ha":387,"x_min":24,"x_max":329,"o":"m 102 1100 q 276 742 224 905 q 329 396 329 578 q 276 47 329 212 q 102 -309 222 -118 l 24 -258 q 163 77 122 -73 q 204 396 204 227 q 162 720 204 568 q 24 1050 121 871 l 102 1100 z "},"*":{"ha":529,"x_min":33,"x_max":498,"o":"m 304 760 l 443 611 l 358 550 l 262 733 l 165 550 l 81 610 l 225 757 l 33 796 l 62 895 l 239 806 l 214 1000 l 318 1000 l 289 807 l 468 890 l 498 796 l 304 760 z "},"+":{"ha":762,"x_min":57,"x_max":705,"o":"m 319 753 l 436 753 l 436 476 l 705 476 l 705 376 l 436 376 l 436 98 l 319 98 l 319 376 l 57 376 l 57 476 l 319 476 l 319 753 z "},",":{"ha":287,"x_min":31,"x_max":237,"o":"m 107 139 l 237 139 l 114 -171 l 31 -171 l 107 139 z "},"-":{"ha":690,"x_min":104,"x_max":586,"o":"m 104 498 l 586 498 l 586 387 l 104 387 l 104 498 z "},".":{"ha":350,"x_min":106,"x_max":244,"o":"m 244 139 l 244 0 l 106 0 l 106 139 l 244 139 z "},"/":{"ha":476,"x_min":3,"x_max":473,"o":"m 359 1031 l 473 1031 l 117 -85 l 3 -85 l 359 1031 z "},":":{"ha":264,"x_min":62,"x_max":201,"o":"m 62 640 l 201 640 l 201 501 l 62 501 l 62 640 m 62 163 l 201 163 l 201 24 l 62 24 l 62 163 z "},";":{"ha":293,"x_min":31,"x_max":243,"o":"m 104 583 l 243 583 l 243 444 l 104 444 l 104 583 m 107 139 l 237 139 l 114 -171 l 31 -171 l 107 139 z "},"<":{"ha":833,"x_min":53,"x_max":739,"o":"m 239 419 l 739 201 l 739 82 l 53 382 l 53 458 l 739 758 l 739 639 l 239 419 z "},"=":{"ha":888,"x_min":126,"x_max":762,"o":"m 126 604 l 762 604 l 762 504 l 126 504 l 126 604 m 126 307 l 762 307 l 762 207 l 126 207 l 126 307 z "},">":{"ha":833,"x_min":94,"x_max":781,"o":"m 94 201 l 595 419 l 94 639 l 94 758 l 781 458 l 781 382 l 94 82 l 94 201 z "},"?":{"ha":568,"x_min":-5,"x_max":547,"o":"m 414 747 q 369 848 414 811 q 245 885 323 885 q 39 832 165 885 l -5 940 q 122 987 57 970 q 248 1004 187 1004 q 468 936 389 1004 q 547 747 547 868 q 530 638 547 682 q 487 569 513 595 q 418 511 461 543 q 339 444 369 475 q 289 356 310 412 q 268 214 268 300 l 140 214 q 165 398 140 328 q 224 507 189 469 q 311 582 258 545 q 367 627 347 608 q 400 675 387 646 q 414 747 414 704 m 136 139 l 275 139 l 275 0 l 136 0 l 136 139 z "},"@":{"ha":1392,"x_min":66,"x_max":1325,"o":"m 66 302 q 150 663 66 507 q 386 905 233 819 q 737 991 538 991 q 1046 923 912 991 q 1252 730 1179 854 q 1325 441 1325 606 q 1288 229 1325 321 q 1185 87 1251 138 q 1031 37 1118 37 q 911 74 963 37 q 839 168 859 110 q 746 74 806 110 q 623 37 686 37 q 468 102 527 37 q 410 273 410 167 q 455 469 410 385 q 583 599 500 553 q 774 646 665 646 q 860 637 811 646 q 951 612 909 628 l 922 393 q 917 318 917 360 q 950 193 917 240 q 1038 146 983 146 q 1157 227 1112 146 q 1203 437 1203 307 q 1145 667 1203 568 q 981 821 1086 766 q 737 876 876 876 q 450 805 574 876 q 258 603 326 733 q 189 302 189 473 q 253 42 189 155 q 433 -133 317 -71 q 700 -196 549 -196 q 826 -185 761 -196 q 933 -157 890 -175 l 966 -264 q 839 -298 912 -285 q 700 -311 765 -311 q 368 -235 511 -311 q 146 -19 225 -158 q 66 302 66 121 m 835 532 q 757 542 791 542 q 596 474 657 542 q 534 294 534 406 q 564 187 534 228 q 642 146 593 146 q 750 202 704 146 q 808 350 796 258 l 835 532 z "},"A":{"ha":894,"x_min":20,"x_max":876,"o":"m 252 285 l 154 0 l 20 0 l 358 983 l 525 983 l 876 0 l 746 0 l 644 285 l 252 285 m 440 846 l 292 403 l 603 403 l 449 846 l 440 846 z "},"B":{"ha":880,"x_min":129,"x_max":818,"o":"m 643 514 q 773 430 729 486 q 818 290 818 374 q 730 76 818 151 q 481 0 642 0 l 129 0 l 129 983 l 440 983 q 691 917 604 983 q 778 722 778 850 q 643 521 778 575 l 643 514 m 440 567 q 639 722 639 567 q 440 865 639 865 l 262 865 l 262 567 l 440 567 m 481 118 q 628 162 576 118 q 679 290 679 207 q 460 449 679 448 l 262 449 l 262 118 l 481 118 z "},"C":{"ha":858,"x_min":66,"x_max":829,"o":"m 533 994 q 683 974 608 994 q 822 913 757 953 l 766 804 q 646 854 703 839 q 533 869 590 869 q 291 772 376 869 q 205 494 205 675 q 290 214 205 313 q 529 115 374 115 q 781 174 652 115 l 829 60 q 680 9 762 28 q 524 -9 599 -9 q 184 120 301 -9 q 66 494 66 250 q 122 762 66 650 q 282 935 178 875 q 533 994 387 994 z "},"D":{"ha":986,"x_min":129,"x_max":920,"o":"m 447 983 q 798 858 676 983 q 920 494 920 732 q 797 129 920 257 q 447 0 673 0 l 129 0 l 129 983 l 447 983 m 447 118 q 695 214 610 118 q 781 494 781 310 q 696 771 781 676 q 447 865 611 865 l 262 865 l 262 118 l 447 118 z "},"E":{"ha":777,"x_min":129,"x_max":729,"o":"m 262 574 l 668 574 l 668 456 l 262 456 l 262 118 l 729 118 l 729 0 l 129 0 l 129 983 l 714 983 l 714 865 l 262 865 l 262 574 z "},"F":{"ha":739,"x_min":129,"x_max":714,"o":"m 262 574 l 646 574 l 646 456 l 262 456 l 262 0 l 129 0 l 129 983 l 714 983 l 714 865 l 262 865 l 262 574 z "},"G":{"ha":919,"x_min":66,"x_max":843,"o":"m 843 60 q 689 9 775 28 q 524 -9 603 -9 q 184 120 301 -9 q 66 494 66 250 q 122 762 66 650 q 282 935 178 875 q 533 994 387 994 q 688 974 610 994 q 836 913 766 953 l 781 804 q 654 853 714 838 q 533 869 595 869 q 291 772 376 869 q 205 494 205 675 q 290 214 205 313 q 529 115 374 115 q 710 143 618 115 l 710 489 l 843 489 l 843 60 z "},"H":{"ha":1027,"x_min":129,"x_max":899,"o":"m 765 983 l 899 983 l 899 0 l 765 0 l 765 452 l 262 452 l 262 0 l 129 0 l 129 983 l 262 983 l 262 570 l 765 570 l 765 983 z "},"I":{"ha":391,"x_min":129,"x_max":262,"o":"m 129 983 l 262 983 l 262 0 l 129 0 l 129 983 z "},"J":{"ha":464,"x_min":-4,"x_max":339,"o":"m -4 -103 q 146 12 85 -66 q 208 168 208 90 l 208 865 l 16 865 l 16 983 l 339 983 l 339 168 q 300 23 339 96 q 194 -108 261 -50 q 46 -193 126 -165 l -4 -103 z "},"K":{"ha":890,"x_min":129,"x_max":880,"o":"m 129 983 l 262 983 l 262 0 l 129 0 l 129 983 m 880 0 l 711 0 l 292 530 l 684 983 l 846 983 l 457 533 l 880 0 z "},"L":{"ha":726,"x_min":129,"x_max":711,"o":"m 711 0 l 129 0 l 129 983 l 262 983 l 262 118 l 711 118 l 711 0 z "},"M":{"ha":1255,"x_min":66,"x_max":1189,"o":"m 961 822 q 914 667 950 785 q 852 478 878 549 l 694 28 l 561 28 l 403 478 q 340 672 375 557 q 294 822 306 786 l 253 478 l 193 0 l 66 0 l 192 983 l 357 983 l 534 464 q 554 404 543 437 q 578 332 566 371 q 628 178 611 226 q 677 332 645 227 q 701 404 690 370 q 721 464 713 437 l 899 983 l 1064 983 l 1189 0 l 1063 0 l 1003 478 l 961 822 z "},"N":{"ha":1023,"x_min":129,"x_max":895,"o":"m 408 530 q 256 772 345 622 l 256 0 l 129 0 l 129 983 l 241 983 l 606 467 q 768 214 660 390 l 768 983 l 895 983 l 895 0 l 782 0 l 408 530 z "},"O":{"ha":1026,"x_min":66,"x_max":960,"o":"m 514 994 q 843 864 726 994 q 960 496 960 733 q 844 118 960 250 q 514 -14 729 -14 q 182 118 298 -14 q 66 496 66 249 q 183 864 66 734 q 514 994 300 994 m 514 869 q 285 773 364 869 q 205 496 205 677 q 286 211 205 310 q 514 111 366 111 q 742 211 663 111 q 821 496 821 311 q 742 773 821 676 q 514 869 663 869 z "},"P":{"ha":795,"x_min":129,"x_max":757,"o":"m 419 983 q 670 909 583 983 q 757 694 757 835 q 669 480 757 555 q 419 404 581 404 l 262 404 l 262 0 l 129 0 l 129 983 l 419 983 m 419 522 q 618 694 618 522 q 569 823 618 781 q 419 865 521 865 l 262 865 l 262 522 l 419 522 z "},"Q":{"ha":1026,"x_min":66,"x_max":960,"o":"m 741 -176 q 842 -158 789 -176 l 880 -272 q 732 -297 804 -297 q 527 -221 606 -297 q 432 -8 449 -146 q 160 144 254 16 q 66 496 66 273 q 183 864 66 734 q 514 994 300 994 q 843 864 726 994 q 960 496 960 733 q 853 129 960 260 q 546 -12 746 -3 q 609 -136 562 -96 q 741 -176 657 -176 m 205 496 q 286 211 205 310 q 514 111 366 111 q 742 211 663 111 q 821 496 821 311 q 742 773 821 676 q 514 869 663 869 q 285 773 364 869 q 205 496 205 677 z "},"R":{"ha":850,"x_min":129,"x_max":807,"o":"m 262 0 l 129 0 l 129 983 l 419 983 q 681 909 591 983 q 771 694 771 835 q 723 527 771 595 q 583 428 675 460 l 807 0 l 653 0 l 444 404 l 262 404 l 262 0 m 419 522 q 632 694 632 522 q 580 823 632 781 q 419 865 528 865 l 262 865 l 262 522 l 419 522 z "},"S":{"ha":733,"x_min":49,"x_max":679,"o":"m 404 994 q 648 942 522 995 l 615 819 q 401 868 489 868 q 260 833 313 868 q 208 737 208 799 q 227 663 208 692 q 290 610 245 633 q 415 562 335 586 q 618 453 558 521 q 679 271 679 386 q 590 63 679 138 q 346 -12 501 -12 q 49 57 212 -12 l 89 178 q 235 128 180 142 q 346 114 289 114 q 488 156 436 114 q 541 269 541 197 q 521 346 541 315 q 453 401 501 376 q 318 449 406 425 q 127 548 184 485 q 69 718 69 611 q 158 922 69 849 q 404 994 248 994 z "},"T":{"ha":753,"x_min":14,"x_max":739,"o":"m 739 865 l 452 865 l 452 0 l 318 0 l 318 865 l 14 865 l 14 983 l 739 983 l 739 865 z "},"U":{"ha":985,"x_min":109,"x_max":876,"o":"m 876 330 q 775 78 876 168 q 492 -12 673 -12 q 209 77 309 -12 q 109 330 109 167 l 109 983 l 241 983 l 241 330 q 303 165 241 219 q 492 111 366 111 q 743 330 743 111 l 743 983 l 876 983 l 876 330 z "},"V":{"ha":888,"x_min":20,"x_max":869,"o":"m 20 983 l 160 983 l 334 481 q 444 146 401 285 q 555 481 483 271 l 729 983 l 869 983 l 533 0 l 355 0 l 20 983 z "},"W":{"ha":1364,"x_min":29,"x_max":1335,"o":"m 742 587 q 713 721 731 636 l 682 856 l 652 721 q 623 587 633 636 l 479 0 l 278 0 l 29 983 l 164 983 l 289 482 l 380 123 l 469 482 l 593 983 l 771 983 l 895 482 l 983 123 l 1075 482 l 1200 983 l 1335 983 l 1086 0 l 885 0 l 742 587 z "},"X":{"ha":861,"x_min":18,"x_max":843,"o":"m 18 0 l 343 510 l 43 983 l 199 983 l 431 616 l 663 983 l 818 983 l 518 510 l 843 0 l 689 0 l 431 403 l 172 0 l 18 0 z "},"Y":{"ha":797,"x_min":7,"x_max":790,"o":"m 301 714 q 357 606 329 661 q 395 529 385 550 l 403 529 q 445 614 412 550 q 497 714 478 677 l 646 983 l 790 983 l 464 414 l 464 0 l 332 0 l 332 414 l 7 983 l 153 983 l 301 714 z "},"Z":{"ha":747,"x_min":41,"x_max":704,"o":"m 704 983 l 704 885 l 205 115 l 697 115 l 697 0 l 41 0 l 41 104 l 538 871 l 58 871 l 58 983 l 704 983 z "},"[":{"ha":441,"x_min":126,"x_max":422,"o":"m 243 -168 l 422 -168 l 422 -268 l 126 -268 l 126 1075 l 422 1075 l 422 975 l 243 975 l 243 -168 z "},"\\":{"ha":476,"x_min":3,"x_max":473,"o":"m 117 1031 l 473 -85 l 359 -85 l 3 1031 l 117 1031 z "},"]":{"ha":441,"x_min":20,"x_max":315,"o":"m 20 1075 l 315 1075 l 315 -268 l 20 -268 l 20 -168 l 199 -168 l 199 975 l 20 975 l 20 1075 z "},"^":{"ha":707,"x_min":8,"x_max":699,"o":"m 353 876 l 125 504 l 8 504 l 315 982 l 390 982 l 699 505 l 581 505 l 353 876 z "},"_":{"ha":833,"x_min":104,"x_max":729,"o":"m 104 -69 l 729 -69 l 729 -183 l 104 -183 l 104 -69 z "},"`":{"ha":407,"x_min":69,"x_max":338,"o":"m 153 1063 l 338 835 l 286 787 l 69 977 l 153 1063 z "},"a":{"ha":728,"x_min":45,"x_max":632,"o":"m 354 725 q 560 655 488 725 q 632 454 632 585 l 632 0 l 532 0 l 513 83 q 278 -14 408 -14 q 108 44 171 -14 q 45 199 45 102 q 137 374 45 311 q 396 437 229 437 l 501 437 l 501 457 q 345 610 496 610 q 241 596 298 610 q 125 558 183 582 l 89 664 q 221 709 151 693 q 354 725 290 725 m 404 338 q 235 302 296 338 q 175 203 175 267 q 208 128 175 154 q 301 102 241 102 q 412 126 358 102 q 501 191 467 150 l 501 338 l 404 338 z "},"b":{"ha":822,"x_min":115,"x_max":762,"o":"m 245 635 q 337 703 285 679 q 449 726 389 726 q 681 633 599 726 q 762 370 762 541 q 665 91 762 192 q 396 -11 568 -11 q 245 4 322 -11 q 115 45 168 20 l 115 1042 l 245 1042 l 245 635 m 440 611 q 317 574 370 611 q 245 472 265 538 l 245 131 q 395 104 311 104 q 568 174 506 104 q 629 370 629 244 q 580 548 629 485 q 440 611 530 611 z "},"c":{"ha":652,"x_min":60,"x_max":624,"o":"m 401 726 q 616 667 513 726 l 571 562 q 401 611 484 611 q 248 545 302 611 q 193 358 193 479 q 249 172 193 236 q 410 107 304 107 q 496 119 448 107 q 589 150 545 131 l 624 46 q 510 6 571 21 q 395 -8 449 -8 q 147 87 235 -8 q 60 358 60 183 q 150 629 60 532 q 401 726 240 726 z "},"d":{"ha":806,"x_min":60,"x_max":708,"o":"m 586 90 q 488 13 540 37 q 374 -11 436 -11 q 142 82 224 -11 q 60 346 60 175 q 157 625 60 524 q 427 726 254 726 q 578 707 489 726 l 578 1042 l 708 1042 l 708 1 l 604 1 l 586 90 m 382 104 q 502 141 450 104 q 578 244 553 178 l 578 590 q 494 607 522 604 q 428 611 467 611 q 255 541 317 611 q 193 346 193 471 q 242 168 193 231 q 382 104 292 104 z "},"e":{"ha":744,"x_min":60,"x_max":692,"o":"m 193 334 q 253 163 199 222 q 406 104 307 104 q 510 116 460 104 q 625 155 561 127 l 667 58 q 528 6 593 22 q 399 -11 464 -11 q 149 86 237 -11 q 60 358 60 183 q 147 630 60 533 q 395 726 235 726 q 618 636 545 726 q 692 363 692 546 l 692 334 l 193 334 m 557 443 q 510 569 551 526 q 395 611 468 611 q 200 443 232 611 l 557 443 z "},"f":{"ha":484,"x_min":20,"x_max":547,"o":"m 144 810 q 204 986 144 924 q 372 1048 264 1048 q 453 1040 414 1048 q 547 1010 492 1032 l 500 908 q 382 932 428 932 q 303 902 330 932 q 275 819 275 872 l 275 714 l 478 714 l 478 602 l 275 602 l 275 46 q 265 -86 275 -26 q 231 -212 254 -146 l 144 -212 l 144 602 l 20 602 l 20 714 l 144 714 l 144 810 z "},"g":{"ha":823,"x_min":60,"x_max":708,"o":"m 416 720 q 508 706 464 720 q 585 669 551 693 l 600 714 l 708 714 l 708 -20 q 616 -245 708 -163 q 367 -328 525 -328 q 213 -308 288 -328 q 82 -254 139 -289 l 131 -150 q 248 -195 181 -178 q 375 -212 315 -212 q 525 -163 472 -212 q 578 -22 578 -114 l 578 81 q 374 -11 493 -11 q 142 82 224 -11 q 60 346 60 175 q 153 622 60 524 q 416 720 245 720 m 424 611 q 255 540 317 611 q 193 346 193 469 q 242 168 193 231 q 382 104 292 104 q 503 142 451 104 q 578 248 555 180 l 578 570 q 505 600 546 589 q 424 611 464 611 z "},"h":{"ha":821,"x_min":115,"x_max":722,"o":"m 245 623 q 488 726 345 726 q 662 661 602 726 q 722 469 722 595 l 722 0 l 591 0 l 591 460 q 559 575 591 539 q 454 611 526 611 q 335 583 391 611 q 245 504 279 554 l 245 0 l 115 0 l 115 1047 l 245 1047 l 245 623 z "},"i":{"ha":358,"x_min":114,"x_max":244,"o":"m 114 978 l 244 978 l 244 844 l 114 844 l 114 978 m 114 714 l 244 714 l 244 0 l 114 0 l 114 714 z "},"j":{"ha":361,"x_min":-28,"x_max":249,"o":"m 118 978 l 249 978 l 249 844 l 118 844 l 118 978 m -28 -192 q 84 -22 50 -96 q 118 122 118 52 l 118 714 l 249 714 l 249 122 q 201 -68 249 20 q 47 -253 153 -157 l -28 -192 z "},"k":{"ha":733,"x_min":115,"x_max":732,"o":"m 115 1048 l 245 1048 l 245 0 l 115 0 l 115 1048 m 732 0 l 572 0 l 264 404 l 528 714 l 682 714 l 422 411 l 732 0 z "},"l":{"ha":361,"x_min":115,"x_max":245,"o":"m 115 1042 l 245 1042 l 245 0 l 115 0 l 115 1042 z "},"m":{"ha":1280,"x_min":114,"x_max":1182,"o":"m 235 615 q 471 726 329 726 q 690 600 633 726 q 939 726 787 726 q 1120 661 1058 726 q 1182 469 1182 596 l 1182 0 l 1051 0 l 1051 460 q 1019 575 1051 539 q 914 611 986 611 q 798 583 850 611 q 711 504 745 555 q 713 491 711 501 q 714 464 714 481 l 714 0 l 583 0 l 583 460 q 551 575 583 539 q 446 611 518 611 q 331 583 385 611 q 244 505 277 554 l 244 0 l 114 0 l 114 714 l 220 714 l 235 615 z "},"n":{"ha":819,"x_min":114,"x_max":721,"o":"m 235 614 q 348 699 286 671 q 486 726 410 726 q 661 661 600 726 q 721 469 721 595 l 721 0 l 590 0 l 590 460 q 557 575 590 539 q 453 611 525 611 q 334 583 389 611 q 244 504 278 554 l 244 0 l 114 0 l 114 714 l 220 714 l 235 614 z "},"o":{"ha":797,"x_min":60,"x_max":737,"o":"m 399 728 q 648 630 559 728 q 737 358 737 533 q 648 86 737 183 q 399 -11 559 -11 q 149 86 237 -11 q 60 358 60 183 q 149 630 60 533 q 399 728 237 728 m 399 612 q 246 547 298 612 q 193 358 193 482 q 246 170 193 235 q 399 104 298 104 q 551 170 498 104 q 604 358 604 235 q 551 547 604 481 q 399 612 498 612 z "},"p":{"ha":823,"x_min":115,"x_max":764,"o":"m 450 725 q 682 632 600 725 q 764 368 764 539 q 667 89 764 191 q 397 -12 570 -12 q 245 7 332 -12 l 245 -328 l 115 -328 l 115 713 l 220 713 l 237 624 q 335 701 283 677 q 450 725 386 725 m 396 103 q 569 173 507 103 q 631 368 631 243 q 581 547 631 484 q 441 610 532 610 q 320 574 371 610 q 245 471 269 539 l 245 123 q 329 106 302 110 q 396 103 355 103 z "},"q":{"ha":798,"x_min":60,"x_max":700,"o":"m 432 726 q 700 673 579 726 l 700 -328 l 570 -328 l 570 72 q 476 11 528 32 q 368 -11 424 -11 q 142 82 225 -11 q 60 338 60 175 q 105 543 60 456 q 235 679 151 631 q 432 726 319 726 m 375 104 q 486 138 435 104 q 570 233 536 172 l 570 590 q 432 611 503 611 q 257 537 322 611 q 192 338 192 463 q 240 166 192 228 q 375 104 289 104 z "},"r":{"ha":529,"x_min":114,"x_max":525,"o":"m 235 614 q 322 698 272 669 q 432 726 372 726 q 525 711 472 726 l 501 583 q 410 597 433 597 q 311 575 350 597 q 244 503 272 553 l 244 0 l 114 0 l 114 714 l 218 714 l 235 614 z "},"s":{"ha":601,"x_min":43,"x_max":549,"o":"m 329 726 q 532 681 416 727 l 497 572 q 329 612 395 612 q 233 589 268 612 q 197 525 197 566 q 229 466 197 486 q 322 427 260 446 q 440 383 396 403 q 516 319 484 363 q 549 203 549 275 q 478 46 549 104 q 286 -12 407 -12 q 43 41 160 -12 l 83 154 q 195 115 150 126 q 285 103 240 103 q 383 128 349 103 q 418 200 418 153 q 398 251 418 231 q 351 282 379 271 q 269 310 322 293 q 164 352 205 331 q 95 414 123 372 q 66 524 66 456 q 138 671 66 616 q 329 726 210 726 z "},"t":{"ha":537,"x_min":20,"x_max":505,"o":"m 505 24 q 355 -8 425 -8 q 198 45 252 -8 q 144 201 144 98 l 144 602 l 20 602 l 20 714 l 151 714 l 179 918 l 275 918 l 275 714 l 493 714 l 493 602 l 275 602 l 275 222 q 299 135 275 161 q 379 109 323 109 q 481 126 428 109 l 505 24 z "},"u":{"ha":819,"x_min":98,"x_max":705,"o":"m 229 253 q 262 139 229 175 q 367 103 294 103 q 484 132 428 103 q 575 208 539 160 l 575 714 l 705 714 l 705 0 l 600 0 l 583 98 q 342 -12 489 -13 q 160 53 222 -12 q 98 243 98 118 l 98 714 l 229 714 l 229 253 z "},"v":{"ha":697,"x_min":12,"x_max":685,"o":"m 12 714 l 150 714 l 286 334 q 310 262 297 303 q 329 201 322 221 q 351 131 329 204 l 374 201 q 416 334 408 310 l 553 714 l 685 714 l 431 0 l 267 0 l 12 714 z "},"w":{"ha":1104,"x_min":25,"x_max":1079,"o":"m 602 338 q 572 460 592 372 q 564 495 568 475 q 553 539 559 515 q 530 449 543 507 q 503 338 512 370 l 407 0 l 227 0 l 25 714 l 154 714 l 252 359 l 317 126 q 386 359 364 281 l 490 714 l 614 714 l 718 359 q 787 126 741 281 l 852 359 l 950 714 l 1079 714 l 878 0 l 697 0 l 602 338 z "},"x":{"ha":709,"x_min":14,"x_max":696,"o":"m 14 0 l 273 371 l 35 714 l 187 714 l 355 469 l 522 714 l 675 714 l 436 371 l 696 0 l 543 -1 l 355 272 l 167 -1 l 14 0 z "},"y":{"ha":690,"x_min":14,"x_max":677,"o":"m 285 0 l 14 714 l 143 714 l 235 465 l 258 401 l 347 153 l 376 240 q 406 330 383 261 q 454 465 429 399 l 547 714 l 677 714 l 281 -328 l 163 -328 l 285 0 z "},"z":{"ha":629,"x_min":41,"x_max":590,"o":"m 575 714 l 575 625 l 205 115 l 590 115 l 590 0 l 41 0 l 41 93 l 408 599 l 61 599 l 61 714 l 575 714 z "},"{":{"ha":448,"x_min":22,"x_max":431,"o":"m 135 160 q 103 304 135 241 q 22 385 72 367 l 22 447 q 135 663 135 493 l 135 836 q 191 1018 135 961 q 372 1075 248 1075 l 431 1075 l 431 983 l 368 983 q 279 956 307 983 q 252 865 252 928 l 252 624 q 227 515 252 566 q 146 415 201 465 l 146 406 q 227 302 203 349 q 252 201 252 256 l 252 -56 q 279 -148 252 -119 q 368 -176 307 -176 l 431 -176 l 431 -268 l 367 -268 q 188 -214 241 -268 q 135 -29 135 -160 l 135 160 z "},"|":{"ha":347,"x_min":115,"x_max":232,"o":"m 115 1075 l 232 1075 l 232 -268 l 115 -268 l 115 1075 z "},"}":{"ha":448,"x_min":18,"x_max":427,"o":"m 81 -176 q 170 -148 142 -176 q 197 -56 197 -119 l 197 201 q 221 302 197 256 q 302 406 245 349 l 302 415 q 222 515 247 465 q 197 624 197 566 l 197 865 q 170 956 197 928 q 81 983 142 983 l 18 983 l 18 1075 l 77 1075 q 258 1018 201 1075 q 314 836 314 961 l 314 663 q 427 447 314 493 l 427 385 q 345 304 376 366 q 314 160 314 241 l 314 -29 q 261 -214 314 -160 q 82 -268 208 -268 l 18 -268 l 18 -176 l 81 -176 z "},"~":{"ha":918,"x_min":111,"x_max":807,"o":"m 322 529 q 250 496 275 529 q 224 406 224 464 l 111 406 q 167 570 111 509 q 314 632 222 632 q 415 609 376 632 q 493 543 453 586 q 547 495 525 510 q 602 479 570 479 q 669 513 644 479 q 694 603 694 546 l 807 603 q 751 438 807 500 q 604 376 696 376 q 506 400 545 376 q 427 467 468 424 q 374 514 396 498 q 322 529 351 529 z "}," ":{"ha":347,"x_min":0,"x_max":0,"o":""},"¡":{"ha":336,"x_min":102,"x_max":235,"o":"m 104 586 l 104 714 l 233 714 l 233 586 l 104 586 m 102 -286 l 118 458 l 216 458 l 235 -286 l 102 -286 z "},"¢":{"ha":615,"x_min":53,"x_max":583,"o":"m 583 180 q 422 134 503 143 l 422 0 l 311 0 l 311 134 q 120 239 188 151 q 53 475 53 328 q 120 709 53 621 q 311 817 187 798 l 311 982 l 422 982 l 422 818 q 576 764 505 807 l 534 667 q 375 713 452 713 q 229 651 281 713 q 178 475 178 589 q 231 298 178 359 q 382 237 283 237 q 464 249 419 237 q 550 279 509 260 l 583 180 z "},"£":{"ha":722,"x_min":56,"x_max":689,"o":"m 332 412 q 293 241 332 328 q 197 111 254 155 l 682 111 l 682 0 l 72 0 l 72 103 q 164 241 136 168 q 193 412 193 314 l 193 440 l 56 440 l 56 541 l 178 541 q 163 596 174 560 q 145 663 152 633 q 139 726 139 692 q 222 922 139 850 q 443 994 304 994 q 598 956 533 994 q 689 847 663 917 l 590 799 q 538 861 576 839 q 443 884 500 884 q 316 840 362 884 q 269 721 269 796 q 276 669 269 693 q 294 608 282 644 l 315 541 l 538 541 l 538 440 l 330 440 l 332 412 z "},"¤":{"ha":827,"x_min":29,"x_max":799,"o":"m 665 444 q 629 307 665 367 l 799 139 l 721 61 l 551 229 q 414 193 494 193 q 275 229 334 193 l 107 61 l 29 139 l 197 307 q 163 444 163 368 q 199 582 163 525 l 29 753 l 107 831 l 277 660 q 414 696 336 696 q 551 661 490 696 l 721 831 l 799 753 l 629 583 q 665 444 665 524 m 279 444 q 317 338 279 380 q 414 296 355 296 q 510 338 472 296 q 549 444 549 380 q 510 550 549 508 q 414 593 472 593 q 317 551 355 593 q 279 444 279 509 z "},"¥":{"ha":836,"x_min":26,"x_max":810,"o":"m 484 411 l 484 281 l 728 281 l 728 180 l 484 180 l 484 0 l 351 0 l 351 180 l 107 180 l 107 281 l 351 281 l 351 411 l 107 411 l 107 511 l 296 511 l 26 983 l 172 983 l 418 543 l 665 983 l 810 983 l 539 511 l 728 511 l 728 411 l 484 411 z "},"¦":{"ha":308,"x_min":96,"x_max":212,"o":"m 96 1075 l 212 1075 l 212 551 l 96 551 l 96 1075 m 96 278 l 212 278 l 212 -268 l 96 -268 l 96 278 z "},"§":{"ha":562,"x_min":33,"x_max":529,"o":"m 334 1072 q 467 1053 400 1072 l 453 956 q 351 968 399 968 q 258 937 290 968 q 227 850 227 907 q 258 764 227 804 q 355 664 289 725 q 446 575 411 612 q 505 488 481 538 q 529 380 529 439 q 496 245 529 307 q 399 146 463 184 q 473 -39 474 57 q 408 -204 473 -143 q 229 -265 342 -265 q 96 -245 168 -265 l 110 -147 q 211 -160 157 -159 q 335 -41 334 -160 q 303 45 335 6 q 205 143 271 85 q 116 229 150 192 q 58 315 82 265 q 33 425 33 366 q 66 559 33 499 q 164 661 100 619 q 87 846 87 747 q 154 1011 87 950 q 334 1072 220 1072 m 208 616 q 150 460 150 541 q 166 389 150 422 q 226 310 183 355 q 354 191 269 265 q 412 349 412 264 q 396 418 412 385 q 337 496 379 452 q 208 616 294 541 z "},"¨":{"ha":519,"x_min":69,"x_max":450,"o":"m 69 966 l 199 966 l 199 838 l 69 838 l 69 966 m 322 966 l 450 966 l 450 838 l 322 838 l 322 966 z "},"©":{"ha":843,"x_min":46,"x_max":798,"o":"m 46 467 q 96 654 46 568 q 233 790 146 741 q 422 840 319 840 q 611 791 526 840 q 747 657 697 742 q 798 469 798 572 q 747 280 798 366 q 610 142 696 193 q 422 92 524 92 q 232 142 318 92 q 96 278 146 192 q 46 467 46 364 m 710 467 q 671 613 710 546 q 566 720 632 681 q 422 760 500 760 q 278 721 345 760 q 174 615 212 682 q 135 469 135 549 q 174 321 135 389 q 278 215 212 254 q 422 175 345 175 q 568 214 502 175 q 672 320 633 253 q 710 467 710 387 m 243 468 q 293 605 243 554 q 429 656 343 656 q 504 640 469 656 q 562 593 539 624 l 513 543 q 475 575 494 566 q 429 585 456 585 q 357 554 383 585 q 332 468 332 524 q 358 380 332 411 q 436 350 385 350 q 530 376 479 350 l 553 311 q 497 288 529 296 q 433 279 465 279 q 294 329 345 279 q 243 468 243 379 z "},"ª":{"ha":465,"x_min":24,"x_max":416,"o":"m 24 642 q 85 761 24 718 q 257 803 147 803 l 317 803 l 317 811 q 224 905 313 905 q 78 869 161 905 l 52 947 q 141 979 93 968 q 231 990 189 990 q 368 943 319 990 q 416 810 416 896 l 416 510 l 338 510 l 326 554 q 182 498 265 498 q 67 537 110 498 q 24 642 24 576 m 262 729 q 160 707 196 729 q 123 643 123 685 q 143 598 123 614 q 199 583 163 583 q 262 598 231 583 q 317 639 294 612 l 317 729 l 262 729 z "},"«":{"ha":688,"x_min":17,"x_max":653,"o":"m 323 107 l 228 33 l 17 363 l 229 693 l 326 623 l 154 363 l 323 107 m 652 107 l 555 33 l 345 363 l 557 693 l 653 623 l 481 363 l 652 107 z "},"¬":{"ha":875,"x_min":81,"x_max":717,"o":"m 717 264 l 608 264 l 608 504 l 81 504 l 81 604 l 717 604 l 717 264 z "},"­":{"ha":833,"x_min":104,"x_max":586,"o":"m 104 498 l 586 498 l 586 387 l 104 387 l 104 498 z "},"®":{"ha":843,"x_min":46,"x_max":798,"o":"m 422 996 q 611 946 525 996 q 747 812 697 897 q 798 625 798 728 q 747 435 798 522 q 610 298 696 349 q 422 248 524 248 q 232 297 318 248 q 96 433 146 347 q 46 623 46 519 q 96 810 46 724 q 233 946 146 896 q 422 996 319 996 m 422 916 q 278 877 345 916 q 174 771 212 838 q 135 625 135 704 q 174 477 135 545 q 278 370 212 410 q 422 330 345 330 q 568 369 502 330 q 672 476 633 408 q 710 623 710 543 q 671 769 710 702 q 566 876 632 836 q 422 916 500 916 m 428 825 q 531 794 496 825 q 567 707 567 764 q 549 639 567 667 q 496 599 530 611 l 579 463 l 518 429 l 424 587 l 370 587 l 370 437 l 298 437 l 298 825 l 428 825 m 428 650 q 476 664 460 650 q 493 707 493 679 q 476 748 493 733 q 428 762 460 762 l 370 762 l 370 650 l 428 650 z "},"¯":{"ha":561,"x_min":69,"x_max":492,"o":"m 69 950 l 492 950 l 492 852 l 69 852 l 69 950 z "},"°":{"ha":573,"x_min":57,"x_max":515,"o":"m 57 755 q 87 870 57 818 q 171 953 118 922 q 288 983 224 983 q 402 953 350 983 q 485 870 454 922 q 515 755 515 818 q 485 639 515 692 q 402 555 454 586 q 288 525 350 525 q 172 556 225 525 q 88 640 119 587 q 57 755 57 693 m 410 755 q 375 849 410 811 q 289 886 340 886 q 203 849 237 886 q 168 755 168 811 q 203 663 168 701 q 289 624 239 624 q 374 663 339 624 q 410 755 410 701 z "},"±":{"ha":806,"x_min":79,"x_max":728,"o":"m 342 807 l 458 807 l 458 545 l 728 545 l 728 444 l 458 444 l 458 180 l 342 180 l 342 444 l 79 444 l 79 545 l 342 545 l 342 807 m 79 100 l 728 100 l 728 0 l 79 0 l 79 100 z "},"²":{"ha":462,"x_min":24,"x_max":431,"o":"m 197 1204 q 357 1152 298 1204 q 416 1011 416 1100 q 385 889 416 943 q 262 747 354 835 l 182 671 q 431 686 305 675 l 431 583 l 28 583 l 24 663 l 157 785 q 266 905 239 859 q 293 1007 293 951 q 262 1082 293 1056 q 178 1108 232 1108 q 43 1075 113 1108 l 25 1169 q 197 1204 114 1204 z "},"³":{"ha":462,"x_min":21,"x_max":425,"o":"m 40 685 q 171 665 106 665 q 269 688 235 665 q 302 754 302 711 q 163 851 302 851 l 121 851 l 121 937 l 157 937 q 255 962 220 937 q 289 1031 289 986 q 260 1088 289 1068 q 182 1108 232 1108 q 40 1078 122 1108 l 21 1165 q 199 1200 109 1200 q 353 1157 294 1200 q 412 1039 412 1114 q 381 949 412 983 q 290 901 350 914 q 390 848 355 888 q 425 749 425 808 q 360 620 425 665 q 179 574 296 574 q 25 597 98 574 l 40 685 z "},"´":{"ha":407,"x_min":69,"x_max":338,"o":"m 69 835 l 254 1063 l 338 977 l 121 787 l 69 835 z "},"¶":{"ha":663,"x_min":11,"x_max":549,"o":"m 282 468 q 85 539 160 468 q 11 726 11 610 q 82 915 11 847 q 282 983 154 983 l 549 983 l 549 -267 l 458 -267 l 458 907 l 372 907 l 372 -267 l 282 -267 l 282 468 z "},"·":{"ha":350,"x_min":106,"x_max":244,"o":"m 106 488 l 244 488 l 244 349 l 106 349 l 106 488 z "},"¸":{"ha":374,"x_min":69,"x_max":306,"o":"m 214 -62 q 279 -110 253 -77 q 306 -178 306 -143 q 272 -264 306 -233 q 187 -296 237 -296 q 69 -261 127 -296 l 94 -208 q 158 -225 123 -225 q 197 -212 183 -225 q 211 -175 211 -199 q 192 -133 211 -150 q 132 -104 174 -117 l 123 -75 l 176 0 l 235 0 l 214 -62 z "},"¹":{"ha":359,"x_min":8,"x_max":292,"o":"m 292 1194 l 292 583 l 174 583 l 174 1096 l 29 1055 l 8 1122 l 214 1207 l 292 1194 z "},"º":{"ha":512,"x_min":31,"x_max":482,"o":"m 31 747 q 90 927 31 863 q 257 991 150 991 q 423 927 364 991 q 482 747 482 863 q 423 566 482 631 q 257 501 364 501 q 90 566 150 501 q 31 747 31 631 m 380 747 q 349 866 380 825 q 257 907 318 907 q 165 866 196 907 q 134 747 134 825 q 165 628 134 669 q 257 586 197 586 q 349 628 317 586 q 380 747 380 669 z "},"»":{"ha":847,"x_min":117,"x_max":751,"o":"m 424 363 l 212 33 l 118 107 l 286 363 l 117 623 l 211 693 l 424 363 m 751 363 l 541 33 l 443 107 l 614 363 l 441 623 l 539 693 l 751 363 z "},"¼":{"ha":1135,"x_min":8,"x_max":1116,"o":"m 138 -1 l 730 1025 l 823 974 l 231 -53 l 138 -1 m 292 972 l 292 361 l 174 361 l 174 873 l 29 833 l 8 900 l 214 985 l 292 972 m 1042 135 l 1042 0 l 932 0 l 932 135 l 628 135 l 616 201 l 869 618 l 1042 618 l 1042 221 l 1116 221 l 1103 135 l 1042 135 m 746 221 l 932 221 l 932 533 l 746 221 z "},"½":{"ha":1065,"x_min":8,"x_max":1032,"o":"m 138 -1 l 730 1025 l 823 974 l 231 -53 l 138 -1 m 292 972 l 292 361 l 174 361 l 174 873 l 29 833 l 8 900 l 214 985 l 292 972 m 799 621 q 959 569 900 621 q 1018 428 1018 517 q 987 306 1018 360 q 864 164 956 252 l 783 87 q 1032 103 907 92 l 1032 0 l 629 0 l 625 79 l 758 201 q 867 322 840 275 q 895 424 895 368 q 864 499 895 473 q 779 525 833 525 q 644 492 714 525 l 627 586 q 799 621 715 621 z "},"¾":{"ha":1237,"x_min":21,"x_max":1218,"o":"m 240 -1 l 833 1025 l 926 974 l 334 -53 l 240 -1 m 40 463 q 171 443 106 443 q 269 466 235 443 q 302 532 302 489 q 163 629 302 629 l 121 629 l 121 715 l 157 715 q 255 740 220 715 q 289 808 289 764 q 260 866 289 846 q 182 886 232 886 q 40 856 122 886 l 21 943 q 199 978 109 978 q 353 935 294 978 q 412 817 412 892 q 381 726 412 761 q 290 679 350 692 q 390 626 355 665 q 425 526 425 586 q 360 397 425 443 q 179 351 296 351 q 25 375 98 351 l 40 463 m 1145 135 l 1145 0 l 1035 0 l 1035 135 l 730 135 l 720 201 l 972 618 l 1145 618 l 1145 221 l 1218 221 l 1206 135 l 1145 135 m 848 221 l 1035 221 l 1035 533 l 848 221 z "},"¿":{"ha":568,"x_min":21,"x_max":574,"o":"m 432 576 l 293 576 l 293 715 l 432 715 l 432 576 m 154 -32 q 199 -133 154 -96 q 322 -170 244 -170 q 529 -117 403 -170 l 574 -225 q 446 -272 511 -256 q 321 -289 380 -289 q 100 -221 179 -289 q 21 -32 21 -153 q 38 77 21 33 q 81 146 56 121 q 150 204 107 172 q 229 271 199 240 q 279 359 258 302 q 300 501 300 415 l 428 501 q 404 316 428 387 q 345 208 379 245 q 257 134 310 171 q 201 88 221 107 q 167 40 180 69 q 154 -32 154 11 z "},"À":{"ha":894,"x_min":20,"x_max":876,"o":"m 302 1332 l 488 1104 l 436 1057 l 220 1246 l 302 1332 m 252 285 l 154 0 l 20 0 l 358 983 l 525 983 l 876 0 l 746 0 l 644 285 l 252 285 m 440 846 l 292 403 l 603 403 l 449 846 l 440 846 z "},"Á":{"ha":894,"x_min":20,"x_max":876,"o":"m 378 1104 l 562 1332 l 646 1246 l 429 1057 l 378 1104 m 252 285 l 154 0 l 20 0 l 358 983 l 525 983 l 876 0 l 746 0 l 644 285 l 252 285 m 440 846 l 292 403 l 603 403 l 449 846 l 440 846 z "},"Â":{"ha":894,"x_min":20,"x_max":876,"o":"m 285 1057 l 233 1104 l 418 1291 l 469 1291 l 654 1104 l 603 1057 l 443 1179 l 285 1057 m 252 285 l 154 0 l 20 0 l 358 983 l 525 983 l 876 0 l 746 0 l 644 285 l 252 285 m 440 846 l 292 403 l 603 403 l 449 846 l 440 846 z "},"Ã":{"ha":894,"x_min":20,"x_max":876,"o":"m 346 1267 q 410 1255 385 1267 q 463 1221 435 1243 q 503 1194 486 1202 q 543 1186 519 1186 q 585 1205 570 1186 q 600 1254 600 1223 l 689 1254 q 648 1134 689 1179 q 539 1089 607 1089 q 476 1101 500 1089 q 422 1136 452 1112 q 383 1162 399 1154 q 345 1171 367 1171 q 296 1152 314 1171 q 278 1101 278 1133 l 189 1101 q 231 1222 189 1177 q 346 1267 273 1267 m 252 285 l 154 0 l 20 0 l 358 983 l 525 983 l 876 0 l 746 0 l 644 285 l 252 285 m 440 846 l 292 403 l 603 403 l 449 846 l 440 846 z "},"Ä":{"ha":894,"x_min":20,"x_max":876,"o":"m 253 1236 l 382 1236 l 382 1107 l 253 1107 l 253 1236 m 505 1236 l 633 1236 l 633 1107 l 505 1107 l 505 1236 m 252 285 l 154 0 l 20 0 l 358 983 l 525 983 l 876 0 l 746 0 l 644 285 l 252 285 m 440 846 l 292 403 l 603 403 l 449 846 l 440 846 z "},"Å":{"ha":894,"x_min":20,"x_max":876,"o":"m 444 1417 q 537 1392 494 1417 q 606 1326 581 1368 q 631 1238 631 1284 q 606 1148 631 1190 q 537 1083 581 1107 q 444 1059 494 1059 q 351 1083 394 1059 q 283 1148 309 1107 q 258 1238 258 1190 q 283 1326 258 1285 q 352 1392 309 1368 q 444 1417 395 1417 m 444 1325 q 382 1299 408 1325 q 355 1238 355 1274 q 382 1175 355 1202 q 444 1149 408 1149 q 506 1175 480 1149 q 532 1238 532 1202 q 506 1299 532 1274 q 444 1325 481 1325 m 252 285 l 154 0 l 20 0 l 358 983 l 525 983 l 876 0 l 746 0 l 644 285 l 252 285 m 440 846 l 292 403 l 603 403 l 449 846 l 440 846 z "},"Æ":{"ha":1316,"x_min":20,"x_max":1268,"o":"m 682 289 l 328 289 l 161 0 l 20 0 l 587 983 l 1253 983 l 1253 871 l 814 871 l 814 572 l 1207 572 l 1207 458 l 814 458 l 814 115 l 1268 115 l 1268 0 l 682 0 l 682 289 m 682 400 l 682 901 l 392 400 l 682 400 z "},"Ç":{"ha":858,"x_min":66,"x_max":829,"o":"m 513 -62 q 578 -110 551 -77 q 604 -178 604 -143 q 570 -264 604 -233 q 486 -296 536 -296 q 368 -261 427 -296 l 393 -208 q 457 -225 422 -225 q 496 -212 482 -225 q 510 -175 510 -199 q 491 -133 510 -150 q 431 -104 472 -117 l 422 -75 l 469 -7 q 170 136 273 7 q 66 494 66 265 q 122 762 66 650 q 282 935 178 875 q 533 994 387 994 q 683 974 608 994 q 822 913 757 953 l 766 804 q 646 854 703 839 q 533 869 590 869 q 291 772 376 869 q 205 494 205 675 q 290 214 205 313 q 529 115 374 115 q 781 174 652 115 l 829 60 q 684 10 763 28 q 530 -9 604 -8 l 513 -62 z "},"È":{"ha":777,"x_min":129,"x_max":729,"o":"m 290 1332 l 475 1104 l 424 1057 l 207 1246 l 290 1332 m 262 574 l 668 574 l 668 456 l 262 456 l 262 118 l 729 118 l 729 0 l 129 0 l 129 983 l 714 983 l 714 865 l 262 865 l 262 574 z "},"É":{"ha":777,"x_min":129,"x_max":729,"o":"m 366 1104 l 550 1332 l 633 1246 l 416 1057 l 366 1104 m 262 574 l 668 574 l 668 456 l 262 456 l 262 118 l 729 118 l 729 0 l 129 0 l 129 983 l 714 983 l 714 865 l 262 865 l 262 574 z "},"Ê":{"ha":777,"x_min":129,"x_max":729,"o":"m 272 1057 l 221 1104 l 406 1291 l 457 1291 l 642 1104 l 590 1057 l 431 1179 l 272 1057 m 262 574 l 668 574 l 668 456 l 262 456 l 262 118 l 729 118 l 729 0 l 129 0 l 129 983 l 714 983 l 714 865 l 262 865 l 262 574 z "},"Ë":{"ha":777,"x_min":129,"x_max":729,"o":"m 240 1236 l 370 1236 l 370 1107 l 240 1107 l 240 1236 m 493 1236 l 621 1236 l 621 1107 l 493 1107 l 493 1236 m 262 574 l 668 574 l 668 456 l 262 456 l 262 118 l 729 118 l 729 0 l 129 0 l 129 983 l 714 983 l 714 865 l 262 865 l 262 574 z "},"Ì":{"ha":391,"x_min":-26,"x_max":262,"o":"m 57 1332 l 241 1104 l 191 1057 l -26 1246 l 57 1332 m 129 983 l 262 983 l 262 0 l 129 0 l 129 983 z "},"Í":{"ha":391,"x_min":129,"x_max":400,"o":"m 132 1104 l 317 1332 l 400 1246 l 183 1057 l 132 1104 m 129 983 l 262 983 l 262 0 l 129 0 l 129 983 z "},"Î":{"ha":391,"x_min":-12,"x_max":408,"o":"m 39 1057 l -12 1104 l 172 1291 l 224 1291 l 408 1104 l 357 1057 l 197 1179 l 39 1057 m 129 983 l 262 983 l 262 0 l 129 0 l 129 983 z "},"Ï":{"ha":391,"x_min":7,"x_max":387,"o":"m 7 1236 l 136 1236 l 136 1107 l 7 1107 l 7 1236 m 260 1236 l 387 1236 l 387 1107 l 260 1107 l 260 1236 m 129 983 l 262 983 l 262 0 l 129 0 l 129 983 z "},"Ð":{"ha":986,"x_min":12,"x_max":920,"o":"m 447 983 q 798 858 676 983 q 920 494 920 732 q 797 129 920 257 q 447 0 673 0 l 129 0 l 129 435 l 12 435 l 12 553 l 129 553 l 129 983 l 447 983 m 447 118 q 695 214 610 118 q 781 494 781 310 q 696 771 781 676 q 447 865 611 865 l 262 865 l 262 553 l 463 553 l 463 435 l 262 435 l 262 118 l 447 118 z "},"Ñ":{"ha":1023,"x_min":129,"x_max":895,"o":"m 421 1171 q 372 1152 390 1171 q 354 1101 354 1133 l 265 1101 q 308 1222 265 1177 q 422 1267 350 1267 q 486 1255 461 1267 q 539 1221 511 1243 q 579 1194 563 1202 q 619 1186 596 1186 q 661 1205 646 1186 q 676 1254 676 1223 l 765 1254 q 724 1134 765 1179 q 615 1089 684 1089 q 552 1101 576 1089 q 498 1136 528 1112 q 459 1162 475 1154 q 421 1171 443 1171 m 408 530 q 256 772 345 622 l 256 0 l 129 0 l 129 983 l 241 983 l 606 467 q 768 214 660 390 l 768 983 l 895 983 l 895 0 l 782 0 l 408 530 z "},"Ò":{"ha":1026,"x_min":66,"x_max":960,"o":"m 370 1332 l 554 1104 l 503 1057 l 286 1246 l 370 1332 m 514 994 q 843 864 726 994 q 960 496 960 733 q 844 118 960 250 q 514 -14 729 -14 q 182 118 298 -14 q 66 496 66 249 q 183 864 66 734 q 514 994 300 994 m 514 869 q 285 773 364 869 q 205 496 205 677 q 286 211 205 310 q 514 111 366 111 q 742 211 663 111 q 821 496 821 311 q 742 773 821 676 q 514 869 663 869 z "},"Ó":{"ha":1026,"x_min":66,"x_max":960,"o":"m 444 1104 l 629 1332 l 713 1246 l 496 1057 l 444 1104 m 514 994 q 843 864 726 994 q 960 496 960 733 q 844 118 960 250 q 514 -14 729 -14 q 182 118 298 -14 q 66 496 66 249 q 183 864 66 734 q 514 994 300 994 m 514 869 q 285 773 364 869 q 205 496 205 677 q 286 211 205 310 q 514 111 366 111 q 742 211 663 111 q 821 496 821 311 q 742 773 821 676 q 514 869 663 869 z "},"Ô":{"ha":1026,"x_min":66,"x_max":960,"o":"m 351 1057 l 300 1104 l 485 1291 l 536 1291 l 721 1104 l 669 1057 l 510 1179 l 351 1057 m 514 994 q 843 864 726 994 q 960 496 960 733 q 844 118 960 250 q 514 -14 729 -14 q 182 118 298 -14 q 66 496 66 249 q 183 864 66 734 q 514 994 300 994 m 514 869 q 285 773 364 869 q 205 496 205 677 q 286 211 205 310 q 514 111 366 111 q 742 211 663 111 q 821 496 821 311 q 742 773 821 676 q 514 869 663 869 z "},"Õ":{"ha":1026,"x_min":66,"x_max":960,"o":"m 412 1267 q 476 1255 452 1267 q 529 1221 501 1243 q 569 1194 553 1202 q 610 1186 586 1186 q 651 1205 636 1186 q 667 1254 667 1223 l 755 1254 q 714 1134 755 1179 q 606 1089 673 1089 q 543 1101 567 1089 q 489 1136 518 1112 q 449 1162 465 1154 q 411 1171 433 1171 q 362 1152 380 1171 q 345 1101 345 1133 l 256 1101 q 298 1222 256 1177 q 412 1267 340 1267 m 514 994 q 843 864 726 994 q 960 496 960 733 q 844 118 960 250 q 514 -14 729 -14 q 182 118 298 -14 q 66 496 66 249 q 183 864 66 734 q 514 994 300 994 m 514 869 q 285 773 364 869 q 205 496 205 677 q 286 211 205 310 q 514 111 366 111 q 742 211 663 111 q 821 496 821 311 q 742 773 821 676 q 514 869 663 869 z "},"Ö":{"ha":1026,"x_min":66,"x_max":960,"o":"m 319 1236 l 449 1236 l 449 1107 l 319 1107 l 319 1236 m 572 1236 l 700 1236 l 700 1107 l 572 1107 l 572 1236 m 514 994 q 843 864 726 994 q 960 496 960 733 q 844 118 960 250 q 514 -14 729 -14 q 182 118 298 -14 q 66 496 66 249 q 183 864 66 734 q 514 994 300 994 m 514 869 q 285 773 364 869 q 205 496 205 677 q 286 211 205 310 q 514 111 366 111 q 742 211 663 111 q 821 496 821 311 q 742 773 821 676 q 514 869 663 869 z "},"×":{"ha":757,"x_min":79,"x_max":677,"o":"m 378 490 l 600 713 l 677 635 l 456 412 l 677 192 l 600 114 l 378 335 l 157 114 l 79 192 l 300 412 l 79 635 l 157 713 l 378 490 z "},"Ø":{"ha":1026,"x_min":66,"x_max":960,"o":"m 761 932 q 908 763 857 873 q 960 496 960 652 q 844 118 960 250 q 514 -14 729 -14 q 358 7 429 -14 l 334 -52 l 216 -52 l 261 50 q 116 222 165 110 q 66 496 66 335 q 183 864 66 734 q 514 994 300 994 q 664 975 593 994 l 689 1032 l 804 1032 l 761 932 m 205 496 q 317 178 205 276 l 612 857 q 514 869 566 869 q 285 773 364 869 q 205 496 205 677 m 514 111 q 742 211 663 111 q 821 496 821 311 q 705 807 821 712 l 410 126 q 514 111 458 111 z "},"Ù":{"ha":985,"x_min":109,"x_max":876,"o":"m 351 1332 l 536 1104 l 485 1057 l 268 1246 l 351 1332 m 876 330 q 775 78 876 168 q 492 -12 673 -12 q 209 77 309 -12 q 109 330 109 167 l 109 983 l 241 983 l 241 330 q 303 165 241 219 q 492 111 366 111 q 743 330 743 111 l 743 983 l 876 983 l 876 330 z "},"Ú":{"ha":985,"x_min":109,"x_max":876,"o":"m 427 1104 l 611 1332 l 694 1246 l 478 1057 l 427 1104 m 876 330 q 775 78 876 168 q 492 -12 673 -12 q 209 77 309 -12 q 109 330 109 167 l 109 983 l 241 983 l 241 330 q 303 165 241 219 q 492 111 366 111 q 743 330 743 111 l 743 983 l 876 983 l 876 330 z "},"Û":{"ha":985,"x_min":109,"x_max":876,"o":"m 334 1057 l 282 1104 l 467 1291 l 518 1291 l 703 1104 l 652 1057 l 492 1179 l 334 1057 m 876 330 q 775 78 876 168 q 492 -12 673 -12 q 209 77 309 -12 q 109 330 109 167 l 109 983 l 241 983 l 241 330 q 303 165 241 219 q 492 111 366 111 q 743 330 743 111 l 743 983 l 876 983 l 876 330 z "},"Ü":{"ha":985,"x_min":109,"x_max":876,"o":"m 301 1236 l 431 1236 l 431 1107 l 301 1107 l 301 1236 m 554 1236 l 682 1236 l 682 1107 l 554 1107 l 554 1236 m 876 330 q 775 78 876 168 q 492 -12 673 -12 q 209 77 309 -12 q 109 330 109 167 l 109 983 l 241 983 l 241 330 q 303 165 241 219 q 492 111 366 111 q 743 330 743 111 l 743 983 l 876 983 l 876 330 z "},"Ý":{"ha":797,"x_min":7,"x_max":790,"o":"m 330 1104 l 515 1332 l 599 1246 l 382 1057 l 330 1104 m 301 714 q 357 606 329 661 q 395 529 385 550 l 403 529 q 445 614 412 550 q 497 714 478 677 l 646 983 l 790 983 l 464 414 l 464 0 l 332 0 l 332 414 l 7 983 l 153 983 l 301 714 z "},"Þ":{"ha":795,"x_min":129,"x_max":757,"o":"m 419 777 q 670 702 583 777 q 757 488 757 628 q 669 273 757 349 q 419 197 581 197 l 262 197 l 262 0 l 129 0 l 129 983 l 262 983 l 262 777 l 419 777 m 419 315 q 618 488 618 315 q 569 616 618 574 q 419 659 521 659 l 262 659 l 262 315 l 419 315 z "},"ß":{"ha":787,"x_min":115,"x_max":755,"o":"m 115 768 q 188 951 115 888 q 400 1014 261 1014 q 585 955 515 1014 q 654 799 654 896 q 631 704 654 742 q 567 624 608 665 q 525 574 538 593 q 511 530 511 554 q 531 492 511 508 q 593 453 550 476 q 675 401 642 427 q 732 335 708 376 q 755 233 755 293 q 681 61 755 122 q 472 0 607 0 l 345 0 l 345 111 l 464 111 q 623 235 622 111 q 595 305 623 281 q 510 357 568 329 q 437 395 465 378 q 391 444 410 412 q 372 522 372 475 q 392 600 372 568 q 452 669 412 632 q 504 729 486 703 q 521 790 521 755 q 393 899 521 899 q 284 866 323 899 q 245 774 245 833 l 245 0 l 115 0 l 115 768 z "},"à":{"ha":728,"x_min":45,"x_max":632,"o":"m 220 1063 l 404 835 l 353 787 l 136 977 l 220 1063 m 354 725 q 560 655 488 725 q 632 454 632 585 l 632 0 l 532 0 l 513 83 q 278 -14 408 -14 q 108 44 171 -14 q 45 199 45 102 q 137 374 45 311 q 396 437 229 437 l 501 437 l 501 457 q 345 610 496 610 q 241 596 298 610 q 125 558 183 582 l 89 664 q 221 709 151 693 q 354 725 290 725 m 404 338 q 235 302 296 338 q 175 203 175 267 q 208 128 175 154 q 301 102 241 102 q 412 126 358 102 q 501 191 467 150 l 501 338 l 404 338 z "},"á":{"ha":728,"x_min":45,"x_max":632,"o":"m 294 835 l 479 1063 l 562 977 l 346 787 l 294 835 m 354 725 q 560 655 488 725 q 632 454 632 585 l 632 0 l 532 0 l 513 83 q 278 -14 408 -14 q 108 44 171 -14 q 45 199 45 102 q 137 374 45 311 q 396 437 229 437 l 501 437 l 501 457 q 345 610 496 610 q 241 596 298 610 q 125 558 183 582 l 89 664 q 221 709 151 693 q 354 725 290 725 m 404 338 q 235 302 296 338 q 175 203 175 267 q 208 128 175 154 q 301 102 241 102 q 412 126 358 102 q 501 191 467 150 l 501 338 l 404 338 z "},"â":{"ha":728,"x_min":45,"x_max":632,"o":"m 201 787 l 150 835 l 335 1021 l 386 1021 l 571 835 l 519 787 l 359 909 l 201 787 m 354 725 q 560 655 488 725 q 632 454 632 585 l 632 0 l 532 0 l 513 83 q 278 -14 408 -14 q 108 44 171 -14 q 45 199 45 102 q 137 374 45 311 q 396 437 229 437 l 501 437 l 501 457 q 345 610 496 610 q 241 596 298 610 q 125 558 183 582 l 89 664 q 221 709 151 693 q 354 725 290 725 m 404 338 q 235 302 296 338 q 175 203 175 267 q 208 128 175 154 q 301 102 241 102 q 412 126 358 102 q 501 191 467 150 l 501 338 l 404 338 z "},"ã":{"ha":728,"x_min":45,"x_max":632,"o":"m 262 997 q 326 985 301 997 q 379 951 351 974 q 419 925 403 933 q 460 917 436 917 q 502 936 486 917 q 517 985 517 954 l 606 985 q 565 864 606 909 q 456 819 524 819 q 393 831 417 819 q 339 867 368 843 q 299 893 315 885 q 261 901 283 901 q 213 883 231 901 q 195 832 195 864 l 106 832 q 148 952 106 907 q 262 997 191 997 m 354 725 q 560 655 488 725 q 632 454 632 585 l 632 0 l 532 0 l 513 83 q 278 -14 408 -14 q 108 44 171 -14 q 45 199 45 102 q 137 374 45 311 q 396 437 229 437 l 501 437 l 501 457 q 345 610 496 610 q 241 596 298 610 q 125 558 183 582 l 89 664 q 221 709 151 693 q 354 725 290 725 m 404 338 q 235 302 296 338 q 175 203 175 267 q 208 128 175 154 q 301 102 241 102 q 412 126 358 102 q 501 191 467 150 l 501 338 l 404 338 z "},"ä":{"ha":728,"x_min":45,"x_max":632,"o":"m 170 966 l 298 966 l 298 838 l 170 838 l 170 966 m 422 966 l 550 966 l 550 838 l 422 838 l 422 966 m 354 725 q 560 655 488 725 q 632 454 632 585 l 632 0 l 532 0 l 513 83 q 278 -14 408 -14 q 108 44 171 -14 q 45 199 45 102 q 137 374 45 311 q 396 437 229 437 l 501 437 l 501 457 q 345 610 496 610 q 241 596 298 610 q 125 558 183 582 l 89 664 q 221 709 151 693 q 354 725 290 725 m 404 338 q 235 302 296 338 q 175 203 175 267 q 208 128 175 154 q 301 102 241 102 q 412 126 358 102 q 501 191 467 150 l 501 338 l 404 338 z "},"å":{"ha":728,"x_min":45,"x_max":632,"o":"m 361 1147 q 454 1123 411 1147 q 522 1057 497 1099 q 547 968 547 1015 q 522 879 547 920 q 454 813 497 838 q 361 789 411 789 q 268 813 311 789 q 200 879 225 838 q 175 968 175 921 q 200 1057 175 1015 q 268 1123 225 1099 q 361 1147 311 1147 m 361 1055 q 298 1030 325 1055 q 272 968 272 1004 q 298 905 272 932 q 361 879 325 879 q 423 905 397 879 q 449 968 449 932 q 423 1029 449 1004 q 361 1055 397 1055 m 354 725 q 560 655 488 725 q 632 454 632 585 l 632 0 l 532 0 l 513 83 q 278 -14 408 -14 q 108 44 171 -14 q 45 199 45 102 q 137 374 45 311 q 396 437 229 437 l 501 437 l 501 457 q 345 610 496 610 q 241 596 298 610 q 125 558 183 582 l 89 664 q 221 709 151 693 q 354 725 290 725 m 404 338 q 235 302 296 338 q 175 203 175 267 q 208 128 175 154 q 301 102 241 102 q 412 126 358 102 q 501 191 467 150 l 501 338 l 404 338 z "},"æ":{"ha":1184,"x_min":46,"x_max":1132,"o":"m 633 334 q 693 163 639 222 q 846 104 747 104 q 951 116 900 104 q 1065 155 1002 127 l 1107 58 q 970 6 1035 22 q 839 -11 905 -11 q 687 20 753 -11 q 579 111 621 52 q 439 16 515 49 q 281 -17 363 -17 q 110 41 174 -17 q 46 196 46 98 q 138 374 46 311 q 397 437 231 437 l 503 437 l 503 457 q 346 610 497 610 q 239 596 297 610 q 126 558 182 582 l 90 664 q 222 709 153 693 q 357 725 292 725 q 495 696 437 725 q 583 611 553 667 q 687 697 623 668 q 835 726 751 726 q 1058 636 985 726 q 1132 363 1132 546 l 1132 334 l 633 334 m 997 443 q 835 611 983 611 q 640 443 672 611 l 997 443 m 406 338 q 236 301 296 338 q 176 199 176 265 q 210 124 176 150 q 306 98 243 98 q 415 123 361 98 q 503 191 468 149 l 503 338 l 406 338 z "},"ç":{"ha":652,"x_min":60,"x_max":624,"o":"m 410 -62 q 475 -110 449 -77 q 501 -178 501 -143 q 467 -264 501 -233 q 383 -296 433 -296 q 265 -261 323 -296 l 290 -208 q 354 -225 319 -225 q 393 -212 379 -225 q 407 -175 407 -199 q 388 -133 407 -150 q 328 -104 370 -117 l 319 -75 l 367 -7 q 140 96 220 1 q 60 358 60 191 q 150 629 60 532 q 401 726 240 726 q 616 667 514 726 l 571 562 q 401 611 484 611 q 248 545 302 611 q 193 358 193 479 q 249 172 193 236 q 410 107 304 107 q 496 119 448 107 q 589 150 545 131 l 624 46 q 428 -7 530 1 l 410 -62 z "},"è":{"ha":744,"x_min":60,"x_max":692,"o":"m 435 835 l 383 787 l 167 977 l 250 1063 l 435 835 m 193 334 q 253 163 199 222 q 406 104 307 104 q 510 116 460 104 q 625 155 561 127 l 667 58 q 528 6 593 22 q 399 -11 464 -11 q 149 86 237 -11 q 60 358 60 183 q 147 630 60 533 q 395 726 235 726 q 618 636 545 726 q 692 363 692 546 l 692 334 l 193 334 m 557 443 q 510 569 551 526 q 395 611 468 611 q 200 443 232 611 l 557 443 z "},"é":{"ha":744,"x_min":60,"x_max":692,"o":"m 593 977 l 376 787 l 325 835 l 510 1063 l 593 977 m 193 334 q 253 163 199 222 q 406 104 307 104 q 510 116 460 104 q 625 155 561 127 l 667 58 q 528 6 593 22 q 399 -11 464 -11 q 149 86 237 -11 q 60 358 60 183 q 147 630 60 533 q 395 726 235 726 q 618 636 545 726 q 692 363 692 546 l 692 334 l 193 334 m 557 443 q 510 569 551 526 q 395 611 468 611 q 200 443 232 611 l 557 443 z "},"ê":{"ha":744,"x_min":60,"x_max":692,"o":"m 416 1021 l 602 835 l 550 787 l 390 909 l 232 787 l 180 835 l 366 1021 l 416 1021 m 193 334 q 253 163 199 222 q 406 104 307 104 q 510 116 460 104 q 625 155 561 127 l 667 58 q 528 6 593 22 q 399 -11 464 -11 q 149 86 237 -11 q 60 358 60 183 q 147 630 60 533 q 395 726 235 726 q 618 636 545 726 q 692 363 692 546 l 692 334 l 193 334 m 557 443 q 510 569 551 526 q 395 611 468 611 q 200 443 232 611 l 557 443 z "},"ë":{"ha":744,"x_min":60,"x_max":692,"o":"m 329 966 l 329 838 l 200 838 l 200 966 l 329 966 m 581 966 l 581 838 l 453 838 l 453 966 l 581 966 m 193 334 q 253 163 199 222 q 406 104 307 104 q 510 116 460 104 q 625 155 561 127 l 667 58 q 528 6 593 22 q 399 -11 464 -11 q 149 86 237 -11 q 60 358 60 183 q 147 630 60 533 q 395 726 235 726 q 618 636 545 726 q 692 363 692 546 l 692 334 l 193 334 m 557 443 q 510 569 551 526 q 395 611 468 611 q 200 443 232 611 l 557 443 z "},"ì":{"ha":358,"x_min":-43,"x_max":244,"o":"m 40 1063 l 225 835 l 174 787 l -43 977 l 40 1063 m 114 714 l 244 714 l 244 0 l 114 0 l 114 714 z "},"í":{"ha":358,"x_min":114,"x_max":383,"o":"m 115 835 l 300 1063 l 383 977 l 167 787 l 115 835 m 114 714 l 244 714 l 244 0 l 114 0 l 114 714 z "},"î":{"ha":358,"x_min":-29,"x_max":392,"o":"m 22 787 l -29 835 l 155 1021 l 207 1021 l 392 835 l 340 787 l 180 909 l 22 787 m 114 714 l 244 714 l 244 0 l 114 0 l 114 714 z "},"ï":{"ha":358,"x_min":-9,"x_max":371,"o":"m -9 966 l 119 966 l 119 838 l -9 838 l -9 966 m 243 966 l 371 966 l 371 838 l 243 838 l 243 966 m 114 714 l 244 714 l 244 0 l 114 0 l 114 714 z "},"ð":{"ha":806,"x_min":57,"x_max":734,"o":"m 457 939 q 734 424 734 750 q 646 102 734 214 q 396 -11 557 -11 q 146 84 235 -11 q 57 351 57 179 q 146 612 57 519 q 396 705 235 705 q 558 654 485 705 q 397 847 509 766 l 332 749 l 257 799 l 321 895 q 178 962 258 930 l 220 1055 q 380 985 307 1023 l 428 1057 l 503 1008 l 457 939 m 396 104 q 549 185 496 104 q 602 424 602 265 q 595 522 602 471 q 396 590 514 590 q 243 529 296 590 q 191 351 191 468 q 244 168 191 232 q 396 104 297 104 z "},"ñ":{"ha":819,"x_min":114,"x_max":721,"o":"m 326 997 q 390 985 366 997 q 443 951 415 974 q 483 925 467 933 q 524 917 500 917 q 565 936 550 917 q 581 985 581 954 l 669 985 q 628 864 669 909 q 519 819 587 819 q 456 831 481 819 q 403 867 432 843 q 363 893 379 885 q 325 901 347 901 q 276 883 294 901 q 258 832 258 864 l 170 832 q 212 952 170 907 q 326 997 254 997 m 235 614 q 348 699 286 671 q 486 726 410 726 q 661 661 600 726 q 721 469 721 595 l 721 0 l 590 0 l 590 460 q 557 575 590 539 q 453 611 525 611 q 334 583 389 611 q 244 504 278 554 l 244 0 l 114 0 l 114 714 l 220 714 l 235 614 z "},"ò":{"ha":797,"x_min":60,"x_max":737,"o":"m 257 1063 l 441 835 l 390 787 l 174 977 l 257 1063 m 399 728 q 648 630 559 728 q 737 358 737 533 q 648 86 737 183 q 399 -11 559 -11 q 149 86 237 -11 q 60 358 60 183 q 149 630 60 533 q 399 728 237 728 m 399 612 q 246 547 298 612 q 193 358 193 482 q 246 170 193 235 q 399 104 298 104 q 551 170 498 104 q 604 358 604 235 q 551 547 604 481 q 399 612 498 612 z "},"ó":{"ha":797,"x_min":60,"x_max":737,"o":"m 332 835 l 517 1063 l 600 977 l 383 787 l 332 835 m 399 728 q 648 630 559 728 q 737 358 737 533 q 648 86 737 183 q 399 -11 559 -11 q 149 86 237 -11 q 60 358 60 183 q 149 630 60 533 q 399 728 237 728 m 399 612 q 246 547 298 612 q 193 358 193 482 q 246 170 193 235 q 399 104 298 104 q 551 170 498 104 q 604 358 604 235 q 551 547 604 481 q 399 612 498 612 z "},"ô":{"ha":797,"x_min":60,"x_max":737,"o":"m 239 787 l 187 835 l 372 1021 l 424 1021 l 608 835 l 557 787 l 397 909 l 239 787 m 399 728 q 648 630 559 728 q 737 358 737 533 q 648 86 737 183 q 399 -11 559 -11 q 149 86 237 -11 q 60 358 60 183 q 149 630 60 533 q 399 728 237 728 m 399 612 q 246 547 298 612 q 193 358 193 482 q 246 170 193 235 q 399 104 298 104 q 551 170 498 104 q 604 358 604 235 q 551 547 604 481 q 399 612 498 612 z "},"õ":{"ha":797,"x_min":60,"x_max":737,"o":"m 300 997 q 364 985 339 997 q 416 951 389 974 q 457 925 440 933 q 497 917 473 917 q 539 936 524 917 q 554 985 554 954 l 643 985 q 602 864 643 909 q 493 819 561 819 q 430 831 454 819 q 376 867 406 843 q 337 893 353 885 q 298 901 321 901 q 250 883 268 901 q 232 832 232 864 l 143 832 q 185 952 143 907 q 300 997 228 997 m 399 728 q 648 630 559 728 q 737 358 737 533 q 648 86 737 183 q 399 -11 559 -11 q 149 86 237 -11 q 60 358 60 183 q 149 630 60 533 q 399 728 237 728 m 399 612 q 246 547 298 612 q 193 358 193 482 q 246 170 193 235 q 399 104 298 104 q 551 170 498 104 q 604 358 604 235 q 551 547 604 481 q 399 612 498 612 z "},"ö":{"ha":797,"x_min":60,"x_max":737,"o":"m 207 966 l 336 966 l 336 838 l 207 838 l 207 966 m 460 966 l 587 966 l 587 838 l 460 838 l 460 966 m 399 728 q 648 630 559 728 q 737 358 737 533 q 648 86 737 183 q 399 -11 559 -11 q 149 86 237 -11 q 60 358 60 183 q 149 630 60 533 q 399 728 237 728 m 399 612 q 246 547 298 612 q 193 358 193 482 q 246 170 193 235 q 399 104 298 104 q 551 170 498 104 q 604 358 604 235 q 551 547 604 481 q 399 612 498 612 z "},"÷":{"ha":768,"x_min":60,"x_max":708,"o":"m 321 623 l 321 739 l 443 739 l 443 623 l 321 623 m 60 376 l 60 476 l 708 476 l 708 376 l 60 376 m 321 119 l 321 236 l 443 236 l 443 119 l 321 119 z "},"ø":{"ha":797,"x_min":60,"x_max":737,"o":"m 631 648 q 737 358 737 553 q 648 86 737 183 q 399 -11 559 -11 q 264 11 322 -11 l 216 -72 l 87 -72 l 168 68 q 60 358 60 163 q 149 630 60 533 q 399 726 237 726 q 533 705 473 726 l 581 787 l 710 787 l 631 648 m 193 358 q 235 184 193 248 l 473 600 q 399 611 437 611 q 246 547 299 611 q 193 358 193 482 m 399 104 q 551 170 497 104 q 604 358 604 236 q 562 530 604 468 l 325 115 q 399 104 361 104 z "},"ù":{"ha":819,"x_min":98,"x_max":705,"o":"m 264 1063 l 449 835 l 397 787 l 180 977 l 264 1063 m 229 253 q 262 139 229 175 q 367 103 294 103 q 484 132 428 103 q 575 208 539 160 l 575 714 l 705 714 l 705 0 l 600 0 l 583 98 q 342 -12 489 -13 q 160 53 222 -12 q 98 243 98 118 l 98 714 l 229 714 l 229 253 z "},"ú":{"ha":819,"x_min":98,"x_max":705,"o":"m 339 835 l 524 1063 l 607 977 l 390 787 l 339 835 m 229 253 q 262 139 229 175 q 367 103 294 103 q 484 132 428 103 q 575 208 539 160 l 575 714 l 705 714 l 705 0 l 600 0 l 583 98 q 342 -12 489 -13 q 160 53 222 -12 q 98 243 98 118 l 98 714 l 229 714 l 229 253 z "},"û":{"ha":819,"x_min":98,"x_max":705,"o":"m 245 787 l 195 835 l 379 1021 l 431 1021 l 615 835 l 564 787 l 404 909 l 245 787 m 229 253 q 262 139 229 175 q 367 103 294 103 q 484 132 428 103 q 575 208 539 160 l 575 714 l 705 714 l 705 0 l 600 0 l 583 98 q 342 -12 489 -13 q 160 53 222 -12 q 98 243 98 118 l 98 714 l 229 714 l 229 253 z "},"ü":{"ha":819,"x_min":98,"x_max":705,"o":"m 214 966 l 343 966 l 343 838 l 214 838 l 214 966 m 467 966 l 595 966 l 595 838 l 467 838 l 467 966 m 229 253 q 262 139 229 175 q 367 103 294 103 q 484 132 428 103 q 575 208 539 160 l 575 714 l 705 714 l 705 0 l 600 0 l 583 98 q 342 -12 489 -13 q 160 53 222 -12 q 98 243 98 118 l 98 714 l 229 714 l 229 253 z "},"ý":{"ha":690,"x_min":14,"x_max":677,"o":"m 568 977 l 351 787 l 300 835 l 485 1063 l 568 977 m 285 0 l 14 714 l 143 714 l 235 465 l 258 401 l 347 153 l 376 240 q 406 330 383 261 q 454 465 429 399 l 547 714 l 677 714 l 281 -328 l 163 -328 l 285 0 z "},"þ":{"ha":823,"x_min":115,"x_max":764,"o":"m 450 725 q 682 632 600 725 q 764 368 764 539 q 667 89 764 191 q 397 -12 570 -12 q 245 7 332 -12 l 245 -328 l 115 -328 l 115 1042 l 245 1042 l 245 633 q 450 725 332 725 m 396 103 q 569 173 507 103 q 631 368 631 243 q 581 547 631 484 q 441 610 532 610 q 320 574 371 610 q 245 471 269 539 l 245 123 q 329 106 302 110 q 396 103 355 103 z "},"ÿ":{"ha":690,"x_min":14,"x_max":677,"o":"m 304 966 l 304 838 l 175 838 l 175 966 l 304 966 m 555 966 l 555 838 l 428 838 l 428 966 l 555 966 m 285 0 l 14 714 l 143 714 l 235 465 l 258 401 l 347 153 l 376 240 q 406 330 383 261 q 454 465 429 399 l 547 714 l 677 714 l 281 -328 l 163 -328 l 285 0 z "},"Ā":{"ha":894,"x_min":20,"x_max":876,"o":"m 235 1219 l 657 1219 l 657 1122 l 235 1122 l 235 1219 m 252 285 l 154 0 l 20 0 l 358 983 l 525 983 l 876 0 l 746 0 l 644 285 l 252 285 m 440 846 l 292 403 l 603 403 l 449 846 l 440 846 z "},"ā":{"ha":728,"x_min":45,"x_max":632,"o":"m 151 950 l 574 950 l 574 852 l 151 852 l 151 950 m 354 725 q 560 655 488 725 q 632 454 632 585 l 632 0 l 532 0 l 513 83 q 278 -14 408 -14 q 108 44 171 -14 q 45 199 45 102 q 137 374 45 311 q 396 437 229 437 l 501 437 l 501 457 q 345 610 496 610 q 241 596 298 610 q 125 558 183 582 l 89 664 q 221 709 151 693 q 354 725 290 725 m 404 338 q 235 302 296 338 q 175 203 175 267 q 208 128 175 154 q 301 102 241 102 q 412 126 358 102 q 501 191 467 150 l 501 338 l 404 338 z "},"Ă":{"ha":894,"x_min":20,"x_max":876,"o":"m 646 1251 q 590 1117 646 1168 q 446 1065 534 1065 q 302 1117 357 1065 q 248 1251 248 1168 l 336 1251 q 366 1182 336 1208 q 446 1156 396 1156 q 526 1183 494 1156 q 557 1251 557 1210 l 646 1251 m 252 285 l 154 0 l 20 0 l 358 983 l 525 983 l 876 0 l 746 0 l 644 285 l 252 285 m 440 846 l 292 403 l 603 403 l 449 846 l 440 846 z "},"ă":{"ha":728,"x_min":45,"x_max":632,"o":"m 562 982 q 507 847 562 899 q 363 796 452 796 q 219 847 274 796 q 164 982 164 899 l 253 982 q 283 913 253 939 q 363 886 313 886 q 443 913 412 886 q 473 982 473 940 l 562 982 m 354 725 q 560 655 488 725 q 632 454 632 585 l 632 0 l 532 0 l 513 83 q 278 -14 408 -14 q 108 44 171 -14 q 45 199 45 102 q 137 374 45 311 q 396 437 229 437 l 501 437 l 501 457 q 345 610 496 610 q 241 596 298 610 q 125 558 183 582 l 89 664 q 221 709 151 693 q 354 725 290 725 m 404 338 q 235 302 296 338 q 175 203 175 267 q 208 128 175 154 q 301 102 241 102 q 412 126 358 102 q 501 191 467 150 l 501 338 l 404 338 z "},"Ą":{"ha":894,"x_min":20,"x_max":876,"o":"m 608 -183 q 649 -75 608 -127 q 746 0 689 -22 l 644 285 l 252 285 l 154 0 l 20 0 l 358 983 l 525 983 l 876 0 l 869 0 q 760 -80 795 -43 q 724 -168 724 -117 q 742 -217 724 -200 q 787 -235 761 -235 q 854 -221 819 -235 l 873 -277 q 809 -304 839 -295 q 742 -313 779 -313 q 648 -280 688 -313 q 608 -183 608 -248 m 444 846 l 292 403 l 602 403 l 444 846 z "},"ą":{"ha":729,"x_min":46,"x_max":633,"o":"m 366 -183 q 388 -108 366 -146 q 450 -41 411 -71 q 504 6 484 -15 q 524 49 524 26 q 514 83 524 67 q 281 -17 412 -16 q 110 41 174 -17 q 46 196 46 98 q 138 374 46 311 q 397 437 231 437 l 503 437 l 503 457 q 346 610 497 610 q 241 596 298 610 q 126 558 183 583 l 90 664 q 222 709 153 693 q 357 725 292 725 q 561 655 489 725 q 633 454 633 585 l 633 0 q 519 -80 557 -43 q 481 -168 481 -117 q 499 -217 481 -200 q 545 -235 518 -235 q 611 -221 576 -235 l 631 -277 q 566 -304 596 -295 q 498 -313 536 -313 q 405 -280 444 -313 q 366 -183 366 -248 m 406 338 q 236 301 296 338 q 176 199 176 265 q 210 124 176 150 q 306 98 243 98 q 415 123 361 98 q 503 191 468 149 l 503 338 l 406 338 z "},"Ć":{"ha":858,"x_min":66,"x_max":829,"o":"m 419 1104 l 604 1332 l 688 1246 l 471 1057 l 419 1104 m 533 994 q 683 974 608 994 q 822 913 757 953 l 766 804 q 646 854 703 839 q 533 869 590 869 q 291 772 376 869 q 205 494 205 675 q 290 214 205 313 q 529 115 374 115 q 781 174 652 115 l 829 60 q 680 9 762 28 q 524 -9 599 -9 q 184 120 301 -9 q 66 494 66 250 q 122 762 66 650 q 282 935 178 875 q 533 994 387 994 z "},"ć":{"ha":652,"x_min":60,"x_max":624,"o":"m 317 835 l 501 1063 l 585 977 l 368 787 l 317 835 m 401 726 q 616 667 513 726 l 571 562 q 401 611 484 611 q 248 545 302 611 q 193 358 193 479 q 249 172 193 236 q 410 107 304 107 q 496 119 448 107 q 589 150 545 131 l 624 46 q 510 6 571 21 q 395 -8 449 -8 q 147 87 235 -8 q 60 358 60 183 q 150 629 60 532 q 401 726 240 726 z "},"Ĉ":{"ha":858,"x_min":66,"x_max":829,"o":"m 326 1057 l 275 1104 l 460 1291 l 511 1291 l 696 1104 l 644 1057 l 485 1179 l 326 1057 m 533 994 q 683 974 608 994 q 822 913 757 953 l 766 804 q 646 854 703 839 q 533 869 590 869 q 291 772 376 869 q 205 494 205 675 q 290 214 205 313 q 529 115 374 115 q 781 174 652 115 l 829 60 q 680 9 762 28 q 524 -9 599 -9 q 184 120 301 -9 q 66 494 66 250 q 122 762 66 650 q 282 935 178 875 q 533 994 387 994 z "},"ĉ":{"ha":652,"x_min":60,"x_max":624,"o":"m 224 787 l 172 835 l 357 1021 l 408 1021 l 593 835 l 542 787 l 382 909 l 224 787 m 401 726 q 616 667 513 726 l 571 562 q 401 611 484 611 q 248 545 302 611 q 193 358 193 479 q 249 172 193 236 q 410 107 304 107 q 496 119 448 107 q 589 150 545 131 l 624 46 q 510 6 571 21 q 395 -8 449 -8 q 147 87 235 -8 q 60 358 60 183 q 150 629 60 532 q 401 726 240 726 z "},"Ċ":{"ha":858,"x_min":66,"x_max":829,"o":"m 422 1236 l 551 1236 l 551 1107 l 422 1107 l 422 1236 m 533 994 q 683 974 608 994 q 822 913 757 953 l 766 804 q 646 854 703 839 q 533 869 590 869 q 291 772 376 869 q 205 494 205 675 q 290 214 205 313 q 529 115 374 115 q 781 174 652 115 l 829 60 q 680 9 762 28 q 524 -9 599 -9 q 184 120 301 -9 q 66 494 66 250 q 122 762 66 650 q 282 935 178 875 q 533 994 387 994 z "},"ċ":{"ha":652,"x_min":60,"x_max":624,"o":"m 319 966 l 449 966 l 449 838 l 319 838 l 319 966 m 401 726 q 616 667 513 726 l 571 562 q 401 611 484 611 q 248 545 302 611 q 193 358 193 479 q 249 172 193 236 q 410 107 304 107 q 496 119 448 107 q 589 150 545 131 l 624 46 q 510 6 571 21 q 395 -8 449 -8 q 147 87 235 -8 q 60 358 60 183 q 150 629 60 532 q 401 726 240 726 z "},"Č":{"ha":858,"x_min":66,"x_max":829,"o":"m 279 1257 l 330 1304 l 489 1182 l 648 1304 l 700 1257 l 515 1071 l 464 1071 l 279 1257 m 533 994 q 683 974 608 994 q 822 913 757 953 l 766 804 q 646 854 703 839 q 533 869 590 869 q 291 772 376 869 q 205 494 205 675 q 290 214 205 313 q 529 115 374 115 q 781 174 652 115 l 829 60 q 680 9 762 28 q 524 -9 599 -9 q 184 120 301 -9 q 66 494 66 250 q 122 762 66 650 q 282 935 178 875 q 533 994 387 994 z "},"č":{"ha":652,"x_min":60,"x_max":624,"o":"m 176 987 l 228 1035 l 386 913 l 546 1035 l 597 987 l 412 802 l 361 802 l 176 987 m 401 726 q 616 667 513 726 l 571 562 q 401 611 484 611 q 248 545 302 611 q 193 358 193 479 q 249 172 193 236 q 410 107 304 107 q 496 119 448 107 q 589 150 545 131 l 624 46 q 510 6 571 21 q 395 -8 449 -8 q 147 87 235 -8 q 60 358 60 183 q 150 629 60 532 q 401 726 240 726 z "},"Ď":{"ha":986,"x_min":129,"x_max":920,"o":"m 271 1257 l 322 1304 l 481 1182 l 640 1304 l 692 1257 l 507 1071 l 456 1071 l 271 1257 m 447 983 q 798 858 676 983 q 920 494 920 732 q 797 129 920 257 q 447 0 673 0 l 129 0 l 129 983 l 447 983 m 447 118 q 695 214 610 118 q 781 494 781 310 q 696 771 781 676 q 447 865 611 865 l 262 865 l 262 118 l 447 118 z "},"ď":{"ha":876,"x_min":60,"x_max":937,"o":"m 819 1060 l 937 1043 l 888 787 l 819 793 l 819 1060 m 604 1 l 586 90 q 488 13 540 37 q 374 -11 436 -11 q 142 82 224 -11 q 60 346 60 175 q 157 625 60 524 q 427 726 254 726 q 578 707 489 726 l 578 1042 l 708 1042 l 708 1 l 604 1 m 382 104 q 502 141 450 104 q 578 244 553 178 l 578 590 q 494 607 522 604 q 428 611 467 611 q 255 541 317 611 q 193 346 193 471 q 242 168 193 231 q 382 104 292 104 z "},"Đ":{"ha":986,"x_min":12,"x_max":920,"o":"m 447 983 q 798 858 676 983 q 920 494 920 732 q 797 129 920 257 q 447 0 673 0 l 129 0 l 129 435 l 12 435 l 12 553 l 129 553 l 129 983 l 447 983 m 447 118 q 695 214 610 118 q 781 494 781 310 q 696 771 781 676 q 447 865 611 865 l 262 865 l 262 553 l 463 553 l 463 435 l 262 435 l 262 118 l 447 118 z "},"đ":{"ha":822,"x_min":58,"x_max":799,"o":"m 707 822 l 707 1 l 603 1 l 583 89 q 486 13 537 37 q 372 -11 435 -11 q 140 82 222 -11 q 58 346 58 175 q 156 625 58 524 q 425 726 253 726 q 576 707 488 726 l 576 822 l 376 822 l 376 933 l 576 933 l 576 1042 l 707 1042 l 707 933 l 799 933 l 799 822 l 707 822 m 427 611 q 254 541 315 611 q 192 346 192 471 q 241 168 192 231 q 380 104 290 104 q 500 141 448 104 q 576 244 551 178 l 576 590 q 493 607 521 604 q 427 611 465 611 z "},"Ē":{"ha":777,"x_min":129,"x_max":729,"o":"m 222 1219 l 644 1219 l 644 1122 l 222 1122 l 222 1219 m 262 574 l 668 574 l 668 456 l 262 456 l 262 118 l 729 118 l 729 0 l 129 0 l 129 983 l 714 983 l 714 865 l 262 865 l 262 574 z "},"ē":{"ha":744,"x_min":60,"x_max":692,"o":"m 604 950 l 604 852 l 182 852 l 182 950 l 604 950 m 193 334 q 253 163 199 222 q 406 104 307 104 q 510 116 460 104 q 625 155 561 127 l 667 58 q 528 6 593 22 q 399 -11 464 -11 q 149 86 237 -11 q 60 358 60 183 q 147 630 60 533 q 395 726 235 726 q 618 636 545 726 q 692 363 692 546 l 692 334 l 193 334 m 557 443 q 510 569 551 526 q 395 611 468 611 q 200 443 232 611 l 557 443 z "},"Ĕ":{"ha":777,"x_min":129,"x_max":729,"o":"m 633 1251 q 578 1117 633 1168 q 433 1065 522 1065 q 290 1117 345 1065 q 235 1251 235 1168 l 323 1251 q 353 1182 323 1208 q 433 1156 383 1156 q 513 1183 482 1156 q 545 1251 545 1210 l 633 1251 m 262 574 l 668 574 l 668 456 l 262 456 l 262 118 l 729 118 l 729 0 l 129 0 l 129 983 l 714 983 l 714 865 l 262 865 l 262 574 z "},"ĕ":{"ha":744,"x_min":60,"x_max":692,"o":"m 393 796 q 250 847 304 796 q 195 982 195 899 l 283 982 q 313 913 283 939 q 393 886 343 886 q 473 913 442 886 q 504 982 504 940 l 593 982 q 537 847 593 899 q 393 796 482 796 m 193 334 q 253 163 199 222 q 406 104 307 104 q 510 116 460 104 q 625 155 561 127 l 667 58 q 528 6 593 22 q 399 -11 464 -11 q 149 86 237 -11 q 60 358 60 183 q 147 630 60 533 q 395 726 235 726 q 618 636 545 726 q 692 363 692 546 l 692 334 l 193 334 m 557 443 q 510 569 551 526 q 395 611 468 611 q 200 443 232 611 l 557 443 z "},"Ė":{"ha":777,"x_min":129,"x_max":729,"o":"m 368 1236 l 497 1236 l 497 1107 l 368 1107 l 368 1236 m 262 574 l 668 574 l 668 456 l 262 456 l 262 118 l 729 118 l 729 0 l 129 0 l 129 983 l 714 983 l 714 865 l 262 865 l 262 574 z "},"ė":{"ha":744,"x_min":60,"x_max":692,"o":"m 457 966 l 457 838 l 328 838 l 328 966 l 457 966 m 193 334 q 253 163 199 222 q 406 104 307 104 q 510 116 460 104 q 625 155 561 127 l 667 58 q 528 6 593 22 q 399 -11 464 -11 q 149 86 237 -11 q 60 358 60 183 q 147 630 60 533 q 395 726 235 726 q 618 636 545 726 q 692 363 692 546 l 692 334 l 193 334 m 557 443 q 510 569 551 526 q 395 611 468 611 q 200 443 232 611 l 557 443 z "},"Ę":{"ha":777,"x_min":129,"x_max":729,"o":"m 433 -183 q 474 -75 433 -127 q 571 0 514 -22 l 129 0 l 129 983 l 714 983 l 714 865 l 262 865 l 262 574 l 668 574 l 668 456 l 262 456 l 262 118 l 729 118 l 729 0 l 701 0 q 587 -80 625 -43 q 549 -168 549 -117 q 567 -217 549 -200 q 612 -235 586 -235 q 679 -221 644 -235 l 699 -277 q 634 -304 664 -295 q 567 -313 604 -313 q 473 -280 513 -313 q 433 -183 433 -248 z "},"ę":{"ha":744,"x_min":60,"x_max":692,"o":"m 399 -158 q 417 -80 399 -118 q 465 -12 435 -43 l 463 -7 q 399 -11 429 -11 q 149 86 237 -11 q 60 358 60 183 q 147 630 60 533 q 395 726 235 726 q 618 636 545 726 q 692 363 692 546 l 692 334 l 193 334 l 193 326 q 247 168 193 231 q 406 104 301 104 q 510 116 460 104 q 625 155 561 127 l 667 58 q 553 -33 591 12 q 514 -138 514 -78 q 533 -192 514 -174 q 578 -211 551 -211 q 644 -197 610 -211 l 664 -253 q 600 -280 629 -271 q 532 -289 570 -289 q 438 -256 477 -289 q 399 -158 399 -222 m 557 443 q 510 569 551 526 q 395 611 468 611 q 264 569 314 611 q 200 443 215 526 l 557 443 z "},"Ě":{"ha":777,"x_min":129,"x_max":729,"o":"m 225 1257 l 277 1304 l 435 1182 l 595 1304 l 646 1257 l 461 1071 l 410 1071 l 225 1257 m 262 574 l 668 574 l 668 456 l 262 456 l 262 118 l 729 118 l 729 0 l 129 0 l 129 983 l 714 983 l 714 865 l 262 865 l 262 574 z "},"ě":{"ha":744,"x_min":60,"x_max":692,"o":"m 395 913 l 554 1035 l 606 987 l 421 802 l 370 802 l 184 987 l 236 1035 l 395 913 m 193 334 q 253 163 199 222 q 406 104 307 104 q 510 116 460 104 q 625 155 561 127 l 667 58 q 528 6 593 22 q 399 -11 464 -11 q 149 86 237 -11 q 60 358 60 183 q 147 630 60 533 q 395 726 235 726 q 618 636 545 726 q 692 363 692 546 l 692 334 l 193 334 m 557 443 q 510 569 551 526 q 395 611 468 611 q 200 443 232 611 l 557 443 z "},"Ĝ":{"ha":919,"x_min":66,"x_max":843,"o":"m 522 1291 l 707 1104 l 656 1057 l 496 1179 l 338 1057 l 286 1104 l 471 1291 l 522 1291 m 843 60 q 689 9 775 28 q 524 -9 603 -9 q 184 120 301 -9 q 66 494 66 250 q 122 762 66 650 q 282 935 178 875 q 533 994 387 994 q 688 974 610 994 q 836 913 766 953 l 781 804 q 654 853 714 838 q 533 869 595 869 q 291 772 376 869 q 205 494 205 675 q 290 214 205 313 q 529 115 374 115 q 710 143 618 115 l 710 489 l 843 489 l 843 60 z "},"ĝ":{"ha":823,"x_min":60,"x_max":708,"o":"m 237 787 l 186 835 l 371 1021 l 422 1021 l 607 835 l 555 787 l 396 909 l 237 787 m 416 720 q 508 706 464 720 q 585 669 551 693 l 600 714 l 708 714 l 708 -20 q 616 -245 708 -163 q 367 -328 525 -328 q 213 -308 288 -328 q 82 -254 139 -289 l 131 -150 q 248 -195 181 -178 q 375 -212 315 -212 q 525 -163 472 -212 q 578 -22 578 -114 l 578 81 q 374 -11 493 -11 q 142 82 224 -11 q 60 346 60 175 q 153 622 60 524 q 416 720 245 720 m 424 611 q 255 540 317 611 q 193 346 193 469 q 242 168 193 231 q 382 104 292 104 q 503 142 451 104 q 578 248 555 180 l 578 570 q 505 600 546 589 q 424 611 464 611 z "},"Ğ":{"ha":919,"x_min":66,"x_max":843,"o":"m 498 1065 q 355 1117 410 1065 q 300 1251 300 1168 l 389 1251 q 419 1182 389 1208 q 498 1156 449 1156 q 578 1183 547 1156 q 610 1251 610 1210 l 699 1251 q 643 1117 699 1168 q 498 1065 587 1065 m 843 60 q 689 9 775 28 q 524 -9 603 -9 q 184 120 301 -9 q 66 494 66 250 q 122 762 66 650 q 282 935 178 875 q 533 994 387 994 q 688 974 610 994 q 836 913 766 953 l 781 804 q 654 853 714 838 q 533 869 595 869 q 291 772 376 869 q 205 494 205 675 q 290 214 205 313 q 529 115 374 115 q 710 143 618 115 l 710 489 l 843 489 l 843 60 z "},"ğ":{"ha":823,"x_min":60,"x_max":708,"o":"m 599 982 q 543 847 599 899 q 399 796 488 796 q 255 847 310 796 q 200 982 200 899 l 289 982 q 319 913 289 939 q 399 886 349 886 q 479 913 448 886 q 510 982 510 940 l 599 982 m 416 720 q 508 706 464 720 q 585 669 551 693 l 600 714 l 708 714 l 708 -20 q 616 -245 708 -163 q 367 -328 525 -328 q 213 -308 288 -328 q 82 -254 139 -289 l 131 -150 q 248 -195 181 -178 q 375 -212 315 -212 q 525 -163 472 -212 q 578 -22 578 -114 l 578 81 q 374 -11 493 -11 q 142 82 224 -11 q 60 346 60 175 q 153 622 60 524 q 416 720 245 720 m 424 611 q 255 540 317 611 q 193 346 193 469 q 242 168 193 231 q 382 104 292 104 q 503 142 451 104 q 578 248 555 180 l 578 570 q 505 600 546 589 q 424 611 464 611 z "},"Ġ":{"ha":919,"x_min":66,"x_max":843,"o":"m 562 1236 l 562 1107 l 433 1107 l 433 1236 l 562 1236 m 843 60 q 689 9 775 28 q 524 -9 603 -9 q 184 120 301 -9 q 66 494 66 250 q 122 762 66 650 q 282 935 178 875 q 533 994 387 994 q 688 974 610 994 q 836 913 766 953 l 781 804 q 654 853 714 838 q 533 869 595 869 q 291 772 376 869 q 205 494 205 675 q 290 214 205 313 q 529 115 374 115 q 710 143 618 115 l 710 489 l 843 489 l 843 60 z "},"ġ":{"ha":823,"x_min":60,"x_max":708,"o":"m 334 966 l 463 966 l 463 838 l 334 838 l 334 966 m 416 720 q 508 706 464 720 q 585 669 551 693 l 600 714 l 708 714 l 708 -20 q 616 -245 708 -163 q 367 -328 525 -328 q 213 -308 288 -328 q 82 -254 139 -289 l 131 -150 q 248 -195 181 -178 q 375 -212 315 -212 q 525 -163 472 -212 q 578 -22 578 -114 l 578 81 q 374 -11 493 -11 q 142 82 224 -11 q 60 346 60 175 q 153 622 60 524 q 416 720 245 720 m 424 611 q 255 540 317 611 q 193 346 193 469 q 242 168 193 231 q 382 104 292 104 q 503 142 451 104 q 578 248 555 180 l 578 570 q 505 600 546 589 q 424 611 464 611 z "},"Ģ":{"ha":919,"x_min":66,"x_max":843,"o":"m 843 60 q 689 9 775 28 q 524 -9 603 -9 q 184 120 301 -9 q 66 494 66 250 q 122 762 66 650 q 282 935 178 875 q 533 994 387 994 q 688 974 610 994 q 836 913 766 953 l 781 804 q 654 853 714 838 q 533 869 595 869 q 291 772 376 869 q 205 494 205 675 q 290 214 205 313 q 529 115 374 115 q 710 143 618 115 l 710 489 l 843 489 l 843 60 m 393 -298 q 421 -180 411 -233 q 435 -65 431 -127 l 566 -65 q 537 -174 555 -126 q 476 -298 519 -221 l 393 -298 z "},"Ĥ":{"ha":1027,"x_min":129,"x_max":899,"o":"m 353 1057 l 301 1104 l 486 1291 l 538 1291 l 722 1104 l 671 1057 l 511 1179 l 353 1057 m 765 983 l 899 983 l 899 0 l 765 0 l 765 452 l 262 452 l 262 0 l 129 0 l 129 983 l 262 983 l 262 570 l 765 570 l 765 983 z "},"ĥ":{"ha":821,"x_min":-31,"x_max":722,"o":"m 21 1065 l -31 1112 l 154 1299 l 205 1299 l 390 1112 l 339 1065 l 179 1187 l 21 1065 m 245 623 q 488 726 345 726 q 662 661 602 726 q 722 469 722 595 l 722 0 l 591 0 l 591 460 q 559 575 591 539 q 454 611 526 611 q 335 583 391 611 q 245 504 279 554 l 245 0 l 115 0 l 115 1047 l 245 1047 l 245 623 z "},"Ħ":{"ha":1027,"x_min":32,"x_max":996,"o":"m 765 0 l 765 452 l 262 452 l 262 0 l 129 0 l 129 724 l 32 724 l 32 835 l 129 835 l 129 983 l 262 983 l 262 835 l 765 835 l 765 983 l 899 983 l 899 835 l 996 835 l 996 724 l 899 724 l 899 0 l 765 0 m 765 570 l 765 724 l 262 724 l 262 570 l 765 570 z "},"ħ":{"ha":821,"x_min":24,"x_max":722,"o":"m 245 822 l 245 623 q 488 726 344 727 q 662 661 602 726 q 722 469 722 595 l 722 0 l 591 0 l 591 460 q 559 575 591 539 q 454 611 526 611 q 335 583 391 611 q 245 504 279 554 l 245 0 l 115 0 l 115 822 l 24 822 l 24 933 l 115 933 l 115 1047 l 245 1047 l 245 933 l 446 933 l 446 822 l 245 822 z "},"Ĩ":{"ha":391,"x_min":0,"x_max":400,"o":"m 125 1261 q 174 1250 154 1261 q 215 1217 195 1238 q 229 1205 218 1214 q 251 1191 240 1196 q 271 1186 261 1186 q 301 1203 290 1186 q 313 1253 313 1221 l 400 1253 q 368 1138 400 1182 q 281 1093 335 1093 q 234 1104 253 1093 q 189 1139 215 1116 q 160 1163 171 1156 q 135 1171 149 1171 q 101 1153 114 1171 q 87 1101 87 1135 l 0 1101 q 33 1217 0 1173 q 125 1261 66 1261 m 129 983 l 262 983 l 262 0 l 129 0 l 129 983 z "},"ĩ":{"ha":358,"x_min":-17,"x_max":383,"o":"m 109 991 q 158 980 138 991 q 199 947 178 968 q 213 936 201 945 q 234 922 224 926 q 254 917 244 917 q 285 934 274 917 q 296 983 296 951 l 383 983 q 351 868 383 913 q 264 823 318 823 q 217 834 236 823 q 172 869 199 846 q 143 894 154 886 q 118 901 132 901 q 84 883 97 901 q 71 832 71 865 l -17 832 q 17 948 -17 904 q 109 991 50 991 m 114 714 l 244 714 l 244 0 l 114 0 l 114 714 z "},"Ī":{"ha":391,"x_min":-11,"x_max":411,"o":"m -11 1219 l 411 1219 l 411 1122 l -11 1122 l -11 1219 m 129 983 l 262 983 l 262 0 l 129 0 l 129 983 z "},"ī":{"ha":358,"x_min":-28,"x_max":395,"o":"m -28 950 l 395 950 l 395 852 l -28 852 l -28 950 m 114 714 l 244 714 l 244 0 l 114 0 l 114 714 z "},"Ĭ":{"ha":391,"x_min":1,"x_max":400,"o":"m 400 1251 q 345 1117 400 1168 q 200 1065 289 1065 q 56 1117 111 1065 q 1 1251 1 1168 l 90 1251 q 120 1182 90 1208 q 200 1156 150 1156 q 280 1183 249 1156 q 311 1251 311 1210 l 400 1251 m 129 983 l 262 983 l 262 0 l 129 0 l 129 983 z "},"ĭ":{"ha":358,"x_min":-16,"x_max":383,"o":"m 383 982 q 328 847 383 899 q 183 796 272 796 q 39 847 94 796 q -16 982 -16 899 l 74 982 q 104 913 74 939 q 183 886 134 886 q 263 913 232 886 q 294 982 294 940 l 383 982 m 114 714 l 244 714 l 244 0 l 114 0 l 114 714 z "},"Į":{"ha":391,"x_min":41,"x_max":314,"o":"m 41 -182 q 69 -82 41 -126 q 146 0 97 -39 l 129 0 l 129 983 l 262 983 l 262 0 l 256 0 q 183 -73 208 -37 q 158 -157 158 -109 q 175 -212 158 -190 q 228 -235 192 -235 q 294 -221 260 -235 l 314 -277 q 250 -304 279 -295 q 182 -313 220 -313 q 82 -274 122 -313 q 41 -182 41 -236 z "},"į":{"ha":358,"x_min":26,"x_max":298,"o":"m 114 978 l 244 978 l 244 844 l 114 844 l 114 978 m 26 -182 q 136 0 26 -90 l 114 0 l 114 714 l 244 714 l 244 0 q 168 -76 193 -41 q 143 -157 143 -110 q 160 -212 143 -190 q 212 -235 176 -235 q 279 -221 244 -235 l 298 -277 q 234 -304 264 -295 q 167 -313 204 -313 q 67 -274 107 -313 q 26 -182 26 -236 z "},"İ":{"ha":391,"x_min":129,"x_max":264,"o":"m 135 1236 l 264 1236 l 264 1107 l 135 1107 l 135 1236 m 129 983 l 262 983 l 262 0 l 129 0 l 129 983 z "},"ı":{"ha":358,"x_min":114,"x_max":244,"o":"m 114 714 l 244 714 l 244 0 l 114 0 l 114 714 z "},"Ĳ":{"ha":846,"x_min":109,"x_max":737,"o":"m 737 289 q 655 66 737 144 q 422 -12 574 -12 q 190 66 271 -12 q 109 289 109 144 l 109 714 l 241 714 l 241 289 q 284 154 241 197 q 422 111 328 111 q 561 154 517 111 q 604 289 604 197 l 604 865 l 412 865 l 412 983 l 737 983 l 737 289 m 241 983 l 241 852 l 109 852 l 109 983 l 241 983 z "},"ĳ":{"ha":801,"x_min":110,"x_max":689,"o":"m 110 964 l 689 964 l 689 852 l 110 852 l 110 964 m 689 122 q 641 -68 689 21 q 488 -253 593 -157 l 412 -192 q 502 -64 469 -121 q 549 46 534 -7 q 359 -8 463 -8 q 176 50 241 -8 q 110 229 110 107 l 110 714 l 240 714 l 240 229 q 286 133 240 167 q 399 98 332 98 q 558 164 479 98 l 558 714 l 689 714 l 689 122 z "},"Ĵ":{"ha":464,"x_min":-8,"x_max":412,"o":"m 43 1057 l -8 1104 l 176 1291 l 228 1291 l 412 1104 l 361 1057 l 201 1179 l 43 1057 m -4 -103 q 146 12 85 -66 q 208 168 208 90 l 208 865 l 16 865 l 16 983 l 339 983 l 339 168 q 300 23 339 96 q 194 -108 261 -50 q 46 -193 126 -165 l -4 -103 z "},"ĵ":{"ha":361,"x_min":-28,"x_max":393,"o":"m 24 787 l -28 835 l 157 1021 l 208 1021 l 393 835 l 342 787 l 182 909 l 24 787 m -28 -192 q 84 -22 50 -96 q 118 122 118 52 l 118 714 l 249 714 l 249 122 q 201 -66 249 22 q 47 -253 153 -155 l -28 -192 z "},"Ķ":{"ha":890,"x_min":129,"x_max":880,"o":"m 129 983 l 262 983 l 262 0 l 129 0 l 129 983 m 880 0 l 711 0 l 292 530 l 684 983 l 846 983 l 457 533 l 880 0 m 539 -65 q 510 -174 528 -126 q 450 -298 493 -221 l 367 -298 q 395 -180 385 -233 q 408 -65 404 -127 l 539 -65 z "},"ķ":{"ha":733,"x_min":115,"x_max":732,"o":"m 115 1048 l 245 1048 l 245 0 l 115 0 l 115 1048 m 732 0 l 572 0 l 264 404 l 528 714 l 682 714 l 422 411 l 732 0 m 469 -65 q 441 -174 458 -126 q 380 -298 424 -221 l 297 -298 q 325 -180 315 -233 q 339 -65 335 -127 l 469 -65 z "},"ĸ":{"ha":737,"x_min":114,"x_max":730,"o":"m 114 714 l 244 714 l 244 0 l 114 0 l 114 714 m 730 0 l 571 0 l 262 404 l 554 714 l 708 714 l 421 411 l 730 0 z "},"Ĺ":{"ha":726,"x_min":129,"x_max":711,"o":"m 135 1079 l 319 1307 l 403 1221 l 186 1032 l 135 1079 m 711 0 l 129 0 l 129 983 l 262 983 l 262 118 l 711 118 l 711 0 z "},"ĺ":{"ha":361,"x_min":115,"x_max":385,"o":"m 117 1112 l 301 1340 l 385 1254 l 168 1065 l 117 1112 m 115 1042 l 245 1042 l 245 0 l 115 0 l 115 1042 z "},"Ļ":{"ha":726,"x_min":129,"x_max":711,"o":"m 711 0 l 129 0 l 129 983 l 262 983 l 262 118 l 711 118 l 711 0 m 528 -65 q 499 -174 517 -126 q 439 -298 482 -221 l 355 -298 q 384 -180 374 -233 q 397 -65 393 -127 l 528 -65 z "},"ļ":{"ha":361,"x_min":79,"x_max":252,"o":"m 115 1042 l 245 1042 l 245 0 l 115 0 l 115 1042 m 252 -65 q 223 -174 240 -126 q 163 -298 205 -221 l 79 -298 q 107 -180 98 -233 q 121 -65 117 -127 l 252 -65 z "},"Ľ":{"ha":726,"x_min":129,"x_max":711,"o":"m 561 986 l 679 970 l 629 714 l 561 720 l 561 986 m 711 0 l 129 0 l 129 983 l 262 983 l 262 118 l 711 118 l 711 0 z "},"ľ":{"ha":477,"x_min":115,"x_max":497,"o":"m 379 1100 l 497 1083 l 447 828 l 379 833 l 379 1100 m 115 1042 l 245 1042 l 245 0 l 115 0 l 115 1042 z "},"Ŀ":{"ha":736,"x_min":129,"x_max":711,"o":"m 711 0 l 129 0 l 129 983 l 262 983 l 262 118 l 711 118 l 711 0 m 557 608 l 686 608 l 686 479 l 557 479 l 557 608 z "},"ŀ":{"ha":455,"x_min":115,"x_max":497,"o":"m 115 1042 l 245 1042 l 245 0 l 115 0 l 115 1042 m 368 615 l 497 615 l 497 486 l 368 486 l 368 615 z "},"Ł":{"ha":726,"x_min":28,"x_max":711,"o":"m 129 421 l 28 363 l 28 492 l 129 550 l 129 983 l 262 983 l 262 627 l 526 779 l 526 650 l 262 497 l 262 118 l 711 118 l 711 0 l 129 0 l 129 421 z "},"ł":{"ha":399,"x_min":32,"x_max":368,"o":"m 135 0 l 135 464 l 32 404 l 32 533 l 135 593 l 135 1047 l 265 1047 l 265 668 l 368 728 l 368 599 l 265 539 l 265 0 l 135 0 z "},"Ń":{"ha":1023,"x_min":129,"x_max":895,"o":"m 722 1246 l 505 1057 l 454 1104 l 639 1332 l 722 1246 m 408 530 q 256 772 345 622 l 256 0 l 129 0 l 129 983 l 241 983 l 606 467 q 768 214 660 390 l 768 983 l 895 983 l 895 0 l 782 0 l 408 530 z "},"ń":{"ha":819,"x_min":114,"x_max":721,"o":"m 358 835 l 543 1063 l 627 977 l 410 787 l 358 835 m 235 614 q 348 699 286 671 q 486 726 410 726 q 661 661 600 726 q 721 469 721 595 l 721 0 l 590 0 l 590 460 q 557 575 590 539 q 453 611 525 611 q 334 583 389 611 q 244 504 278 554 l 244 0 l 114 0 l 114 714 l 220 714 l 235 614 z "},"Ņ":{"ha":1023,"x_min":129,"x_max":895,"o":"m 408 530 q 256 772 345 622 l 256 0 l 129 0 l 129 983 l 241 983 l 606 467 q 768 214 660 390 l 768 983 l 895 983 l 895 0 l 782 0 l 408 530 m 416 -298 q 445 -180 435 -233 q 458 -65 454 -127 l 589 -65 q 561 -174 578 -126 q 500 -298 543 -221 l 416 -298 z "},"ņ":{"ha":819,"x_min":114,"x_max":721,"o":"m 235 614 q 348 699 286 671 q 486 726 410 726 q 661 661 600 726 q 721 469 721 595 l 721 0 l 590 0 l 590 460 q 557 575 590 539 q 453 611 525 611 q 334 583 389 611 q 244 504 278 554 l 244 0 l 114 0 l 114 714 l 220 714 l 235 614 m 481 -65 q 452 -174 469 -126 q 392 -298 435 -221 l 309 -298 q 336 -180 327 -233 q 350 -65 346 -127 l 481 -65 z "},"Ň":{"ha":1023,"x_min":129,"x_max":895,"o":"m 524 1182 l 684 1304 l 734 1257 l 550 1071 l 498 1071 l 314 1257 l 366 1304 l 524 1182 m 408 530 q 256 772 345 622 l 256 0 l 129 0 l 129 983 l 241 983 l 606 467 q 768 214 660 390 l 768 983 l 895 983 l 895 0 l 782 0 l 408 530 z "},"ň":{"ha":819,"x_min":114,"x_max":721,"o":"m 218 987 l 269 1035 l 428 913 l 587 1035 l 639 987 l 454 802 l 403 802 l 218 987 m 235 614 q 348 699 286 671 q 486 726 410 726 q 661 661 600 726 q 721 469 721 595 l 721 0 l 590 0 l 590 460 q 557 575 590 539 q 453 611 525 611 q 334 583 389 611 q 244 504 278 554 l 244 0 l 114 0 l 114 714 l 220 714 l 235 614 z "},"Ŋ":{"ha":1023,"x_min":129,"x_max":895,"o":"m 895 69 q 856 -76 895 -3 q 749 -206 817 -149 q 602 -292 682 -264 l 551 -201 q 689 -107 631 -171 q 762 26 747 -43 l 256 749 l 256 0 l 129 0 l 129 983 l 241 983 l 768 237 l 768 983 l 895 983 l 895 69 z "},"ŋ":{"ha":819,"x_min":114,"x_max":721,"o":"m 486 726 q 661 661 600 726 q 721 469 721 595 l 721 122 q 673 -68 721 20 q 519 -253 625 -157 l 444 -192 q 556 -22 522 -96 q 590 122 590 52 l 590 460 q 557 575 590 539 q 453 611 525 611 q 334 583 389 611 q 244 504 278 554 l 244 0 l 114 0 l 114 714 l 220 714 l 235 614 q 348 699 286 671 q 486 726 410 726 z "},"Ō":{"ha":1026,"x_min":66,"x_max":960,"o":"m 301 1219 l 724 1219 l 724 1122 l 301 1122 l 301 1219 m 514 994 q 843 864 726 994 q 960 496 960 733 q 844 118 960 250 q 514 -14 729 -14 q 182 118 298 -14 q 66 496 66 249 q 183 864 66 734 q 514 994 300 994 m 514 869 q 285 773 364 869 q 205 496 205 677 q 286 211 205 310 q 514 111 366 111 q 742 211 663 111 q 821 496 821 311 q 742 773 821 676 q 514 869 663 869 z "},"ō":{"ha":797,"x_min":60,"x_max":737,"o":"m 189 950 l 611 950 l 611 852 l 189 852 l 189 950 m 399 728 q 648 630 559 728 q 737 358 737 533 q 648 86 737 183 q 399 -11 559 -11 q 149 86 237 -11 q 60 358 60 183 q 149 630 60 533 q 399 728 237 728 m 399 612 q 246 547 298 612 q 193 358 193 482 q 246 170 193 235 q 399 104 298 104 q 551 170 498 104 q 604 358 604 235 q 551 547 604 481 q 399 612 498 612 z "},"Ŏ":{"ha":1026,"x_min":66,"x_max":960,"o":"m 713 1251 q 657 1117 713 1168 q 513 1065 602 1065 q 369 1117 424 1065 q 314 1251 314 1168 l 403 1251 q 433 1182 403 1208 q 513 1156 463 1156 q 593 1183 562 1156 q 624 1251 624 1210 l 713 1251 m 514 994 q 843 864 726 994 q 960 496 960 733 q 844 118 960 250 q 514 -14 729 -14 q 182 118 298 -14 q 66 496 66 249 q 183 864 66 734 q 514 994 300 994 m 514 869 q 285 773 364 869 q 205 496 205 677 q 286 211 205 310 q 514 111 366 111 q 742 211 663 111 q 821 496 821 311 q 742 773 821 676 q 514 869 663 869 z "},"ŏ":{"ha":797,"x_min":60,"x_max":737,"o":"m 600 982 q 545 847 600 899 q 400 796 489 796 q 256 847 311 796 q 201 982 201 899 l 290 982 q 320 913 290 939 q 400 886 350 886 q 480 913 449 886 q 511 982 511 940 l 600 982 m 399 728 q 648 630 559 728 q 737 358 737 533 q 648 86 737 183 q 399 -11 559 -11 q 149 86 237 -11 q 60 358 60 183 q 149 630 60 533 q 399 728 237 728 m 399 612 q 246 547 298 612 q 193 358 193 482 q 246 170 193 235 q 399 104 298 104 q 551 170 498 104 q 604 358 604 235 q 551 547 604 481 q 399 612 498 612 z "},"Ő":{"ha":1026,"x_min":66,"x_max":960,"o":"m 334 1104 l 519 1332 l 603 1246 l 385 1057 l 334 1104 m 570 1104 l 755 1332 l 839 1246 l 621 1057 l 570 1104 m 514 994 q 843 864 726 994 q 960 496 960 733 q 844 118 960 250 q 514 -14 729 -14 q 182 118 298 -14 q 66 496 66 249 q 183 864 66 734 q 514 994 300 994 m 514 869 q 285 773 364 869 q 205 496 205 677 q 286 211 205 310 q 514 111 366 111 q 742 211 663 111 q 821 496 821 311 q 742 773 821 676 q 514 869 663 869 z "},"ő":{"ha":797,"x_min":60,"x_max":737,"o":"m 221 835 l 407 1063 l 490 977 l 272 787 l 221 835 m 457 835 l 643 1063 l 726 977 l 509 787 l 457 835 m 399 728 q 648 630 559 728 q 737 358 737 533 q 648 86 737 183 q 399 -11 559 -11 q 149 86 237 -11 q 60 358 60 183 q 149 630 60 533 q 399 728 237 728 m 399 612 q 246 547 298 612 q 193 358 193 482 q 246 170 193 235 q 399 104 298 104 q 551 170 498 104 q 604 358 604 235 q 551 547 604 481 q 399 612 498 612 z "},"Œ":{"ha":1354,"x_min":66,"x_max":1305,"o":"m 66 496 q 183 864 66 734 q 514 994 300 994 q 628 989 555 994 q 720 983 694 983 l 1291 983 l 1291 865 l 839 865 l 839 574 l 1244 574 l 1244 456 l 839 456 l 839 118 l 1305 118 l 1305 0 l 705 0 q 514 -14 611 -14 q 182 118 298 -14 q 66 496 66 249 m 625 867 q 514 869 556 869 q 285 773 364 869 q 205 496 205 677 q 286 211 205 310 q 514 111 366 111 q 705 121 614 111 l 705 865 l 625 867 z "},"œ":{"ha":1289,"x_min":60,"x_max":1236,"o":"m 737 334 q 797 163 743 222 q 950 104 851 104 q 1055 116 1004 104 q 1169 155 1105 127 l 1211 58 q 1075 6 1139 22 q 943 -11 1010 -11 q 781 26 850 -11 q 671 132 711 62 q 561 26 631 63 q 399 -11 492 -11 q 149 86 237 -11 q 60 358 60 183 q 149 630 60 533 q 399 726 237 726 q 561 690 492 726 q 671 586 631 654 q 779 690 711 654 q 939 726 847 726 q 1162 636 1088 726 q 1236 363 1236 546 l 1236 334 l 737 334 m 399 104 q 551 170 497 104 q 604 358 604 236 q 551 546 604 481 q 399 611 498 611 q 246 547 299 611 q 193 358 193 482 q 247 170 193 236 q 399 104 300 104 m 1097 443 q 1049 571 1088 530 q 939 611 1010 611 q 745 443 776 611 l 1097 443 z "},"Ŕ":{"ha":850,"x_min":129,"x_max":807,"o":"m 411 1057 l 359 1104 l 545 1332 l 628 1246 l 411 1057 m 129 0 l 129 983 l 419 983 q 681 909 591 983 q 771 694 771 835 q 723 527 771 595 q 583 428 675 460 l 807 0 l 653 0 l 444 404 l 262 404 l 262 0 l 129 0 m 419 522 q 632 694 632 522 q 580 823 632 781 q 419 865 528 865 l 262 865 l 262 522 l 419 522 z "},"ŕ":{"ha":529,"x_min":114,"x_max":525,"o":"m 256 835 l 440 1063 l 524 977 l 307 787 l 256 835 m 235 614 q 322 698 272 669 q 432 726 372 726 q 525 711 472 726 l 501 583 q 410 597 433 597 q 311 575 350 597 q 244 503 272 553 l 244 0 l 114 0 l 114 714 l 218 714 l 235 614 z "},"Ŗ":{"ha":850,"x_min":129,"x_max":807,"o":"m 262 404 l 262 0 l 129 0 l 129 983 l 419 983 q 681 909 591 983 q 771 694 771 835 q 723 527 771 595 q 583 428 675 460 l 807 0 l 653 0 l 444 404 l 262 404 m 419 522 q 632 694 632 522 q 580 823 632 781 q 419 865 528 865 l 262 865 l 262 522 l 419 522 m 350 -298 q 378 -180 368 -233 q 392 -65 387 -127 l 522 -65 q 494 -174 511 -126 q 433 -298 476 -221 l 350 -298 z "},"ŗ":{"ha":529,"x_min":114,"x_max":525,"o":"m 235 614 q 322 698 272 669 q 432 726 372 726 q 525 711 472 726 l 501 583 q 410 597 433 597 q 311 575 350 597 q 244 503 272 553 l 244 0 l 114 0 l 114 714 l 218 714 l 235 614 m 359 -65 q 331 -174 349 -126 q 271 -298 314 -221 l 187 -298 q 215 -180 205 -233 q 229 -65 225 -127 l 359 -65 z "},"Ř":{"ha":850,"x_min":129,"x_max":807,"o":"m 429 1182 l 589 1304 l 640 1257 l 456 1071 l 404 1071 l 220 1257 l 271 1304 l 429 1182 m 262 0 l 129 0 l 129 983 l 419 983 q 681 909 591 983 q 771 694 771 835 q 723 527 771 595 q 583 428 675 460 l 807 0 l 653 0 l 444 404 l 262 404 l 262 0 m 419 522 q 632 694 632 522 q 580 823 632 781 q 419 865 528 865 l 262 865 l 262 522 l 419 522 z "},"ř":{"ha":529,"x_min":114,"x_max":536,"o":"m 115 987 l 167 1035 l 325 913 l 485 1035 l 536 987 l 351 802 l 300 802 l 115 987 m 235 614 q 322 698 272 669 q 432 726 372 726 q 525 711 472 726 l 501 583 q 410 597 433 597 q 311 575 350 597 q 244 503 272 553 l 244 0 l 114 0 l 114 714 l 218 714 l 235 614 z "},"Ś":{"ha":733,"x_min":49,"x_max":679,"o":"m 315 1104 l 500 1332 l 583 1246 l 367 1057 l 315 1104 m 404 994 q 648 942 522 995 l 615 819 q 401 868 489 868 q 260 833 313 868 q 208 737 208 799 q 227 663 208 692 q 290 610 245 633 q 415 562 335 586 q 618 453 558 521 q 679 271 679 386 q 590 63 679 138 q 346 -12 501 -12 q 49 57 212 -12 l 89 178 q 235 128 180 142 q 346 114 289 114 q 488 156 436 114 q 541 269 541 197 q 521 346 541 315 q 453 401 501 376 q 318 449 406 425 q 127 548 184 485 q 69 718 69 611 q 158 922 69 849 q 404 994 248 994 z "},"ś":{"ha":601,"x_min":43,"x_max":549,"o":"m 232 835 l 416 1063 l 500 977 l 283 787 l 232 835 m 329 726 q 532 681 416 727 l 497 572 q 329 612 395 612 q 233 589 268 612 q 197 525 197 566 q 229 466 197 486 q 322 427 260 446 q 440 383 396 403 q 516 319 484 363 q 549 203 549 275 q 478 46 549 104 q 286 -12 407 -12 q 43 41 160 -12 l 83 154 q 195 115 150 126 q 285 103 240 103 q 383 128 349 103 q 418 200 418 153 q 398 251 418 231 q 351 282 379 271 q 269 310 322 293 q 164 352 205 331 q 95 414 123 372 q 66 524 66 456 q 138 671 66 616 q 329 726 210 726 z "},"Ŝ":{"ha":733,"x_min":49,"x_max":679,"o":"m 222 1057 l 171 1104 l 355 1291 l 407 1291 l 591 1104 l 541 1057 l 380 1179 l 222 1057 m 404 994 q 648 942 522 995 l 615 819 q 401 868 489 868 q 260 833 313 868 q 208 737 208 799 q 227 663 208 692 q 290 610 245 633 q 415 562 335 586 q 618 453 558 521 q 679 271 679 386 q 590 63 679 138 q 346 -12 501 -12 q 49 57 212 -12 l 89 178 q 235 128 180 142 q 346 114 289 114 q 488 156 436 114 q 541 269 541 197 q 521 346 541 315 q 453 401 501 376 q 318 449 406 425 q 127 548 184 485 q 69 718 69 611 q 158 922 69 849 q 404 994 248 994 z "},"ŝ":{"ha":601,"x_min":43,"x_max":549,"o":"m 139 787 l 87 835 l 272 1021 l 323 1021 l 509 835 l 457 787 l 297 909 l 139 787 m 329 726 q 532 681 416 727 l 497 572 q 329 612 395 612 q 233 589 268 612 q 197 525 197 566 q 229 466 197 486 q 322 427 260 446 q 440 383 396 403 q 516 319 484 363 q 549 203 549 275 q 478 46 549 104 q 286 -12 407 -12 q 43 41 160 -12 l 83 154 q 195 115 150 126 q 285 103 240 103 q 383 128 349 103 q 418 200 418 153 q 398 251 418 231 q 351 282 379 271 q 269 310 322 293 q 164 352 205 331 q 95 414 123 372 q 66 524 66 456 q 138 671 66 616 q 329 726 210 726 z "},"Ş":{"ha":733,"x_min":49,"x_max":679,"o":"m 679 271 q 611 82 679 155 q 419 -7 543 9 l 401 -62 q 467 -110 440 -76 q 493 -178 493 -143 q 459 -264 493 -233 q 375 -296 425 -296 q 257 -261 315 -296 l 282 -208 q 346 -225 311 -225 q 385 -212 371 -225 q 399 -175 399 -199 q 380 -133 399 -150 q 319 -104 361 -117 l 311 -75 l 355 -12 l 346 -12 q 49 57 212 -12 l 89 178 q 235 128 180 142 q 346 114 289 114 q 488 156 436 114 q 541 269 541 197 q 521 346 541 315 q 453 401 501 376 q 318 449 406 425 q 127 548 184 485 q 69 718 69 611 q 158 922 69 849 q 404 994 248 994 q 648 942 522 994 l 615 819 q 401 868 489 868 q 260 833 313 868 q 208 737 208 799 q 227 663 208 692 q 290 610 245 633 q 415 562 335 586 q 618 453 558 521 q 679 271 679 386 z "},"ş":{"ha":601,"x_min":43,"x_max":549,"o":"m 549 203 q 494 60 549 117 q 343 -8 439 4 l 325 -62 q 390 -110 363 -76 q 416 -178 416 -143 q 382 -264 416 -233 q 298 -296 349 -296 q 180 -261 239 -296 l 205 -208 q 269 -225 235 -225 q 308 -212 294 -225 q 322 -175 322 -199 q 303 -133 322 -150 q 243 -104 285 -117 l 235 -75 l 279 -12 q 43 41 156 -11 l 83 154 q 195 115 150 126 q 285 103 240 103 q 383 128 349 103 q 418 200 418 153 q 398 251 418 231 q 351 282 379 271 q 269 310 322 293 q 164 352 205 331 q 95 414 123 372 q 66 524 66 456 q 138 671 66 616 q 329 726 210 726 q 532 681 416 726 l 497 572 q 329 612 395 612 q 233 589 268 612 q 197 525 197 566 q 229 466 197 486 q 322 427 260 446 q 440 383 396 403 q 516 319 484 363 q 549 203 549 275 z "},"Š":{"ha":733,"x_min":49,"x_max":679,"o":"m 175 1257 l 227 1304 l 385 1182 l 545 1304 l 596 1257 l 411 1071 l 359 1071 l 175 1257 m 404 994 q 648 942 522 995 l 615 819 q 401 868 489 868 q 260 833 313 868 q 208 737 208 799 q 227 663 208 692 q 290 610 245 633 q 415 562 335 586 q 618 453 558 521 q 679 271 679 386 q 590 63 679 138 q 346 -12 501 -12 q 49 57 212 -12 l 89 178 q 235 128 180 142 q 346 114 289 114 q 488 156 436 114 q 541 269 541 197 q 521 346 541 315 q 453 401 501 376 q 318 449 406 425 q 127 548 184 485 q 69 718 69 611 q 158 922 69 849 q 404 994 248 994 z "},"š":{"ha":601,"x_min":43,"x_max":549,"o":"m 92 987 l 143 1035 l 301 913 l 461 1035 l 513 987 l 328 802 l 277 802 l 92 987 m 329 726 q 532 681 416 727 l 497 572 q 329 612 395 612 q 233 589 268 612 q 197 525 197 566 q 229 466 197 486 q 322 427 260 446 q 440 383 396 403 q 516 319 484 363 q 549 203 549 275 q 478 46 549 104 q 286 -12 407 -12 q 43 41 160 -12 l 83 154 q 195 115 150 126 q 285 103 240 103 q 383 128 349 103 q 418 200 418 153 q 398 251 418 231 q 351 282 379 271 q 269 310 322 293 q 164 352 205 331 q 95 414 123 372 q 66 524 66 456 q 138 671 66 616 q 329 726 210 726 z "},"Ţ":{"ha":753,"x_min":14,"x_max":739,"o":"m 410 -62 q 475 -110 449 -77 q 501 -178 501 -143 q 467 -264 501 -233 q 383 -296 433 -296 q 265 -261 323 -296 l 290 -208 q 354 -225 319 -225 q 393 -212 379 -225 q 407 -175 407 -199 q 388 -133 407 -150 q 328 -104 370 -117 l 319 -75 l 372 0 l 318 0 l 318 865 l 14 865 l 14 983 l 739 983 l 739 865 l 452 865 l 452 0 l 431 0 l 410 -62 z "},"ţ":{"ha":537,"x_min":20,"x_max":505,"o":"m 339 -62 q 404 -110 378 -77 q 431 -178 431 -143 q 397 -264 431 -233 q 313 -296 363 -296 q 195 -261 253 -296 l 220 -208 q 283 -225 249 -225 q 322 -212 309 -225 q 336 -175 336 -199 q 317 -133 336 -150 q 257 -104 298 -117 l 249 -75 l 298 -4 q 183 62 222 9 q 144 201 144 114 l 144 602 l 20 602 l 20 714 l 151 714 l 179 918 l 275 918 l 275 714 l 493 714 l 493 602 l 275 602 l 275 222 q 299 135 275 161 q 379 109 323 109 q 481 126 428 109 l 505 24 q 357 -8 425 -8 l 339 -62 z "},"Ť":{"ha":753,"x_min":14,"x_max":739,"o":"m 176 1257 l 228 1304 l 386 1182 l 546 1304 l 597 1257 l 412 1071 l 361 1071 l 176 1257 m 739 865 l 452 865 l 452 0 l 318 0 l 318 865 l 14 865 l 14 983 l 739 983 l 739 865 z "},"ť":{"ha":547,"x_min":20,"x_max":586,"o":"m 468 1071 l 586 1054 l 536 799 l 468 804 l 468 1071 m 379 109 q 481 126 428 108 l 505 24 q 355 -8 425 -8 q 198 45 252 -8 q 144 201 144 98 l 144 602 l 20 602 l 20 714 l 151 714 l 179 918 l 275 918 l 275 714 l 493 714 l 493 602 l 275 602 l 275 222 q 299 135 275 161 q 379 109 323 109 z "},"Ŧ":{"ha":753,"x_min":14,"x_max":739,"o":"m 629 452 l 452 452 l 452 0 l 318 0 l 318 452 l 140 452 l 140 570 l 318 570 l 318 865 l 14 865 l 14 983 l 739 983 l 739 865 l 452 865 l 452 570 l 629 570 l 629 452 z "},"ŧ":{"ha":537,"x_min":20,"x_max":505,"o":"m 505 24 q 355 -8 425 -8 q 198 45 252 -8 q 144 201 144 98 l 144 370 l 20 370 l 20 481 l 144 481 l 144 602 l 20 602 l 20 714 l 151 714 l 179 918 l 275 918 l 275 714 l 493 714 l 493 602 l 275 602 l 275 481 l 493 481 l 493 370 l 275 370 l 275 222 q 299 135 275 161 q 379 109 323 109 q 481 126 428 109 l 505 24 z "},"Ũ":{"ha":985,"x_min":109,"x_max":876,"o":"m 395 1267 q 458 1255 433 1267 q 511 1221 484 1243 q 552 1194 535 1202 q 591 1186 568 1186 q 633 1205 618 1186 q 648 1254 648 1223 l 737 1254 q 696 1134 737 1179 q 587 1089 656 1089 q 524 1101 549 1089 q 471 1136 500 1112 q 431 1162 447 1154 q 393 1171 415 1171 q 345 1152 363 1171 q 326 1101 326 1133 l 237 1101 q 280 1222 237 1177 q 395 1267 322 1267 m 876 330 q 775 78 876 168 q 492 -12 673 -12 q 209 77 309 -12 q 109 330 109 167 l 109 983 l 241 983 l 241 330 q 303 165 241 219 q 492 111 366 111 q 743 330 743 111 l 743 983 l 876 983 l 876 330 z "},"ũ":{"ha":819,"x_min":98,"x_max":705,"o":"m 307 997 q 371 985 346 997 q 424 951 396 974 q 464 925 448 933 q 504 917 481 917 q 546 936 530 917 q 561 985 561 954 l 650 985 q 609 864 650 909 q 500 819 568 819 q 437 831 461 819 q 383 867 412 843 q 343 893 359 885 q 306 901 328 901 q 257 883 275 901 q 239 832 239 864 l 150 832 q 192 952 150 907 q 307 997 235 997 m 229 253 q 262 139 229 175 q 367 103 294 103 q 484 132 428 103 q 575 208 539 160 l 575 714 l 705 714 l 705 0 l 600 0 l 583 98 q 342 -12 489 -13 q 160 53 222 -12 q 98 243 98 118 l 98 714 l 229 714 l 229 253 z "},"Ū":{"ha":985,"x_min":109,"x_max":876,"o":"m 283 1219 l 705 1219 l 705 1122 l 283 1122 l 283 1219 m 876 330 q 775 78 876 168 q 492 -12 673 -12 q 209 77 309 -12 q 109 330 109 167 l 109 983 l 241 983 l 241 330 q 303 165 241 219 q 492 111 366 111 q 743 330 743 111 l 743 983 l 876 983 l 876 330 z "},"ū":{"ha":819,"x_min":98,"x_max":705,"o":"m 196 950 l 618 950 l 618 852 l 196 852 l 196 950 m 229 253 q 262 139 229 175 q 367 103 294 103 q 484 132 428 103 q 575 208 539 160 l 575 714 l 705 714 l 705 0 l 600 0 l 583 98 q 342 -12 489 -13 q 160 53 222 -12 q 98 243 98 118 l 98 714 l 229 714 l 229 253 z "},"Ŭ":{"ha":985,"x_min":109,"x_max":876,"o":"m 694 1251 q 639 1117 694 1168 q 494 1065 583 1065 q 351 1117 406 1065 q 296 1251 296 1168 l 385 1251 q 414 1182 385 1208 q 494 1156 444 1156 q 574 1183 543 1156 q 606 1251 606 1210 l 694 1251 m 876 330 q 775 78 876 168 q 492 -12 673 -12 q 209 77 309 -12 q 109 330 109 167 l 109 983 l 241 983 l 241 330 q 303 165 241 219 q 492 111 366 111 q 743 330 743 111 l 743 983 l 876 983 l 876 330 z "},"ŭ":{"ha":819,"x_min":98,"x_max":705,"o":"m 607 982 q 551 847 607 899 q 407 796 496 796 q 263 847 318 796 q 208 982 208 899 l 297 982 q 327 913 297 939 q 407 886 357 886 q 487 913 456 886 q 518 982 518 940 l 607 982 m 229 253 q 262 139 229 175 q 367 103 294 103 q 484 132 428 103 q 575 208 539 160 l 575 714 l 705 714 l 705 0 l 600 0 l 583 98 q 342 -12 489 -13 q 160 53 222 -12 q 98 243 98 118 l 98 714 l 229 714 l 229 253 z "},"Ů":{"ha":985,"x_min":109,"x_max":876,"o":"m 493 1417 q 586 1392 543 1417 q 654 1326 629 1368 q 679 1238 679 1284 q 654 1148 679 1190 q 586 1083 629 1107 q 493 1059 543 1059 q 400 1083 443 1059 q 332 1148 357 1107 q 307 1238 307 1190 q 332 1326 307 1285 q 400 1392 357 1368 q 493 1417 443 1417 m 493 1325 q 431 1299 457 1325 q 404 1238 404 1274 q 431 1175 404 1202 q 493 1149 457 1149 q 555 1175 529 1149 q 581 1238 581 1202 q 555 1299 581 1274 q 493 1325 529 1325 m 876 330 q 775 78 876 168 q 492 -12 673 -12 q 209 77 309 -12 q 109 330 109 167 l 109 983 l 241 983 l 241 330 q 303 165 241 219 q 492 111 366 111 q 743 330 743 111 l 743 983 l 876 983 l 876 330 z "},"ů":{"ha":819,"x_min":98,"x_max":705,"o":"m 406 1147 q 499 1123 456 1147 q 567 1057 542 1099 q 591 968 591 1015 q 567 879 591 920 q 499 813 542 838 q 406 789 456 789 q 312 813 355 789 q 244 879 269 838 q 220 968 220 921 q 244 1057 220 1015 q 312 1123 269 1099 q 406 1147 355 1147 m 406 1055 q 343 1030 370 1055 q 317 968 317 1004 q 343 905 317 932 q 406 879 370 879 q 467 905 441 879 q 493 968 493 932 q 467 1029 493 1004 q 406 1055 441 1055 m 229 253 q 262 139 229 175 q 367 103 294 103 q 484 132 428 103 q 575 208 539 160 l 575 714 l 705 714 l 705 0 l 600 0 l 583 98 q 342 -12 489 -13 q 160 53 222 -12 q 98 243 98 118 l 98 714 l 229 714 l 229 253 z "},"Ű":{"ha":985,"x_min":109,"x_max":876,"o":"m 315 1104 l 501 1332 l 585 1246 l 367 1057 l 315 1104 m 551 1104 l 737 1332 l 821 1246 l 603 1057 l 551 1104 m 876 330 q 775 78 876 168 q 492 -12 673 -12 q 209 77 309 -12 q 109 330 109 167 l 109 983 l 241 983 l 241 330 q 303 165 241 219 q 492 111 366 111 q 743 330 743 111 l 743 983 l 876 983 l 876 330 z "},"ű":{"ha":819,"x_min":98,"x_max":733,"o":"m 228 835 l 414 1063 l 497 977 l 279 787 l 228 835 m 464 835 l 650 1063 l 733 977 l 515 787 l 464 835 m 229 253 q 262 139 229 175 q 367 103 294 103 q 484 132 428 103 q 575 208 539 160 l 575 714 l 705 714 l 705 0 l 600 0 l 583 98 q 342 -12 489 -13 q 160 53 222 -12 q 98 243 98 118 l 98 714 l 229 714 l 229 253 z "},"Ų":{"ha":985,"x_min":109,"x_max":876,"o":"m 876 330 q 840 161 876 233 q 732 46 803 89 q 653 8 709 33 q 591 -20 616 -7 q 545 -50 567 -32 q 478 -168 478 -103 q 497 -217 478 -200 q 542 -235 515 -235 q 608 -221 574 -235 l 628 -277 q 563 -304 593 -295 q 496 -313 533 -313 q 402 -280 441 -313 q 363 -183 363 -248 q 394 -91 363 -134 q 473 -20 425 -47 l 473 -12 l 461 -12 q 200 84 292 -5 q 109 330 109 174 l 109 983 l 241 983 l 241 330 q 303 165 241 219 q 492 111 366 111 q 743 330 743 111 l 743 983 l 876 983 l 876 330 z "},"ų":{"ha":819,"x_min":98,"x_max":705,"o":"m 437 -183 q 460 -109 437 -146 q 522 -41 482 -72 q 576 7 557 -14 q 595 53 595 28 q 583 98 595 73 q 342 -12 489 -13 q 160 53 222 -12 q 98 243 98 118 l 98 714 l 229 714 l 229 253 q 262 139 229 175 q 367 103 294 103 q 484 132 428 103 q 575 208 539 160 l 575 714 l 705 714 l 705 0 q 591 -80 629 -43 q 553 -168 553 -117 q 571 -217 553 -200 q 616 -235 590 -235 q 684 -221 648 -235 l 703 -277 q 638 -304 668 -295 q 571 -313 608 -313 q 477 -280 517 -313 q 437 -183 437 -248 z "},"Ŵ":{"ha":1364,"x_min":29,"x_max":1335,"o":"m 521 1057 l 469 1104 l 654 1291 l 705 1291 l 890 1104 l 839 1057 l 679 1179 l 521 1057 m 742 587 q 713 721 731 636 l 682 856 l 652 721 q 623 587 633 636 l 479 0 l 278 0 l 29 983 l 164 983 l 289 482 l 380 123 l 469 482 l 593 983 l 771 983 l 895 482 l 983 123 l 1075 482 l 1200 983 l 1335 983 l 1086 0 l 885 0 l 742 587 z "},"ŵ":{"ha":1104,"x_min":25,"x_max":1079,"o":"m 386 787 l 335 835 l 519 1021 l 571 1021 l 755 835 l 704 787 l 545 909 l 386 787 m 602 338 q 572 460 592 372 q 564 495 568 475 q 553 539 559 515 q 530 449 543 507 q 503 338 512 370 l 407 0 l 227 0 l 25 714 l 154 714 l 252 359 l 317 126 q 386 359 364 281 l 490 714 l 614 714 l 718 359 q 787 126 741 281 l 852 359 l 950 714 l 1079 714 l 878 0 l 697 0 l 602 338 z "},"Ŷ":{"ha":797,"x_min":7,"x_max":790,"o":"m 237 1057 l 186 1104 l 371 1291 l 422 1291 l 607 1104 l 555 1057 l 396 1179 l 237 1057 m 301 714 q 357 606 329 661 q 395 529 385 550 l 403 529 q 445 614 412 550 q 497 714 478 677 l 646 983 l 790 983 l 464 414 l 464 0 l 332 0 l 332 414 l 7 983 l 153 983 l 301 714 z "},"ŷ":{"ha":690,"x_min":14,"x_max":677,"o":"m 392 1021 l 576 835 l 525 787 l 366 909 l 207 787 l 155 835 l 340 1021 l 392 1021 m 285 0 l 14 714 l 143 714 l 235 465 l 258 401 l 347 153 l 376 240 q 406 330 383 261 q 454 465 429 399 l 547 714 l 677 714 l 281 -328 l 163 -328 l 285 0 z "},"Ÿ":{"ha":797,"x_min":7,"x_max":790,"o":"m 205 1236 l 335 1236 l 335 1107 l 205 1107 l 205 1236 m 458 1236 l 586 1236 l 586 1107 l 458 1107 l 458 1236 m 301 714 q 357 606 329 661 q 395 529 385 550 l 403 529 q 445 614 412 550 q 497 714 478 677 l 646 983 l 790 983 l 464 414 l 464 0 l 332 0 l 332 414 l 7 983 l 153 983 l 301 714 z "},"Ź":{"ha":747,"x_min":41,"x_max":704,"o":"m 332 1104 l 517 1332 l 600 1246 l 383 1057 l 332 1104 m 704 983 l 704 885 l 205 115 l 697 115 l 697 0 l 41 0 l 41 104 l 538 871 l 58 871 l 58 983 l 704 983 z "},"ź":{"ha":629,"x_min":41,"x_max":590,"o":"m 267 835 l 452 1063 l 534 977 l 318 787 l 267 835 m 575 714 l 575 625 l 205 115 l 590 115 l 590 0 l 41 0 l 41 93 l 408 599 l 61 599 l 61 714 l 575 714 z "},"Ż":{"ha":747,"x_min":41,"x_max":704,"o":"m 335 1236 l 464 1236 l 464 1107 l 335 1107 l 335 1236 m 704 983 l 704 885 l 205 115 l 697 115 l 697 0 l 41 0 l 41 104 l 538 871 l 58 871 l 58 983 l 704 983 z "},"ż":{"ha":629,"x_min":41,"x_max":590,"o":"m 269 966 l 399 966 l 399 838 l 269 838 l 269 966 m 575 714 l 575 625 l 205 115 l 590 115 l 590 0 l 41 0 l 41 93 l 408 599 l 61 599 l 61 714 l 575 714 z "},"Ž":{"ha":747,"x_min":41,"x_max":704,"o":"m 192 1257 l 243 1304 l 401 1182 l 561 1304 l 612 1257 l 428 1071 l 376 1071 l 192 1257 m 704 983 l 704 885 l 205 115 l 697 115 l 697 0 l 41 0 l 41 104 l 538 871 l 58 871 l 58 983 l 704 983 z "},"ž":{"ha":629,"x_min":41,"x_max":590,"o":"m 126 987 l 178 1035 l 336 913 l 496 1035 l 547 987 l 363 802 l 311 802 l 126 987 m 575 714 l 575 625 l 205 115 l 590 115 l 590 0 l 41 0 l 41 93 l 408 599 l 61 599 l 61 714 l 575 714 z "},"ƒ":{"ha":651,"x_min":-74,"x_max":636,"o":"m -74 -164 q 44 -61 11 -106 q 92 65 77 -16 l 189 614 l 56 614 l 74 714 l 207 714 l 218 778 q 307 951 238 889 q 482 1014 376 1014 q 636 994 557 1014 l 599 897 q 481 909 539 909 q 392 877 428 909 q 347 787 357 844 l 335 714 l 557 714 l 539 614 l 317 614 l 218 60 q 181 -67 205 -18 q 113 -157 157 -117 q -11 -244 69 -197 l -74 -164 z "},"Ǻ":{"ha":894,"x_min":20,"x_max":876,"o":"m 447 1059 q 354 1083 397 1059 q 286 1148 311 1107 q 261 1238 261 1190 q 279 1314 261 1278 q 329 1375 297 1350 l 479 1560 l 562 1474 l 490 1411 q 593 1348 553 1396 q 633 1238 633 1300 q 608 1148 633 1190 q 540 1083 583 1107 q 447 1059 497 1059 m 534 1238 q 509 1299 534 1274 q 447 1325 484 1325 q 385 1299 411 1325 q 358 1238 358 1274 q 385 1175 358 1202 q 447 1149 411 1149 q 509 1175 483 1149 q 534 1238 534 1202 m 252 285 l 154 0 l 20 0 l 358 983 l 525 983 l 876 0 l 746 0 l 644 285 l 252 285 m 292 403 l 603 403 l 449 846 l 440 846 l 292 403 z "},"ǻ":{"ha":728,"x_min":45,"x_max":632,"o":"m 364 789 q 271 813 314 789 q 203 879 228 838 q 178 968 178 921 q 196 1044 178 1008 q 245 1105 214 1080 l 396 1291 l 479 1204 l 407 1141 q 510 1078 469 1126 q 550 968 550 1031 q 525 879 550 920 q 457 813 500 838 q 364 789 414 789 m 452 968 q 426 1030 452 1004 q 364 1055 400 1055 q 302 1030 328 1055 q 275 968 275 1004 q 301 905 275 932 q 364 879 328 879 q 426 905 400 879 q 452 968 452 932 m 354 725 q 560 655 488 725 q 632 454 632 585 l 632 0 l 532 0 l 513 83 q 278 -14 408 -14 q 108 44 171 -14 q 45 199 45 102 q 137 374 45 311 q 396 437 229 437 l 501 437 l 501 457 q 345 610 496 610 q 241 596 298 610 q 125 558 183 582 l 89 664 q 221 709 151 693 q 354 725 290 725 m 404 338 q 235 302 296 338 q 175 203 175 267 q 208 128 175 154 q 301 102 241 102 q 412 126 358 102 q 501 191 467 150 l 501 338 l 404 338 z "},"Ǽ":{"ha":1316,"x_min":20,"x_max":1268,"o":"m 1039 1246 l 822 1057 l 771 1104 l 956 1332 l 1039 1246 m 682 289 l 328 289 l 161 0 l 20 0 l 587 983 l 1253 983 l 1253 871 l 814 871 l 814 572 l 1207 572 l 1207 458 l 814 458 l 814 115 l 1268 115 l 1268 0 l 682 0 l 682 289 m 682 400 l 682 901 l 392 400 l 682 400 z "},"ǽ":{"ha":1184,"x_min":46,"x_max":1132,"o":"m 800 977 l 583 787 l 532 835 l 717 1063 l 800 977 m 633 334 q 693 163 639 222 q 846 104 747 104 q 951 116 900 104 q 1065 155 1002 127 l 1107 58 q 970 6 1035 22 q 839 -11 905 -11 q 687 20 753 -11 q 579 111 621 52 q 439 16 515 49 q 281 -17 363 -17 q 110 41 174 -17 q 46 196 46 98 q 138 374 46 311 q 397 437 231 437 l 503 437 l 503 457 q 346 610 497 610 q 239 596 297 610 q 126 558 182 582 l 90 664 q 222 709 153 693 q 357 725 292 725 q 495 696 437 725 q 583 611 553 667 q 687 697 623 668 q 835 726 751 726 q 1058 636 985 726 q 1132 363 1132 546 l 1132 334 l 633 334 m 997 443 q 835 611 983 611 q 640 443 672 611 l 997 443 m 406 338 q 236 301 296 338 q 176 199 176 265 q 210 124 176 150 q 306 98 243 98 q 415 123 361 98 q 503 191 468 149 l 503 338 l 406 338 z "},"Ǿ":{"ha":1026,"x_min":66,"x_max":960,"o":"m 726 1246 l 510 1057 l 458 1104 l 643 1332 l 726 1246 m 761 932 q 908 763 857 873 q 960 496 960 652 q 844 118 960 250 q 514 -14 729 -14 q 358 7 429 -14 l 334 -52 l 216 -52 l 261 50 q 116 222 165 110 q 66 496 66 335 q 183 864 66 734 q 514 994 300 994 q 664 975 593 994 l 689 1032 l 804 1032 l 761 932 m 205 496 q 317 178 205 276 l 612 857 q 514 869 566 869 q 285 773 364 869 q 205 496 205 677 m 514 111 q 742 211 663 111 q 821 496 821 311 q 705 807 821 712 l 410 126 q 514 111 458 111 z "},"ǿ":{"ha":797,"x_min":60,"x_max":737,"o":"m 614 977 l 397 787 l 346 835 l 530 1063 l 614 977 m 631 648 q 737 358 737 553 q 648 86 737 183 q 399 -11 559 -11 q 264 11 322 -11 l 216 -72 l 87 -72 l 168 68 q 60 358 60 163 q 149 630 60 533 q 399 726 237 726 q 533 705 473 726 l 581 787 l 710 787 l 631 648 m 193 358 q 235 184 193 248 l 473 600 q 399 611 437 611 q 246 547 299 611 q 193 358 193 482 m 399 104 q 551 170 497 104 q 604 358 604 236 q 562 530 604 468 l 325 115 q 399 104 361 104 z "},"ȷ":{"ha":361,"x_min":-28,"x_max":249,"o":"m -28 -192 q 84 -22 50 -96 q 118 122 118 52 l 118 714 l 249 714 l 249 122 q 201 -66 249 22 q 47 -253 153 -155 l -28 -192 z "},"ˆ":{"ha":559,"x_min":69,"x_max":490,"o":"m 121 787 l 69 835 l 254 1021 l 306 1021 l 490 835 l 439 787 l 279 909 l 121 787 z "},"ˇ":{"ha":559,"x_min":69,"x_max":490,"o":"m 69 987 l 121 1035 l 279 913 l 439 1035 l 490 987 l 306 802 l 254 802 l 69 987 z "},"˘":{"ha":537,"x_min":69,"x_max":468,"o":"m 468 982 q 412 847 468 899 q 268 796 357 796 q 124 847 179 796 q 69 982 69 899 l 158 982 q 188 913 158 939 q 268 886 218 886 q 348 913 317 886 q 379 982 379 940 l 468 982 z "},"˙":{"ha":268,"x_min":69,"x_max":199,"o":"m 69 966 l 199 966 l 199 838 l 69 838 l 69 966 z "},"˚":{"ha":511,"x_min":69,"x_max":441,"o":"m 256 1147 q 349 1123 306 1147 q 417 1057 392 1099 q 441 968 441 1015 q 417 879 441 920 q 349 813 392 838 q 256 789 306 789 q 162 813 205 789 q 94 879 119 838 q 69 968 69 921 q 94 1057 69 1015 q 162 1123 119 1099 q 256 1147 205 1147 m 256 1055 q 193 1030 220 1055 q 167 968 167 1004 q 193 905 167 932 q 256 879 220 879 q 317 905 292 879 q 343 968 343 932 q 317 1029 343 1004 q 256 1055 292 1055 z "},"˛":{"ha":407,"x_min":69,"x_max":338,"o":"m 338 0 q 223 -80 261 -43 q 184 -168 184 -117 q 203 -217 184 -200 q 249 -235 222 -235 q 315 -221 281 -235 l 335 -277 q 270 -304 300 -295 q 203 -313 240 -313 q 109 -280 149 -313 q 69 -183 69 -248 q 110 -75 69 -127 q 207 0 150 -22 l 338 0 z "},"˜":{"ha":639,"x_min":69,"x_max":570,"o":"m 227 997 q 290 985 265 997 q 343 951 315 974 q 384 925 367 933 q 424 917 400 917 q 466 936 450 917 q 481 985 481 954 l 570 985 q 529 864 570 909 q 419 819 488 819 q 356 831 380 819 q 302 867 332 843 q 263 893 279 885 q 225 901 248 901 q 176 883 195 901 q 158 832 158 864 l 69 832 q 112 952 69 907 q 227 997 154 997 z "},"˝":{"ha":644,"x_min":69,"x_max":575,"o":"m 69 835 l 256 1063 l 339 977 l 121 787 l 69 835 m 306 835 l 492 1063 l 575 977 l 357 787 l 306 835 z "},"̃":{"ha":0,"x_min":69,"x_max":570,"o":"m 225 901 q 176 883 195 901 q 158 832 158 864 l 69 832 q 112 952 69 907 q 227 997 154 997 q 290 985 265 997 q 343 951 315 974 q 384 925 367 933 q 424 917 400 917 q 466 936 450 917 q 481 985 481 954 l 570 985 q 529 864 570 909 q 419 819 488 819 q 356 831 380 819 q 302 867 332 843 q 263 893 279 885 q 225 901 248 901 z "},"̣":{"ha":0,"x_min":69,"x_max":197,"o":"m 69 -110 l 197 -110 l 197 -229 l 69 -229 l 69 -110 z "},"̦":{"ha":0,"x_min":69,"x_max":241,"o":"m 241 -65 q 213 -174 231 -126 q 153 -298 196 -221 l 69 -298 q 97 -180 87 -233 q 111 -65 107 -127 l 241 -65 z "},"Δ":{"ha":941,"x_min":18,"x_max":925,"o":"m 378 983 l 551 983 l 925 0 l 18 0 l 378 983 m 468 846 l 200 111 l 746 111 l 468 846 z "},"Ω":{"ha":1053,"x_min":74,"x_max":979,"o":"m 288 111 q 140 295 191 184 q 89 543 89 406 q 142 784 89 682 q 293 940 195 886 q 526 994 392 994 q 760 940 661 994 q 911 784 859 886 q 964 543 964 682 q 912 296 964 407 q 764 111 861 186 l 979 111 l 979 0 l 593 0 l 593 97 q 764 278 703 161 q 825 543 825 396 q 749 797 825 710 q 526 884 672 884 q 304 797 380 884 q 228 543 228 710 q 289 279 228 396 q 460 97 350 161 l 460 0 l 74 0 l 74 111 l 288 111 z "},"μ":{"ha":836,"x_min":115,"x_max":722,"o":"m 600 98 q 358 -12 506 -13 q 222 18 275 -12 l 245 -289 l 115 -289 l 115 714 l 245 714 l 245 253 q 278 139 245 175 q 383 103 311 103 q 500 132 444 103 q 591 208 555 160 l 591 714 l 722 714 l 722 0 l 616 0 l 600 98 z "},"ऀ":{"ha":0,"x_min":69,"x_max":517,"o":"m 425 1108 q 373 1197 404 1169 q 293 1225 342 1225 q 213 1197 244 1225 q 161 1108 182 1169 l 69 1136 q 293 1322 123 1322 q 517 1136 463 1322 l 425 1108 m 297 1129 q 347 1108 326 1129 q 368 1059 368 1088 q 347 1008 368 1029 q 297 987 326 987 q 247 1008 268 987 q 227 1059 227 1029 q 247 1108 227 1088 q 297 1129 268 1129 z "},"ँ":{"ha":0,"x_min":69,"x_max":517,"o":"m 517 1202 q 293 1015 463 1015 q 69 1202 123 1015 l 161 1229 q 213 1140 182 1168 q 293 1112 244 1112 q 373 1140 342 1112 q 425 1229 404 1168 l 517 1202 m 297 1208 q 247 1229 268 1208 q 227 1279 227 1250 q 247 1329 227 1308 q 297 1350 268 1350 q 347 1329 326 1350 q 368 1279 368 1308 q 347 1229 368 1250 q 297 1208 326 1208 z "},"ं":{"ha":0,"x_min":28,"x_max":170,"o":"m 98 991 q 48 1013 69 991 q 28 1063 28 1034 q 48 1113 28 1092 q 98 1133 69 1133 q 149 1113 127 1133 q 170 1063 170 1092 q 149 1013 170 1034 q 98 991 127 991 z "},"ः":{"ha":280,"x_min":69,"x_max":211,"o":"m 140 121 q 90 142 111 121 q 69 192 69 163 q 90 242 69 221 q 140 262 111 262 q 190 242 169 262 q 211 192 211 221 q 190 142 211 163 q 140 121 169 121 m 140 524 q 90 545 111 524 q 69 595 69 566 q 90 645 69 624 q 140 665 111 665 q 190 645 169 665 q 211 595 211 624 q 190 545 211 566 q 140 524 169 524 z "},"ऄ":{"ha":1094,"x_min":22,"x_max":1120,"o":"m 940 810 l 940 0 l 822 0 l 822 436 q 686 424 758 424 q 561 440 621 424 q 607 296 607 375 q 571 162 607 219 q 471 75 534 106 q 330 45 408 45 q 154 99 236 45 q 22 253 72 153 l 107 300 q 206 189 144 231 q 330 147 268 147 q 449 190 408 147 q 490 296 490 232 q 368 465 490 395 q 241 429 307 444 l 214 528 q 365 574 313 550 q 435 629 416 599 q 453 705 453 659 q 420 785 453 760 q 332 810 387 810 q 155 770 256 810 l 122 868 q 343 916 250 916 q 506 860 443 916 q 570 708 570 804 q 557 624 570 662 q 514 553 545 586 q 686 526 589 526 q 822 542 762 526 l 822 810 l 644 810 l 644 914 l 1120 914 l 1120 810 l 940 810 m 454 1282 q 503 1206 479 1231 q 559 1169 527 1181 q 648 1147 591 1157 q 799 1106 745 1131 q 886 1035 853 1082 q 938 900 918 987 l 827 900 q 785 985 811 956 q 721 1029 759 1015 q 614 1055 682 1043 q 498 1085 544 1067 q 418 1138 453 1103 q 351 1238 382 1174 l 454 1282 z "},"अ":{"ha":1094,"x_min":22,"x_max":1120,"o":"m 940 810 l 940 0 l 822 0 l 822 436 q 686 424 758 424 q 561 440 621 424 q 607 296 607 375 q 571 162 607 219 q 471 75 534 106 q 330 45 408 45 q 154 99 236 45 q 22 253 72 153 l 107 300 q 206 189 144 231 q 330 147 268 147 q 449 190 408 147 q 490 296 490 232 q 368 465 490 395 q 241 429 307 444 l 214 528 q 365 574 313 550 q 435 629 416 599 q 453 705 453 659 q 420 785 453 760 q 332 810 387 810 q 155 770 256 810 l 122 868 q 343 916 250 916 q 506 860 443 916 q 570 708 570 804 q 557 624 570 662 q 514 553 545 586 q 686 526 589 526 q 822 542 762 526 l 822 810 l 644 810 l 644 914 l 1120 914 l 1120 810 l 940 810 z "},"आ":{"ha":1479,"x_min":24,"x_max":1504,"o":"m 1325 810 l 1325 0 l 1207 0 l 1207 810 l 900 810 l 900 0 l 782 0 l 782 436 q 646 424 717 424 q 571 429 604 424 q 608 296 608 370 q 572 162 608 219 q 473 75 536 106 q 332 45 410 45 q 156 99 237 45 q 24 253 74 153 l 109 300 q 208 189 146 231 q 332 147 269 147 q 451 190 410 147 q 492 296 492 232 q 351 475 492 404 q 201 429 292 450 l 174 528 q 325 574 273 550 q 394 629 376 599 q 412 705 412 659 q 380 785 412 760 q 292 810 347 810 q 115 770 216 810 l 82 868 q 302 916 210 916 q 466 860 402 916 q 529 708 529 804 q 516 624 529 662 q 473 553 504 586 q 646 526 549 526 q 782 542 721 526 l 782 810 l 604 810 l 604 914 l 1504 914 l 1504 810 l 1325 810 z "},"इ":{"ha":712,"x_min":-14,"x_max":726,"o":"m 249 558 q 213 547 222 558 q 203 513 203 536 q 226 450 203 474 q 286 425 249 425 q 389 433 300 425 q 492 443 467 443 q 600 405 559 443 q 640 304 640 367 q 585 138 640 199 q 436 56 529 78 l 576 -111 l 490 -183 l 301 40 l 300 40 l 300 41 q 141 69 197 44 q 86 158 86 94 q 111 233 86 203 q 174 262 135 262 q 271 231 225 262 q 366 139 317 200 q 524 292 524 160 q 504 329 524 315 q 452 343 484 343 q 359 334 428 343 q 306 327 337 331 q 267 323 275 323 q 137 385 187 323 q 86 536 86 447 q 124 631 86 600 q 232 661 161 661 l 441 661 l 441 810 l -14 810 l -14 914 l 726 914 l 726 810 l 558 810 l 558 558 l 249 558 z "},"ई":{"ha":712,"x_min":-14,"x_max":726,"o":"m 249 558 q 213 547 222 558 q 203 513 203 536 q 226 450 203 474 q 286 425 249 425 q 389 433 300 425 q 492 443 467 443 q 600 405 559 443 q 640 304 640 367 q 585 138 640 199 q 436 56 529 78 l 576 -111 l 490 -183 l 301 40 l 300 40 l 300 41 q 141 69 197 44 q 86 158 86 94 q 111 233 86 203 q 174 262 135 262 q 271 231 225 262 q 366 139 317 200 q 524 292 524 160 q 504 329 524 315 q 452 343 484 343 q 358 334 429 343 q 306 327 337 331 q 267 323 275 323 q 137 385 187 323 q 86 536 86 447 q 124 631 86 600 q 232 661 161 661 l 441 661 l 441 810 l -14 810 l -14 914 l 403 914 q 309 1122 309 1011 q 372 1267 309 1217 q 526 1318 435 1318 q 661 1289 595 1318 l 637 1192 q 529 1214 571 1214 q 425 1108 425 1214 q 542 914 425 1005 l 726 914 l 726 810 l 558 810 l 558 558 l 249 558 z "},"उ":{"ha":687,"x_min":-41,"x_max":729,"o":"m 522 810 q 557 696 557 758 q 476 530 557 597 q 572 427 538 488 q 606 296 606 367 q 569 162 606 219 q 470 75 533 106 q 329 45 407 45 q 153 99 235 45 q 21 253 71 153 l 106 300 q 205 189 143 231 q 329 147 267 147 q 448 190 407 147 q 489 296 489 232 q 370 471 489 403 q 229 429 309 446 l 204 525 q 387 592 333 553 q 440 696 440 631 q 382 810 440 762 l -41 810 l -41 914 l 729 914 l 729 810 l 522 810 z "},"ऊ":{"ha":1082,"x_min":-41,"x_max":1124,"o":"m 522 810 q 557 696 557 758 q 476 530 557 597 q 541 472 508 509 q 656 565 595 533 q 796 596 717 596 q 916 568 863 596 q 1000 488 970 539 q 1029 374 1029 436 q 993 244 1029 306 q 892 147 957 182 l 825 240 q 890 303 867 264 q 913 382 913 343 q 881 461 913 429 q 794 493 850 493 q 682 453 737 493 q 597 364 627 414 q 606 296 606 332 q 569 162 606 219 q 470 75 533 106 q 329 45 407 45 q 153 99 235 45 q 21 253 71 153 l 106 300 q 205 189 143 231 q 329 147 267 147 q 448 190 407 147 q 489 296 489 232 q 370 471 489 403 q 229 429 309 446 l 204 525 q 387 592 333 553 q 440 696 440 631 q 382 810 440 762 l -41 810 l -41 914 l 1124 914 l 1124 810 l 522 810 z "},"ऋ":{"ha":1169,"x_min":-28,"x_max":1197,"o":"m 679 503 q 762 507 733 504 q 821 521 791 510 q 857 649 823 586 q 968 711 890 711 q 1047 635 1047 711 q 1023 544 1047 587 q 949 469 999 501 l 991 355 l 994 355 l 997 342 l 1031 256 l 1017 256 q 892 235 946 256 q 839 164 839 215 q 917 92 839 92 q 1061 149 971 92 l 1108 61 q 1010 6 1065 25 q 905 -14 954 -14 q 768 38 814 -14 q 722 163 722 89 q 768 278 722 233 q 886 342 814 322 l 852 425 q 639 395 762 396 l 639 0 l 521 0 l 521 300 l 118 77 l 61 172 l 518 428 q 448 482 478 453 q 412 515 418 511 q 347 565 374 550 q 289 579 319 579 q 219 567 257 579 q 103 517 182 554 l 61 608 q 293 682 208 682 q 378 663 338 682 q 472 599 418 643 l 521 557 l 521 810 l -28 810 l -28 914 l 1197 914 l 1197 810 l 639 810 l 639 501 l 679 503 z "},"ऌ":{"ha":1018,"x_min":-14,"x_max":1043,"o":"m 864 29 l 886 -71 q 762 -91 816 -71 q 708 -163 708 -111 q 786 -235 708 -235 q 930 -178 840 -235 l 978 -265 q 879 -321 935 -301 q 775 -340 823 -340 q 637 -289 684 -340 q 591 -164 591 -237 q 634 -52 591 -96 q 746 12 676 -8 l 746 559 l 733 559 q 652 539 686 559 q 589 476 619 518 q 511 346 559 433 l 421 396 l 453 453 q 392 532 427 505 q 306 559 357 559 q 219 522 254 559 q 184 432 184 485 q 228 278 184 357 q 385 79 271 199 l 302 11 q 155 185 205 113 q 86 317 104 258 q 68 443 68 375 q 134 601 68 540 q 301 663 200 663 q 419 635 368 663 q 510 546 471 607 q 604 633 551 603 q 733 663 657 663 l 746 663 l 746 810 l -14 810 l -14 914 l 1043 914 l 1043 810 l 864 810 l 864 29 z "},"ऍ":{"ha":751,"x_min":-14,"x_max":803,"o":"m 636 810 l 636 517 q 602 399 636 453 q 505 313 567 345 l 428 389 q 494 450 471 412 q 518 529 518 488 l 518 810 l 224 810 l 224 428 q 279 304 224 336 l 539 151 q 611 78 587 123 q 636 -21 636 32 q 618 -109 636 -66 q 564 -187 600 -151 l 478 -109 q 518 -20 518 -68 q 504 32 518 8 q 464 69 490 56 l 205 214 q 131 290 157 240 q 106 400 106 340 l 106 810 l -14 810 l -14 914 l 765 914 l 765 810 l 636 810 m 803 1202 q 579 1015 749 1015 q 355 1202 410 1015 l 448 1229 q 499 1140 469 1168 q 579 1112 530 1112 q 659 1140 628 1112 q 711 1229 690 1168 l 803 1202 z "},"ऎ":{"ha":751,"x_min":-14,"x_max":765,"o":"m 636 810 l 636 517 q 602 399 636 453 q 505 313 567 345 l 428 389 q 494 450 471 412 q 518 529 518 488 l 518 810 l 224 810 l 224 428 q 279 304 224 336 l 539 151 q 611 78 587 123 q 636 -21 636 32 q 618 -109 636 -66 q 564 -187 600 -151 l 478 -109 q 518 -20 518 -68 q 504 32 518 8 q 464 69 490 56 l 205 214 q 131 290 157 240 q 106 400 106 340 l 106 810 l -14 810 l -14 914 l 765 914 l 765 810 l 636 810 m 151 1282 q 200 1206 176 1231 q 256 1169 224 1181 q 345 1147 288 1157 q 496 1106 441 1131 q 583 1035 550 1082 q 635 900 615 987 l 524 900 q 482 985 508 956 q 417 1029 456 1015 q 311 1055 379 1043 q 195 1085 241 1067 q 115 1138 150 1103 q 48 1238 79 1174 l 151 1282 z "},"ए":{"ha":751,"x_min":-14,"x_max":765,"o":"m 636 810 l 636 517 q 602 399 636 453 q 505 313 567 345 l 428 389 q 494 450 471 412 q 518 529 518 488 l 518 810 l 224 810 l 224 428 q 279 304 224 336 l 539 151 q 611 78 587 123 q 636 -21 636 32 q 618 -109 636 -66 q 564 -187 600 -151 l 478 -109 q 518 -20 518 -68 q 504 32 518 8 q 464 69 490 56 l 205 214 q 131 290 157 240 q 106 400 106 340 l 106 810 l -14 810 l -14 914 l 765 914 l 765 810 l 636 810 z "},"ऐ":{"ha":751,"x_min":-14,"x_max":765,"o":"m 636 810 l 636 517 q 602 399 636 453 q 505 313 567 345 l 428 389 q 494 450 471 412 q 518 529 518 488 l 518 810 l 224 810 l 224 428 q 279 304 224 336 l 539 151 q 611 78 587 123 q 636 -21 636 32 q 618 -109 636 -66 q 564 -187 600 -151 l 478 -109 q 518 -20 518 -68 q 504 32 518 8 q 464 69 490 56 l 205 214 q 131 290 157 240 q 106 400 106 340 l 106 810 l -14 810 l -14 914 l 765 914 l 765 810 l 636 810 m 309 1317 l 642 900 l 530 900 l 222 1255 l 309 1317 z "},"ऑ":{"ha":1479,"x_min":24,"x_max":1504,"o":"m 1325 810 l 1325 0 l 1207 0 l 1207 810 l 900 810 l 900 0 l 782 0 l 782 436 q 646 424 717 424 q 571 429 604 424 q 608 296 608 370 q 572 162 608 219 q 473 75 536 106 q 332 45 410 45 q 156 99 237 45 q 24 253 74 153 l 109 300 q 208 189 146 231 q 332 147 269 147 q 451 190 410 147 q 492 296 492 232 q 351 475 492 404 q 201 429 292 450 l 174 528 q 325 574 273 550 q 394 629 376 599 q 412 705 412 659 q 380 785 412 760 q 292 810 347 810 q 115 770 216 810 l 82 868 q 302 916 210 916 q 466 860 402 916 q 529 708 529 804 q 516 624 529 662 q 473 553 504 586 q 646 526 549 526 q 782 542 721 526 l 782 810 l 604 810 l 604 914 l 1504 914 l 1504 810 l 1325 810 m 1492 1202 q 1268 1015 1438 1015 q 1044 1202 1099 1015 l 1137 1229 q 1188 1140 1158 1168 q 1268 1112 1219 1112 q 1348 1140 1317 1112 q 1400 1229 1379 1168 l 1492 1202 z "},"ऒ":{"ha":1479,"x_min":24,"x_max":1504,"o":"m 1325 810 l 1325 0 l 1207 0 l 1207 810 l 900 810 l 900 0 l 782 0 l 782 436 q 646 424 717 424 q 571 429 604 424 q 608 296 608 370 q 572 162 608 219 q 473 75 536 106 q 332 45 410 45 q 156 99 237 45 q 24 253 74 153 l 109 300 q 208 189 146 231 q 332 147 269 147 q 451 190 410 147 q 492 296 492 232 q 351 475 492 404 q 201 429 292 450 l 174 528 q 325 574 273 550 q 394 629 376 599 q 412 705 412 659 q 380 785 412 760 q 292 810 347 810 q 115 770 216 810 l 82 868 q 302 916 210 916 q 466 860 402 916 q 529 708 529 804 q 516 624 529 662 q 473 553 504 586 q 646 526 549 526 q 782 542 721 526 l 782 810 l 604 810 l 604 914 l 1504 914 l 1504 810 l 1325 810 m 840 1282 q 889 1206 865 1231 q 945 1169 913 1181 q 1034 1147 977 1157 q 1185 1106 1131 1131 q 1272 1035 1239 1082 q 1324 900 1304 987 l 1213 900 q 1171 985 1197 956 q 1106 1029 1145 1015 q 1000 1055 1068 1043 q 884 1085 930 1067 q 804 1138 839 1103 q 737 1238 768 1174 l 840 1282 z "},"ओ":{"ha":1479,"x_min":24,"x_max":1504,"o":"m 1325 810 l 1325 0 l 1207 0 l 1207 810 l 900 810 l 900 0 l 782 0 l 782 436 q 646 424 717 424 q 571 429 604 424 q 608 296 608 370 q 572 162 608 219 q 473 75 536 106 q 332 45 410 45 q 156 99 237 45 q 24 253 74 153 l 109 300 q 208 189 146 231 q 332 147 269 147 q 451 190 410 147 q 492 296 492 232 q 351 475 492 404 q 201 429 292 450 l 174 528 q 325 574 273 550 q 394 629 376 599 q 412 705 412 659 q 380 785 412 760 q 292 810 347 810 q 115 770 216 810 l 82 868 q 302 916 210 916 q 466 860 402 916 q 529 708 529 804 q 516 624 529 662 q 473 553 504 586 q 646 526 549 526 q 782 542 721 526 l 782 810 l 604 810 l 604 914 l 1504 914 l 1504 810 l 1325 810 m 998 1317 l 1331 900 l 1219 900 l 911 1255 l 998 1317 z "},"औ":{"ha":1479,"x_min":24,"x_max":1504,"o":"m 1325 810 l 1325 0 l 1207 0 l 1207 810 l 900 810 l 900 0 l 782 0 l 782 436 q 646 424 717 424 q 571 429 604 424 q 608 296 608 370 q 572 162 608 219 q 473 75 536 106 q 332 45 410 45 q 156 99 237 45 q 24 253 74 153 l 109 300 q 208 189 146 231 q 332 147 269 147 q 451 190 410 147 q 492 296 492 232 q 351 475 492 404 q 201 429 292 450 l 174 528 q 325 574 273 550 q 394 629 376 599 q 412 705 412 659 q 380 785 412 760 q 292 810 347 810 q 115 770 216 810 l 82 868 q 302 916 210 916 q 466 860 402 916 q 529 708 529 804 q 516 624 529 662 q 473 553 504 586 q 646 526 549 526 q 782 542 721 526 l 782 810 l 604 810 l 604 914 l 1504 914 l 1504 810 l 1325 810 m 1211 900 l 789 1250 l 867 1317 l 1217 1008 l 1101 1318 l 1202 1353 l 1331 900 l 1211 900 z "},"क":{"ha":1173,"x_min":-28,"x_max":1202,"o":"m 646 585 q 739 646 688 626 q 854 665 790 665 q 982 633 925 665 q 1071 543 1039 600 q 1103 415 1103 486 q 1067 278 1103 336 q 968 188 1031 220 q 827 157 905 157 q 733 175 774 157 l 717 279 q 808 261 755 261 q 938 300 890 261 q 986 415 986 339 q 946 520 986 480 q 840 561 905 561 q 733 530 778 561 q 646 428 689 500 l 646 0 l 528 0 l 528 239 q 433 176 485 196 q 318 157 382 157 q 191 190 248 157 q 101 279 134 222 q 69 407 69 336 q 105 545 69 486 q 204 634 142 603 q 346 665 267 665 q 439 647 399 665 l 456 543 q 364 561 417 562 q 234 522 282 561 q 186 407 186 484 q 226 301 186 342 q 332 261 267 261 q 439 292 395 261 q 528 397 484 323 l 528 810 l -28 810 l -28 914 l 1202 914 l 1202 810 l 646 810 l 646 585 z "},"ख":{"ha":1261,"x_min":-28,"x_max":1286,"o":"m 1107 810 l 1107 0 l 989 0 l 989 265 q 777 184 903 184 q 649 215 706 184 q 559 300 591 245 q 528 421 528 354 q 550 525 528 478 q 612 604 572 571 q 803 664 689 664 q 895 653 853 664 l 911 549 q 822 559 871 559 q 693 525 741 559 q 644 421 644 490 q 685 325 644 361 q 790 289 725 289 q 989 408 900 289 l 989 810 l 390 810 q 464 602 464 704 q 401 415 464 482 q 224 349 338 349 q 197 350 205 349 q 360 159 260 216 q 615 102 460 102 l 643 -1 q 259 101 406 -1 q 52 410 113 204 l 115 496 q 225 454 178 454 q 318 492 286 454 q 350 604 350 530 q 326 707 350 653 q 258 810 301 761 l -28 810 l -28 914 l 1286 914 l 1286 810 l 1107 810 z "},"ग":{"ha":817,"x_min":-28,"x_max":842,"o":"m 663 810 l 663 0 l 545 0 l 545 810 l 271 810 l 271 460 q 255 292 271 342 q 200 243 240 243 q 127 278 164 243 q 66 361 90 314 q 41 439 41 408 q 66 489 41 477 q 153 501 92 501 l 153 810 l -28 810 l -28 914 l 842 914 l 842 810 l 663 810 z "},"घ":{"ha":908,"x_min":-11,"x_max":933,"o":"m 754 810 l 754 0 l 636 0 l 636 193 q 389 102 517 102 q 183 163 256 102 q 110 332 110 224 q 187 511 110 450 q 110 667 109 576 q 171 810 110 758 l -11 810 l -11 914 l 933 914 l 933 810 l 754 810 m 636 810 l 326 810 q 249 752 271 786 q 227 673 227 718 q 290 557 227 603 q 371 566 328 565 q 440 559 412 566 l 447 454 q 371 461 411 461 q 265 427 303 461 q 227 332 227 393 q 268 239 227 272 q 386 205 310 205 q 516 242 448 205 q 633 342 585 278 l 636 335 l 636 810 z "},"ङ":{"ha":876,"x_min":-28,"x_max":904,"o":"m 904 810 l 615 810 l 615 587 l 306 587 q 254 541 254 587 q 277 473 254 498 q 339 449 300 449 q 446 464 363 449 q 549 478 534 477 q 659 430 619 478 q 699 297 699 382 q 661 174 699 229 q 559 85 624 118 q 415 53 494 53 q 203 105 294 53 q 46 265 111 157 l 127 313 q 256 191 197 225 q 401 157 315 157 q 529 190 475 157 q 582 281 582 222 q 563 349 582 323 q 509 374 543 374 q 432 361 492 374 q 319 345 349 344 q 188 407 239 345 q 138 564 138 469 q 176 658 138 625 q 285 692 215 692 l 498 692 l 498 810 l -28 810 l -28 914 l 904 914 l 904 810 m 765 607 q 815 586 794 607 q 836 536 836 566 q 815 486 836 507 q 765 465 794 465 q 715 486 736 465 q 694 536 694 507 q 715 586 694 566 q 765 607 736 607 z "},"च":{"ha":909,"x_min":-28,"x_max":935,"o":"m 755 810 l 755 0 l 637 0 l 637 236 q 537 176 591 195 q 415 157 484 157 q 289 188 346 157 q 199 277 232 220 q 167 407 167 334 q 215 561 167 494 l 52 561 l 52 664 l 481 664 l 494 561 l 441 561 q 327 518 371 561 q 283 407 283 475 q 323 300 283 340 q 429 260 363 260 q 538 291 489 260 q 637 390 587 322 l 637 810 l -28 810 l -28 914 l 935 914 l 935 810 l 755 810 z "},"छ":{"ha":1031,"x_min":-14,"x_max":1035,"o":"m 806 722 q 915 642 873 701 q 956 498 956 582 q 888 282 956 378 q 705 135 821 187 q 452 83 590 83 q 200 149 290 83 q 110 330 110 214 q 131 433 110 387 q 193 510 153 479 q 132 591 153 543 q 110 693 110 639 q 143 810 110 758 l -14 810 l -14 914 l 1035 914 l 1035 810 l 806 810 l 806 722 m 285 810 q 244 755 258 786 q 231 693 231 725 q 247 608 231 644 q 293 557 264 571 q 371 566 330 565 q 410 562 391 566 l 419 457 q 371 460 402 460 q 270 424 310 460 q 231 330 231 387 q 288 224 231 262 q 450 186 346 186 q 644 225 555 186 q 786 336 733 265 q 839 498 839 407 q 812 590 839 557 q 742 623 785 623 q 680 597 706 623 q 654 532 654 572 q 721 422 654 472 l 659 359 q 570 439 600 390 q 539 543 539 488 q 581 664 539 614 q 688 728 623 714 l 688 810 l 285 810 z "},"ज":{"ha":1071,"x_min":-28,"x_max":1096,"o":"m 917 810 l 917 0 l 799 0 l 799 557 l 543 557 q 619 458 595 505 q 643 363 643 411 q 579 213 643 270 q 411 155 515 155 q 187 267 269 155 q 57 603 104 378 l 165 628 q 261 347 204 435 q 414 258 318 258 q 494 287 464 258 q 524 363 524 315 q 493 450 524 403 q 397 557 463 497 l 433 660 l 799 660 l 799 810 l -28 810 l -28 914 l 1096 914 l 1096 810 l 917 810 z "},"झ":{"ha":1095,"x_min":-28,"x_max":1121,"o":"m 942 810 l 942 0 l 823 0 l 823 321 q 705 309 765 309 q 648 313 677 309 l 648 304 q 593 138 648 199 q 444 56 538 78 l 585 -111 l 498 -183 l 310 40 l 309 40 l 309 41 q 150 69 205 44 q 94 158 94 94 q 119 233 94 203 q 182 262 143 262 q 279 231 233 262 q 374 139 325 200 q 532 292 532 160 q 512 329 532 315 q 460 343 492 343 q 368 334 436 343 q 315 327 346 331 q 275 323 283 323 q 145 385 196 323 q 94 536 94 447 q 132 631 94 600 q 240 661 170 661 l 450 661 l 450 810 l -28 810 l -28 914 l 1121 914 l 1121 810 l 942 810 m 567 810 l 567 558 l 257 558 q 221 547 231 558 q 211 513 211 536 q 234 450 211 474 q 294 425 257 425 q 397 433 308 425 q 500 443 475 443 q 582 424 546 443 q 705 411 637 412 q 823 422 768 411 l 823 810 l 567 810 z "},"ञ":{"ha":1050,"x_min":-41,"x_max":1075,"o":"m 896 810 l 896 0 l 778 0 l 778 366 q 694 354 741 355 q 614 363 652 354 q 528 213 600 269 q 355 157 456 157 q 185 197 260 157 q 36 335 110 237 l 115 392 q 220 290 167 320 q 342 260 273 260 q 457 299 414 260 q 501 407 501 339 q 453 517 501 475 q 329 559 406 559 q 220 533 271 559 l 180 631 q 329 663 260 663 q 515 609 439 663 q 611 467 591 555 q 693 460 656 460 q 778 469 732 460 l 778 810 l -41 810 l -41 914 l 1075 914 l 1075 810 l 896 810 z "},"ट":{"ha":741,"x_min":-28,"x_max":770,"o":"m 376 561 q 240 516 288 561 q 193 387 193 472 q 225 268 193 321 q 314 186 257 215 q 443 157 371 157 q 538 169 492 157 q 643 208 585 180 l 688 117 q 443 53 585 53 q 254 96 337 53 q 124 215 171 139 q 77 387 77 290 q 158 590 77 516 q 383 664 240 664 l 485 664 l 485 810 l -28 810 l -28 914 l 770 914 l 770 810 l 602 810 l 602 561 l 376 561 z "},"ठ":{"ha":802,"x_min":-41,"x_max":844,"o":"m 587 642 q 699 516 658 587 q 741 359 741 444 q 698 198 741 268 q 579 91 656 129 q 401 53 503 53 q 227 93 304 53 q 106 201 150 132 q 62 359 62 271 q 162 590 62 516 q 471 664 261 664 l 471 810 l -41 810 l -41 914 l 844 914 l 844 810 l 587 810 l 587 642 m 401 157 q 563 212 503 157 q 624 359 624 267 q 604 471 624 426 q 524 559 583 517 l 473 559 q 251 511 322 559 q 179 359 179 463 q 242 214 179 271 q 401 157 304 157 z "},"ड":{"ha":780,"x_min":-28,"x_max":808,"o":"m 306 587 q 254 541 254 588 q 277 473 254 498 q 339 449 300 449 q 446 464 363 449 q 549 478 534 477 q 659 430 619 478 q 699 297 699 382 q 661 174 699 229 q 559 85 624 118 q 415 53 494 53 q 203 105 294 53 q 46 265 111 157 l 127 313 q 256 191 197 225 q 401 157 315 157 q 529 190 475 157 q 582 281 582 222 q 563 349 582 323 q 509 374 543 374 q 432 361 492 374 q 319 345 349 344 q 188 407 239 345 q 138 564 138 469 q 176 658 138 625 q 285 692 215 692 l 498 692 l 498 810 l -28 810 l -28 914 l 808 914 l 808 810 l 615 810 l 615 587 l 306 587 z "},"ढ":{"ha":789,"x_min":-28,"x_max":817,"o":"m 399 557 q 249 504 304 557 q 193 359 193 450 q 238 231 193 281 q 366 164 283 180 q 338 278 338 216 q 390 403 338 357 q 530 449 441 449 q 665 400 614 449 q 715 268 715 351 q 680 157 715 205 q 580 81 644 109 q 431 54 515 54 q 245 93 325 54 q 121 200 165 131 q 77 359 77 269 q 163 581 77 503 q 406 660 249 660 l 500 660 l 500 810 l -28 810 l -28 914 l 817 914 l 817 810 l 616 810 l 616 557 l 399 557 m 525 343 q 468 321 485 343 q 452 267 452 298 q 485 160 452 212 q 570 197 539 168 q 602 268 602 227 q 579 323 602 302 q 525 343 557 343 z "},"ण":{"ha":1008,"x_min":-12,"x_max":1034,"o":"m 854 810 l 854 0 l 736 0 l 736 810 l 546 810 l 546 532 q 483 361 546 426 q 317 296 419 296 q 151 361 214 296 q 87 532 87 427 l 87 810 l -12 810 l -12 914 l 1034 914 l 1034 810 l 854 810 m 204 810 l 204 541 q 232 438 204 477 q 317 399 260 399 q 401 437 374 399 q 429 541 429 476 l 429 810 l 204 810 z "},"त":{"ha":826,"x_min":-16,"x_max":851,"o":"m 672 810 l 672 0 l 554 0 l 554 494 l 349 494 q 240 453 279 494 q 201 339 201 412 q 215 242 201 286 q 261 142 228 199 l 311 56 l 215 0 l 167 82 q 103 219 124 154 q 82 349 82 285 q 150 531 82 465 q 340 597 218 597 l 554 597 l 554 810 l -16 810 l -16 914 l 851 914 l 851 810 l 672 810 z "},"थ":{"ha":965,"x_min":65,"x_max":990,"o":"m 811 810 l 811 0 l 693 0 l 693 254 q 570 181 637 205 q 433 157 503 157 q 273 199 343 157 q 161 317 203 241 q 114 492 119 393 q 303 578 248 526 q 358 715 358 629 q 335 785 358 760 q 272 810 313 810 q 206 789 231 810 q 182 732 182 768 q 204 663 182 697 l 97 635 q 65 736 65 672 q 123 865 65 818 q 272 913 180 913 q 419 859 363 913 q 475 715 475 804 q 412 533 475 614 q 248 421 350 453 q 307 301 257 342 q 428 260 357 260 q 579 301 506 260 q 693 419 653 343 l 693 810 l 515 810 l 515 914 l 990 914 l 990 810 l 811 810 z "},"द":{"ha":722,"x_min":-41,"x_max":764,"o":"m 346 557 q 223 516 269 557 q 176 401 176 475 q 239 261 176 311 q 399 211 301 211 l 416 211 q 408 273 408 237 q 428 324 408 302 q 486 346 447 346 q 562 328 526 346 q 618 281 597 310 q 639 221 639 252 q 578 143 639 171 l 725 -66 l 628 -127 l 467 113 q 385 109 428 109 q 220 144 294 109 q 103 248 146 180 q 60 403 60 315 q 136 596 60 532 q 349 660 212 660 l 454 660 l 454 810 l -41 810 l -41 914 l 764 914 l 764 810 l 571 810 l 571 557 l 346 557 z "},"ध":{"ha":1005,"x_min":103,"x_max":1031,"o":"m 851 810 l 851 0 l 733 0 l 733 225 q 583 134 671 167 q 400 102 496 102 q 183 164 264 102 q 103 332 103 227 q 131 448 103 398 q 211 526 158 497 q 133 618 161 565 q 106 728 106 671 q 168 864 106 812 q 332 916 231 916 q 477 860 419 916 q 534 720 534 804 q 501 624 534 664 l 403 653 q 428 724 428 688 q 402 787 428 764 q 330 810 376 810 q 256 785 283 810 q 229 717 229 760 q 256 632 229 674 q 329 561 283 590 q 392 566 358 565 q 461 559 435 566 l 482 454 q 392 461 442 461 q 266 427 311 461 q 220 332 220 392 q 265 240 220 273 q 389 207 310 207 q 591 258 493 207 q 733 386 689 309 l 733 810 l 555 810 l 555 914 l 1031 914 l 1031 810 l 851 810 z "},"न":{"ha":826,"x_min":-28,"x_max":851,"o":"m 672 810 l 672 0 l 554 0 l 554 393 l 252 393 q 234 274 246 310 q 191 237 221 237 q 121 272 153 237 q 70 354 89 307 q 52 433 52 401 q 72 484 52 472 q 140 496 93 496 l 554 496 l 554 810 l -28 810 l -28 914 l 851 914 l 851 810 l 672 810 z "},"ऩ":{"ha":826,"x_min":-28,"x_max":851,"o":"m 672 810 l 672 0 l 554 0 l 554 393 l 252 393 q 234 274 246 310 q 191 237 221 237 q 121 272 153 237 q 70 354 89 307 q 52 433 52 401 q 72 484 52 472 q 140 496 93 496 l 554 496 l 554 810 l -28 810 l -28 914 l 851 914 l 851 810 l 672 810 m 193 134 q 243 113 222 134 q 264 62 264 92 q 243 13 264 33 q 193 -8 222 -8 q 143 13 164 -8 q 122 62 122 33 q 143 113 122 92 q 193 134 164 134 z "},"प":{"ha":770,"x_min":-14,"x_max":796,"o":"m 616 810 l 616 0 l 498 0 l 498 332 q 428 293 464 304 q 342 282 392 282 q 210 313 268 282 q 118 401 151 345 q 85 532 85 458 l 85 810 l -14 810 l -14 914 l 796 914 l 796 810 l 616 810 m 201 810 l 201 532 q 242 424 201 464 q 355 385 283 385 q 430 401 397 385 q 498 457 463 418 l 498 810 l 201 810 z "},"फ":{"ha":1141,"x_min":-11,"x_max":1169,"o":"m 619 586 q 823 663 701 663 q 950 631 892 663 q 1040 543 1007 600 q 1072 412 1072 486 q 1038 280 1072 337 q 940 190 1003 222 q 798 157 878 157 l 785 157 l 771 262 q 798 261 775 261 q 911 303 867 261 q 956 412 956 346 q 916 519 956 479 q 810 559 876 559 q 705 530 749 559 q 619 432 661 501 l 619 0 l 501 0 l 501 332 q 431 293 467 304 q 345 282 395 282 q 212 313 271 282 q 121 401 154 345 q 87 532 87 458 l 87 810 l -11 810 l -11 914 l 1169 914 l 1169 810 l 619 810 l 619 586 m 358 385 q 433 401 400 385 q 501 457 465 418 l 501 810 l 204 810 l 204 532 q 245 424 204 464 q 358 385 286 385 z "},"ब":{"ha":805,"x_min":-41,"x_max":831,"o":"m 652 810 l 652 0 l 533 0 l 533 244 q 436 177 488 198 q 318 157 385 157 q 191 190 248 157 q 101 279 134 222 q 69 407 69 336 q 105 545 69 486 q 204 634 142 603 q 346 665 267 665 q 439 647 399 665 l 456 543 q 364 561 417 562 q 265 542 307 561 l 471 319 q 532 404 500 349 l 533 401 l 533 810 l -41 810 l -41 914 l 831 914 l 831 810 l 652 810 m 186 407 q 226 301 186 342 q 332 261 267 261 q 407 273 373 261 l 205 489 q 186 407 186 454 z "},"भ":{"ha":1012,"x_min":43,"x_max":1038,"o":"m 859 810 l 859 0 l 741 0 l 741 393 l 440 393 q 432 319 437 343 q 415 288 427 296 q 380 279 403 279 q 311 303 347 279 q 252 364 275 328 q 228 433 228 400 q 248 487 228 471 q 315 503 268 503 l 315 717 q 294 785 315 760 q 232 810 272 810 q 177 792 199 810 q 155 741 155 774 q 169 695 155 715 q 208 663 183 675 l 154 576 q 72 645 101 602 q 43 743 43 689 q 97 867 43 819 q 231 916 151 916 q 383 864 328 916 q 439 728 439 812 l 439 496 l 741 496 l 741 810 l 562 810 l 562 914 l 1038 914 l 1038 810 l 859 810 z "},"म":{"ha":842,"x_min":-14,"x_max":867,"o":"m 688 810 l 688 0 l 570 0 l 570 393 l 272 393 q 262 297 268 328 q 246 254 257 265 q 211 243 235 243 q 133 274 171 243 q 74 350 96 306 q 52 427 52 395 q 74 481 52 467 q 147 496 97 496 l 147 810 l -14 810 l -14 914 l 867 914 l 867 810 l 688 810 m 265 810 l 265 496 l 570 496 l 570 810 l 265 810 z "},"य":{"ha":842,"x_min":-14,"x_max":867,"o":"m 688 810 l 688 0 l 570 0 l 570 221 q 361 157 471 157 q 135 246 220 157 q 40 492 50 335 q 163 564 118 518 q 208 665 208 610 q 153 810 208 743 l -14 810 l -14 914 l 867 914 l 867 810 l 688 810 m 273 810 q 323 654 323 742 q 282 527 323 587 q 171 433 240 468 q 233 308 180 355 q 361 260 286 260 q 469 286 414 260 q 570 359 524 313 l 570 810 l 273 810 z "},"र":{"ha":550,"x_min":-28,"x_max":578,"o":"m 380 810 q 454 602 454 704 q 397 423 454 489 q 237 350 340 357 l 457 43 l 363 -18 l 41 410 l 106 496 q 215 454 168 454 q 308 492 276 454 q 340 604 340 530 q 316 707 340 653 q 249 810 292 761 l -28 810 l -28 914 l 578 914 l 578 810 l 380 810 z "},"ऱ":{"ha":550,"x_min":-28,"x_max":578,"o":"m 380 810 q 454 602 454 704 q 397 423 454 489 q 237 350 340 357 l 457 43 l 363 -18 l 41 410 l 106 496 q 215 454 168 454 q 308 492 276 454 q 340 604 340 530 q 316 707 340 653 q 249 810 292 761 l -28 810 l -28 914 l 578 914 l 578 810 l 380 810 m 109 -72 q 59 -51 80 -72 q 39 -1 39 -31 q 59 48 39 28 q 109 69 80 69 q 159 48 138 69 q 180 -1 180 28 q 159 -51 180 -31 q 109 -72 138 -72 z "},"ल":{"ha":1018,"x_min":-14,"x_max":1043,"o":"m 864 810 l 864 0 l 746 0 l 746 559 l 733 559 q 652 539 686 559 q 589 476 619 518 q 511 346 559 433 l 421 396 l 453 453 q 392 532 427 505 q 306 559 357 559 q 219 522 254 559 q 184 432 184 485 q 228 278 184 357 q 385 79 271 199 l 302 11 q 155 185 205 113 q 86 317 104 258 q 68 443 68 375 q 134 601 68 540 q 301 663 200 663 q 419 635 368 663 q 510 546 471 607 q 604 633 551 603 q 733 663 657 663 l 746 663 l 746 810 l -14 810 l -14 914 l 1043 914 l 1043 810 l 864 810 z "},"ळ":{"ha":1143,"x_min":-14,"x_max":1157,"o":"m 859 661 q 1009 571 951 646 q 1067 387 1067 496 q 992 183 1067 260 q 791 106 917 106 q 657 134 725 106 q 541 211 589 163 q 447 131 499 155 q 325 106 395 106 q 197 141 254 106 q 109 239 140 176 q 77 380 77 301 q 152 587 77 509 q 351 664 227 664 q 483 630 416 664 q 599 539 550 596 q 663 615 629 587 q 741 654 697 643 l 741 810 l -14 810 l -14 914 l 1157 914 l 1157 810 l 859 810 l 859 661 m 339 210 q 448 264 400 210 q 545 443 496 318 q 455 530 505 500 q 351 559 406 559 q 272 536 309 559 q 215 471 236 513 q 193 380 193 429 q 233 256 193 302 q 339 210 272 210 m 950 387 q 910 513 950 467 q 804 559 871 559 q 695 498 743 559 q 597 294 647 437 q 690 233 640 256 q 791 210 739 210 q 870 233 834 210 q 928 298 907 257 q 950 387 950 339 z "},"ऴ":{"ha":1143,"x_min":-14,"x_max":1157,"o":"m 859 661 q 1009 571 951 646 q 1067 387 1067 496 q 992 183 1067 260 q 791 106 917 106 q 657 134 725 106 q 541 211 589 163 q 447 131 499 155 q 325 106 395 106 q 197 141 254 106 q 109 239 140 176 q 77 380 77 301 q 152 587 77 509 q 351 664 227 664 q 483 630 416 664 q 599 539 550 596 q 663 615 629 587 q 741 654 697 643 l 741 810 l -14 810 l -14 914 l 1157 914 l 1157 810 l 859 810 l 859 661 m 339 210 q 448 264 400 210 q 545 443 496 318 q 455 530 505 500 q 351 559 406 559 q 272 536 309 559 q 215 471 236 513 q 193 380 193 429 q 233 256 193 302 q 339 210 272 210 m 950 387 q 910 513 950 467 q 804 559 871 559 q 695 498 743 559 q 597 294 647 437 q 690 233 640 256 q 791 210 739 210 q 870 233 834 210 q 928 298 907 257 q 950 387 950 339 m 562 -72 q 512 -51 533 -72 q 492 -1 492 -31 q 512 48 492 28 q 562 69 533 69 q 612 48 591 69 q 633 -1 633 28 q 612 -51 633 -31 q 562 -72 591 -72 z "},"व":{"ha":805,"x_min":-41,"x_max":831,"o":"m 652 810 l 652 0 l 533 0 l 533 244 q 436 177 488 198 q 318 157 385 157 q 191 190 248 157 q 101 279 134 222 q 69 407 69 336 q 105 545 69 486 q 204 634 142 603 q 346 665 267 665 q 439 647 399 665 l 456 543 q 364 561 417 562 q 234 522 282 561 q 186 407 186 484 q 226 301 186 342 q 332 261 267 261 q 441 294 395 261 q 532 404 488 326 l 533 401 l 533 810 l -41 810 l -41 914 l 831 914 l 831 810 l 652 810 z "},"श":{"ha":1093,"x_min":69,"x_max":1118,"o":"m 618 631 q 556 419 618 517 q 397 271 494 321 l 582 54 l 493 -16 l 282 236 q 241 233 254 233 q 69 351 69 233 q 98 416 69 390 q 171 441 126 441 q 244 423 208 441 q 318 366 279 404 q 455 474 408 406 q 501 633 501 542 q 459 769 501 722 q 336 817 416 817 q 255 793 285 817 q 225 728 225 770 q 252 664 225 693 q 325 621 279 635 l 286 530 q 157 608 205 551 q 109 737 109 665 q 170 869 109 819 q 332 920 231 920 q 542 843 467 920 q 618 631 618 766 m 939 810 l 939 0 l 821 0 l 821 810 l 643 810 l 643 914 l 1118 914 l 1118 810 l 939 810 z "},"ष":{"ha":760,"x_min":-28,"x_max":785,"o":"m 606 810 l 606 0 l 488 0 l 488 334 q 415 293 452 304 q 328 282 379 282 q 196 313 254 282 q 104 401 138 345 q 71 532 71 458 l 71 810 l -28 810 l -28 914 l 785 914 l 785 810 l 606 810 m 233 810 l 488 532 l 488 810 l 233 810 m 187 532 q 228 424 187 464 q 342 385 269 385 q 408 397 378 385 q 468 439 437 410 l 187 743 l 187 532 z "},"स":{"ha":1005,"x_min":-28,"x_max":1031,"o":"m 851 810 l 851 0 l 733 0 l 733 361 q 547 317 644 316 q 313 366 425 317 q 237 350 277 352 l 457 43 l 363 -18 l 41 410 l 106 496 q 215 454 168 454 q 308 492 276 454 q 340 604 340 530 q 316 707 340 653 q 249 810 292 761 l -28 810 l -28 914 l 1031 914 l 1031 810 l 851 810 m 380 810 q 454 602 454 704 q 408 436 454 502 q 547 419 473 419 q 733 461 652 419 l 733 810 l 380 810 z "},"ह":{"ha":739,"x_min":-28,"x_max":766,"o":"m 264 559 q 214 513 214 560 q 262 397 214 450 q 412 429 326 429 q 596 379 526 429 q 665 248 665 329 q 551 57 665 131 l 485 131 q 533 188 518 163 q 547 243 547 214 q 510 303 547 280 q 412 326 473 326 q 294 287 338 326 q 249 182 249 248 q 317 44 249 97 q 519 -26 385 -8 l 501 -129 q 224 -26 318 -105 q 131 182 131 53 q 182 335 131 271 q 97 536 97 428 q 135 630 97 596 q 243 664 174 664 l 453 664 l 453 810 l -28 810 l -28 914 l 766 914 l 766 810 l 570 810 l 570 559 l 264 559 z "},"ऺ":{"ha":0,"x_min":28,"x_max":146,"o":"m 28 900 l 28 1150 l 146 1114 l 146 900 l 28 900 z "},"ऻ":{"ha":423,"x_min":-4,"x_max":431,"o":"m 271 810 l 271 0 l 153 0 l 153 810 l -4 810 l -4 914 l 153 914 l 153 1118 l 271 1118 l 271 914 l 431 914 l 431 810 l 271 810 z "},"़":{"ha":0,"x_min":28,"x_max":170,"o":"m 98 -215 q 48 -194 69 -215 q 28 -144 28 -174 q 48 -95 28 -115 q 98 -74 69 -74 q 149 -95 127 -74 q 170 -144 170 -115 q 149 -194 170 -174 q 98 -215 127 -215 z "},"ऽ":{"ha":694,"x_min":37,"x_max":624,"o":"m 624 282 q 549 109 624 172 q 346 45 473 45 q 170 94 252 45 q 37 231 89 143 l 121 285 q 218 185 155 224 q 346 147 281 147 q 463 183 420 147 q 505 282 505 220 q 467 393 505 347 q 345 473 429 439 q 203 573 249 513 q 157 717 157 632 q 225 861 157 807 q 407 914 293 914 l 607 914 l 607 811 l 407 811 q 275 717 275 811 q 307 624 275 659 q 422 555 339 590 q 577 447 531 511 q 624 282 624 383 z "},"ा":{"ha":425,"x_min":-25,"x_max":450,"o":"m 271 810 l 271 0 l 153 0 l 153 810 l -25 810 l -25 914 l 450 914 l 450 810 l 271 810 z "},"ि":{"ha":423,"x_min":-25,"x_max":840,"o":"m 416 1271 q 644 1214 532 1271 q 840 1054 757 1157 l 747 994 q 589 1120 681 1071 q 427 1169 497 1169 q 281 1135 332 1169 q 229 1040 229 1100 q 253 914 229 964 l 450 914 l 450 810 l 271 810 l 271 0 l 153 0 l 153 810 l -25 810 l -25 914 l 139 914 q 111 1055 111 1004 q 191 1214 111 1157 q 416 1271 271 1271 z "},"ी":{"ha":443,"x_min":-411,"x_max":450,"o":"m 271 810 l 271 0 l 153 0 l 153 810 l -25 810 l -25 914 l 150 914 q 43 1078 102 1023 q -183 1168 -52 1168 q -266 1151 -232 1168 q -300 1090 -300 1133 q -283 1023 -300 1060 l -379 996 q -411 1116 -411 1053 q -381 1198 -411 1163 q -303 1252 -351 1234 q -203 1271 -256 1271 q -16 1236 -97 1271 q 129 1133 65 1202 q 262 914 207 1051 l 450 914 l 450 810 l 271 810 z "},"ु":{"ha":0,"x_min":28,"x_max":464,"o":"m 289 29 q 415 -15 366 29 q 464 -125 464 -58 q 411 -249 464 -203 q 267 -294 358 -294 q 133 -270 189 -294 q 28 -191 77 -245 l 93 -131 q 250 -200 151 -203 q 327 -176 296 -201 q 357 -117 357 -151 q 343 -79 357 -92 q 300 -66 329 -66 q 216 -97 254 -66 l 144 -14 q 210 18 171 6 q 289 29 249 29 z "},"ू":{"ha":0,"x_min":28,"x_max":464,"o":"m 203 -294 q 77 -251 126 -294 q 28 -140 28 -207 q 81 -17 28 -62 q 225 29 134 29 q 359 5 303 29 q 464 -75 415 -20 l 399 -135 q 241 -65 340 -63 q 165 -89 195 -64 q 135 -149 135 -114 q 149 -186 135 -174 q 192 -199 163 -199 q 275 -168 238 -199 l 347 -252 q 282 -283 321 -271 q 203 -294 243 -294 z "},"ृ":{"ha":0,"x_min":81,"x_max":467,"o":"m 467 -265 q 368 -321 424 -301 q 264 -340 313 -340 q 126 -289 172 -340 q 81 -164 81 -237 q 122 -54 81 -98 q 224 9 163 -11 q 353 29 286 29 l 375 -71 q 251 -91 304 -71 q 197 -163 197 -111 q 275 -235 197 -235 q 419 -178 330 -235 l 467 -265 z "},"ॄ":{"ha":0,"x_min":27,"x_max":353,"o":"m 353 -458 q 216 -481 287 -481 q 79 -441 130 -481 q 28 -334 28 -401 q 72 -231 28 -279 q 28 -129 27 -195 q 79 -21 28 -61 q 216 18 131 18 q 346 -18 281 18 l 326 -100 q 218 -71 261 -71 q 161 -84 184 -71 q 139 -129 139 -98 q 225 -189 139 -189 q 282 -183 243 -189 l 313 -179 l 311 -268 q 235 -275 273 -275 q 168 -269 196 -275 q 139 -334 139 -298 q 162 -377 139 -363 q 218 -392 184 -392 q 330 -376 267 -392 l 353 -458 z "},"ॅ":{"ha":0,"x_min":69,"x_max":517,"o":"m 517 1202 q 293 1015 463 1015 q 69 1202 123 1015 l 161 1229 q 213 1140 182 1168 q 293 1112 244 1112 q 373 1140 342 1112 q 425 1229 404 1168 l 517 1202 z "},"ॆ":{"ha":0,"x_min":14,"x_max":600,"o":"m 117 1282 q 165 1206 142 1231 q 221 1169 189 1181 q 310 1147 253 1157 q 461 1106 407 1131 q 548 1035 515 1082 q 600 900 581 987 l 489 900 q 447 985 473 956 q 383 1029 421 1015 q 277 1055 345 1043 q 161 1085 206 1067 q 80 1138 115 1103 q 14 1238 45 1174 l 117 1282 z "},"े":{"ha":0,"x_min":28,"x_max":447,"o":"m 114 1317 l 447 900 l 335 900 l 28 1255 l 114 1317 z "},"ै":{"ha":0,"x_min":36,"x_max":578,"o":"m 458 900 l 36 1250 l 114 1317 l 464 1008 l 349 1318 l 449 1353 l 578 900 l 458 900 z "},"ॉ":{"ha":425,"x_min":-25,"x_max":450,"o":"m 271 810 l 271 0 l 153 0 l 153 810 l -25 810 l -25 914 l 450 914 l 450 810 l 271 810 m 437 1202 q 214 1015 383 1015 q -10 1202 44 1015 l 82 1229 q 134 1140 103 1168 q 214 1112 165 1112 q 294 1140 262 1112 q 346 1229 325 1168 l 437 1202 z "},"ॊ":{"ha":425,"x_min":-317,"x_max":450,"o":"m 271 810 l 271 0 l 153 0 l 153 810 l -25 810 l -25 914 l 450 914 l 450 810 l 271 810 m -214 1282 q -165 1206 -189 1231 q -109 1169 -141 1181 q -20 1147 -77 1157 q 131 1106 77 1131 q 218 1035 185 1082 q 270 900 250 987 l 159 900 q 117 985 143 956 q 53 1029 91 1015 q -54 1055 14 1043 q -170 1085 -124 1067 q -250 1138 -215 1103 q -317 1238 -286 1174 l -214 1282 z "},"ो":{"ha":425,"x_min":-143,"x_max":450,"o":"m 271 810 l 271 0 l 153 0 l 153 810 l -25 810 l -25 914 l 450 914 l 450 810 l 271 810 m -57 1317 l 276 900 l 164 900 l -143 1255 l -57 1317 z "},"ौ":{"ha":425,"x_min":-265,"x_max":450,"o":"m 271 810 l 271 0 l 153 0 l 153 810 l -25 810 l -25 914 l 450 914 l 450 810 l 271 810 m 157 900 l -265 1250 l -187 1317 l 163 1008 l 47 1318 l 148 1353 l 277 900 l 157 900 z "},"्":{"ha":0,"x_min":46,"x_max":364,"o":"m 46 -114 l 132 -43 l 364 -313 l 304 -370 l 46 -114 z "},"ॎ":{"ha":425,"x_min":153,"x_max":450,"o":"m 271 810 l 271 0 l 153 0 l 153 914 l 450 914 l 450 810 l 271 810 z "},"ॏ":{"ha":423,"x_min":-379,"x_max":450,"o":"m 271 810 l 271 0 l 153 0 l 153 810 l -25 810 l -25 914 l 157 914 q 94 966 126 951 q 14 981 61 981 q -71 974 -16 981 q -118 969 -89 972 q -160 966 -147 966 q -274 989 -224 966 q -379 1071 -323 1013 l -293 1145 q -220 1084 -252 1102 q -149 1065 -189 1067 l 93 1065 q 35 1095 69 1085 q -57 1117 1 1105 q -173 1146 -127 1129 q -254 1199 -218 1164 q -319 1299 -289 1235 l -216 1343 q -168 1266 -191 1291 q -113 1230 -144 1242 q -24 1208 -81 1218 q 192 1111 125 1182 q 265 914 260 1040 l 450 914 l 450 810 l 271 810 z "},"ॐ":{"ha":1371,"x_min":37,"x_max":1301,"o":"m 903 942 q 853 963 873 942 q 832 1013 832 983 q 853 1062 832 1042 q 903 1083 873 1083 q 953 1062 932 1083 q 974 1013 974 1042 q 953 963 974 983 q 903 942 932 942 m 899 749 q 675 935 729 749 l 766 962 q 819 873 787 901 q 899 846 850 846 q 979 873 947 846 q 1031 962 1010 901 l 1122 935 q 899 749 1068 749 m 1050 663 q 1233 597 1165 663 q 1301 425 1301 532 q 1235 251 1301 318 q 1057 184 1169 184 q 911 219 971 184 q 811 321 851 254 l 897 385 q 965 311 926 334 q 1057 288 1004 288 q 1150 323 1116 288 q 1185 425 1185 359 q 1149 525 1185 490 q 1050 559 1114 559 q 962 539 1000 559 q 875 476 925 518 q 773 405 819 429 q 661 380 728 380 q 606 386 632 380 q 623 296 623 345 q 586 162 623 219 q 487 75 550 106 q 346 45 424 45 q 170 99 252 45 q 37 253 87 153 l 122 300 q 221 189 159 231 q 346 147 283 147 q 465 190 424 147 q 505 296 505 232 q 366 475 505 404 q 215 429 304 450 l 187 528 q 338 574 287 550 q 408 629 390 599 q 427 705 427 659 q 394 785 427 760 q 306 810 361 810 q 129 770 231 810 l 96 868 q 317 916 223 916 q 480 860 416 916 q 543 708 543 804 q 531 623 543 661 q 486 551 518 585 q 584 500 543 517 q 657 484 624 484 q 733 502 700 484 q 815 561 766 521 q 923 636 872 610 q 1050 663 974 663 z "},"॑":{"ha":0,"x_min":28,"x_max":132,"o":"m 28 985 l 28 1333 l 132 1333 l 132 985 l 28 985 z "},"॒":{"ha":0,"x_min":28,"x_max":564,"o":"m 564 -233 l 28 -233 l 28 -136 l 564 -136 l 564 -233 z "},"॓":{"ha":0,"x_min":28,"x_max":351,"o":"m 114 1317 l 351 1019 l 275 970 l 28 1255 l 114 1317 z "},"॔":{"ha":0,"x_min":28,"x_max":351,"o":"m 265 1315 l 351 1254 l 104 968 l 28 1018 l 265 1315 z "},"ॕ":{"ha":0,"x_min":69,"x_max":605,"o":"m 605 985 l 69 985 l 69 1082 l 605 1082 l 605 985 m 558 1306 q 334 1120 504 1120 q 111 1306 165 1120 l 203 1333 q 255 1244 224 1272 q 334 1217 286 1217 q 414 1244 383 1217 q 467 1333 446 1272 l 558 1306 z "},"ॖ":{"ha":0,"x_min":69,"x_max":561,"o":"m 561 -77 q 468 -215 532 -167 q 315 -262 404 -262 q 162 -215 227 -262 q 69 -77 98 -167 l 171 -49 q 229 -136 192 -106 q 315 -165 267 -165 q 401 -136 364 -165 q 460 -49 439 -106 l 561 -77 z "},"ॗ":{"ha":0,"x_min":69,"x_max":561,"o":"m 561 -270 q 468 -408 532 -360 q 315 -456 404 -456 q 162 -408 227 -456 q 69 -270 98 -360 l 171 -242 q 229 -329 192 -299 q 315 -359 267 -359 q 401 -329 364 -359 q 460 -242 439 -299 l 561 -270 m 561 -63 q 468 -201 532 -153 q 315 -249 404 -249 q 162 -201 227 -249 q 69 -63 98 -153 l 171 -35 q 229 -122 192 -92 q 315 -152 267 -152 q 401 -122 364 -152 q 460 -35 439 -92 l 561 -63 z "},"क़":{"ha":1173,"x_min":-28,"x_max":1202,"o":"m 646 585 q 739 646 688 626 q 854 665 790 665 q 982 633 925 665 q 1071 543 1039 600 q 1103 415 1103 486 q 1067 278 1103 336 q 968 188 1031 220 q 827 157 905 157 q 733 175 774 157 l 717 279 q 808 261 755 261 q 938 300 890 261 q 986 415 986 339 q 946 520 986 480 q 840 561 905 561 q 733 530 778 561 q 646 428 689 500 l 646 0 l 528 0 l 528 239 q 433 176 485 196 q 318 157 382 157 q 191 190 248 157 q 101 279 134 222 q 69 407 69 336 q 105 545 69 486 q 204 634 142 603 q 346 665 267 665 q 439 647 399 665 l 456 543 q 364 561 417 562 q 234 522 282 561 q 186 407 186 484 q 226 301 186 342 q 332 261 267 261 q 439 292 395 261 q 528 397 484 323 l 528 810 l -28 810 l -28 914 l 1202 914 l 1202 810 l 646 810 l 646 585 m 319 -72 q 270 -51 290 -72 q 249 -1 249 -31 q 270 48 249 28 q 319 69 290 69 q 370 48 349 69 q 391 -1 391 28 q 370 -51 391 -31 q 319 -72 349 -72 z "},"ख़":{"ha":1261,"x_min":-28,"x_max":1286,"o":"m 1107 810 l 1107 0 l 989 0 l 989 265 q 777 184 903 184 q 649 215 706 184 q 559 300 591 245 q 528 421 528 354 q 550 525 528 478 q 612 604 572 571 q 803 664 689 664 q 895 653 853 664 l 911 549 q 822 559 871 559 q 693 525 741 559 q 644 421 644 490 q 685 325 644 361 q 790 289 725 289 q 989 408 900 289 l 989 810 l 390 810 q 464 602 464 704 q 401 415 464 482 q 224 349 338 349 q 197 350 205 349 q 360 159 260 216 q 615 102 460 102 l 643 -1 q 259 101 406 -1 q 52 410 113 204 l 115 496 q 225 454 178 454 q 318 492 286 454 q 350 604 350 530 q 326 707 350 653 q 258 810 301 761 l -28 810 l -28 914 l 1286 914 l 1286 810 l 1107 810 m 247 -141 q 197 -120 218 -141 q 176 -71 176 -100 q 197 -21 176 -41 q 247 0 218 0 q 297 -21 276 0 q 318 -71 318 -41 q 297 -120 318 -100 q 247 -141 276 -141 z "},"ग़":{"ha":817,"x_min":-28,"x_max":842,"o":"m 663 810 l 663 0 l 545 0 l 545 810 l 271 810 l 271 460 q 255 292 271 342 q 200 243 240 243 q 127 278 164 243 q 66 361 90 314 q 41 439 41 408 q 66 489 41 477 q 153 501 92 501 l 153 810 l -28 810 l -28 914 l 842 914 l 842 810 l 663 810 m 204 -3 q 154 18 175 -3 q 134 68 134 39 q 154 118 134 97 q 204 138 175 138 q 254 118 233 138 q 275 68 275 97 q 254 18 275 39 q 204 -3 233 -3 z "},"ज़":{"ha":1071,"x_min":-28,"x_max":1096,"o":"m 917 810 l 917 0 l 799 0 l 799 557 l 543 557 q 619 458 595 505 q 643 363 643 411 q 579 213 643 270 q 411 155 515 155 q 187 267 269 155 q 57 603 104 378 l 165 628 q 261 347 204 435 q 414 258 318 258 q 494 287 464 258 q 524 363 524 315 q 493 450 524 403 q 397 557 463 497 l 433 660 l 799 660 l 799 810 l -28 810 l -28 914 l 1096 914 l 1096 810 l 917 810 m 420 -72 q 371 -51 391 -72 q 350 -1 350 -31 q 371 48 350 28 q 420 69 391 69 q 471 48 450 69 q 492 -1 492 28 q 471 -51 492 -31 q 420 -72 450 -72 z "},"ड़":{"ha":780,"x_min":-28,"x_max":836,"o":"m 306 587 q 254 541 254 588 q 277 473 254 498 q 339 449 300 449 q 446 464 363 449 q 549 478 534 477 q 659 430 619 478 q 699 297 699 382 q 661 174 699 229 q 559 85 624 118 q 415 53 494 53 q 203 105 294 53 q 46 265 111 157 l 127 313 q 256 191 197 225 q 401 157 315 157 q 529 190 475 157 q 582 281 582 222 q 563 349 582 323 q 509 374 543 374 q 432 361 492 374 q 319 345 349 344 q 188 407 239 345 q 138 564 138 469 q 176 658 138 625 q 285 692 215 692 l 498 692 l 498 810 l -28 810 l -28 914 l 808 914 l 808 810 l 615 810 l 615 587 l 306 587 m 765 466 q 715 487 736 466 q 694 536 694 507 q 715 586 694 566 q 765 607 736 607 q 815 586 794 607 q 836 536 836 566 q 815 487 836 507 q 765 466 794 466 z "},"ढ़":{"ha":789,"x_min":-28,"x_max":817,"o":"m 399 557 q 249 504 304 557 q 193 359 193 450 q 238 231 193 281 q 366 164 283 180 q 338 278 338 216 q 390 403 338 357 q 530 449 441 449 q 665 400 614 449 q 715 268 715 351 q 680 157 715 205 q 580 81 644 109 q 431 54 515 54 q 245 93 325 54 q 121 200 165 131 q 77 359 77 269 q 163 581 77 503 q 406 660 249 660 l 500 660 l 500 810 l -28 810 l -28 914 l 817 914 l 817 810 l 616 810 l 616 557 l 399 557 m 525 343 q 468 321 485 343 q 452 267 452 298 q 485 160 452 212 q 570 197 539 168 q 602 268 602 227 q 579 323 602 302 q 525 343 557 343 m 430 -215 q 380 -194 401 -215 q 359 -144 359 -174 q 380 -95 359 -115 q 430 -74 401 -74 q 480 -95 459 -74 q 501 -144 501 -115 q 480 -194 501 -174 q 430 -215 459 -215 z "},"फ़":{"ha":1141,"x_min":-11,"x_max":1169,"o":"m 619 586 q 823 663 701 663 q 950 631 892 663 q 1040 543 1007 600 q 1072 412 1072 486 q 1038 280 1072 337 q 940 190 1003 222 q 798 157 878 157 l 785 157 l 771 262 q 798 261 775 261 q 911 303 867 261 q 956 412 956 346 q 916 519 956 479 q 810 559 876 559 q 705 530 749 559 q 619 432 661 501 l 619 0 l 501 0 l 501 332 q 431 293 467 304 q 345 282 395 282 q 212 313 271 282 q 121 401 154 345 q 87 532 87 458 l 87 810 l -11 810 l -11 914 l 1169 914 l 1169 810 l 619 810 l 619 586 m 358 385 q 433 401 400 385 q 501 457 465 418 l 501 810 l 204 810 l 204 532 q 245 424 204 464 q 358 385 286 385 m 300 29 q 250 50 271 29 q 229 100 229 71 q 250 150 229 129 q 300 170 271 170 q 350 150 329 170 q 371 100 371 129 q 350 50 371 71 q 300 29 329 29 z "},"य़":{"ha":842,"x_min":-14,"x_max":867,"o":"m 688 810 l 688 0 l 570 0 l 570 221 q 361 157 471 157 q 135 246 220 157 q 40 492 50 335 q 163 564 118 518 q 208 665 208 610 q 153 810 208 743 l -14 810 l -14 914 l 867 914 l 867 810 l 688 810 m 273 810 q 323 654 323 742 q 282 527 323 587 q 171 433 240 468 q 233 308 180 355 q 361 260 286 260 q 469 286 414 260 q 570 359 524 313 l 570 810 l 273 810 m 175 -40 q 125 -19 146 -40 q 104 31 104 1 q 125 80 104 60 q 175 101 146 101 q 225 80 204 101 q 246 31 246 60 q 225 -19 246 1 q 175 -40 204 -40 z "},"ॠ":{"ha":1168,"x_min":-28,"x_max":1196,"o":"m 676 503 q 758 508 726 504 q 821 521 790 511 q 857 649 823 586 q 968 711 890 711 q 1047 635 1047 711 q 1019 541 1047 586 q 936 461 991 496 q 991 355 953 403 q 1084 322 1036 350 l 1065 240 q 957 269 1000 269 q 900 255 922 269 q 878 211 878 241 q 964 151 878 151 q 1021 157 982 151 l 1051 161 l 1050 72 q 974 65 1011 65 q 907 71 935 65 q 878 7 878 41 q 901 -37 878 -22 q 957 -52 924 -52 q 1069 -36 1006 -52 l 1092 -118 q 956 -140 1027 -140 q 818 -101 869 -140 q 766 7 766 -61 q 811 110 766 61 q 766 211 766 146 q 794 295 766 260 q 873 347 822 330 q 836 419 850 379 q 639 395 746 395 l 639 0 l 521 0 l 521 300 l 118 77 l 61 172 l 518 428 q 448 482 478 453 q 412 515 418 511 q 347 565 374 550 q 289 579 319 579 q 219 567 257 579 q 103 517 182 554 l 61 608 q 293 682 208 682 q 378 663 338 682 q 472 599 418 643 l 521 557 l 521 810 l -28 810 l -28 914 l 1196 914 l 1196 810 l 639 810 l 639 501 l 676 503 z "},"ॡ":{"ha":1018,"x_min":-14,"x_max":1043,"o":"m 864 9 q 930 -18 890 3 l 911 -100 q 803 -71 846 -71 q 746 -84 768 -71 q 724 -129 724 -98 q 810 -189 724 -189 q 867 -183 828 -189 l 897 -179 l 896 -268 q 819 -275 857 -275 q 753 -269 781 -275 q 724 -334 724 -298 q 747 -377 724 -363 q 803 -392 770 -392 q 916 -376 852 -392 l 937 -458 q 802 -481 872 -481 q 664 -441 715 -481 q 612 -334 612 -401 q 657 -231 612 -279 q 612 -129 612 -195 q 648 -36 612 -73 q 746 12 684 1 l 746 559 l 733 559 q 652 539 686 559 q 589 476 619 518 q 511 346 559 433 l 421 396 l 453 453 q 392 532 427 505 q 306 559 357 559 q 219 522 254 559 q 184 432 184 485 q 228 278 184 357 q 385 79 271 199 l 302 11 q 155 185 205 113 q 86 317 104 258 q 68 443 68 375 q 134 601 68 540 q 301 663 200 663 q 419 635 368 663 q 510 546 471 607 q 604 633 551 603 q 733 663 657 663 l 746 663 l 746 810 l -14 810 l -14 914 l 1043 914 l 1043 810 l 864 810 l 864 9 z "},"ॢ":{"ha":0,"x_min":28,"x_max":663,"o":"m 663 -353 q 559 -374 612 -374 q 452 -341 493 -374 q 411 -250 411 -309 q 427 -179 411 -204 q 473 -129 443 -154 q 509 -92 497 -109 q 521 -49 521 -75 q 506 -14 521 -26 q 465 -1 492 -1 q 404 -32 427 -1 q 380 -114 380 -62 l 271 -114 q 252 -32 271 -62 q 203 -1 233 -1 q 152 -21 170 -1 q 135 -79 135 -41 q 205 -296 135 -174 l 110 -340 q 28 -71 28 -176 q 72 47 28 6 q 200 87 117 87 q 325 20 281 87 q 473 86 375 86 q 585 47 543 86 q 628 -53 628 8 q 608 -130 628 -103 q 554 -183 589 -157 q 519 -213 530 -200 q 509 -244 509 -227 q 527 -276 509 -264 q 574 -288 546 -288 q 642 -273 604 -288 l 663 -353 z "},"ॣ":{"ha":0,"x_min":28,"x_max":660,"o":"m 660 -421 q 553 -440 595 -440 q 455 -413 492 -440 q 419 -340 419 -386 q 453 -269 419 -303 q 419 -201 420 -247 q 432 -153 419 -171 q 472 -115 446 -135 q 506 -84 494 -98 q 518 -47 518 -71 q 504 -15 518 -26 q 465 -3 490 -3 q 402 -33 425 -3 q 379 -115 379 -64 l 273 -115 q 255 -33 273 -64 q 204 -3 236 -3 q 136 -81 136 -3 q 207 -297 136 -175 l 110 -342 q 28 -72 28 -178 q 73 45 28 5 q 201 86 118 86 q 325 21 282 86 q 469 86 371 86 q 583 48 541 86 q 625 -52 625 9 q 605 -120 625 -96 q 550 -167 585 -144 q 524 -187 532 -179 q 515 -204 515 -195 q 566 -229 515 -229 q 608 -227 575 -229 l 614 -293 q 559 -297 587 -297 l 536 -296 q 515 -335 515 -317 q 527 -356 515 -349 q 558 -363 539 -363 q 639 -346 591 -363 l 660 -421 z "},"।":{"ha":423,"x_min":153,"x_max":271,"o":"m 153 -66 l 153 956 l 271 956 l 271 -66 l 153 -66 z "},"॥":{"ha":687,"x_min":153,"x_max":534,"o":"m 153 -66 l 153 956 l 271 956 l 271 -66 l 153 -66 m 416 -66 l 416 956 l 534 956 l 534 -66 l 416 -66 z "},"०":{"ha":736,"x_min":57,"x_max":677,"o":"m 368 160 q 211 201 282 160 q 99 314 140 243 q 57 467 57 385 q 98 620 57 550 q 211 732 139 690 q 368 774 282 774 q 525 732 453 774 q 637 620 596 690 q 677 467 677 550 q 636 314 677 385 q 524 201 595 243 q 368 160 453 160 m 368 262 q 463 290 418 262 q 535 365 509 318 q 561 467 561 412 q 535 569 561 522 q 464 643 509 615 q 368 671 419 671 q 272 643 317 671 q 200 569 227 615 q 174 467 174 522 q 200 365 174 411 q 272 290 227 318 q 368 262 317 262 z "},"१":{"ha":736,"x_min":102,"x_max":599,"o":"m 239 519 q 139 602 176 549 q 102 717 102 654 q 168 867 102 814 q 343 921 235 921 q 460 892 408 921 q 542 814 513 864 q 571 703 571 765 q 514 539 571 631 q 364 371 457 447 l 505 269 q 578 192 557 232 q 599 100 599 151 q 582 -21 599 58 l 471 18 q 484 93 483 71 q 468 151 484 125 q 419 200 453 176 l 195 363 l 359 521 q 426 608 399 558 q 454 703 453 657 q 421 785 454 751 q 336 818 389 818 q 250 791 282 818 q 218 717 218 764 q 300 611 218 642 l 239 519 z "},"२":{"ha":736,"x_min":61,"x_max":628,"o":"m 628 636 q 561 451 628 532 q 387 345 493 371 l 597 0 l 498 -54 l 264 336 q 129 369 172 340 q 86 453 86 397 q 193 543 86 543 q 264 521 235 543 q 328 444 294 498 q 460 515 408 463 q 511 636 511 568 q 458 771 511 724 q 306 818 404 818 q 92 771 214 818 l 61 872 q 311 925 189 925 q 543 847 457 925 q 628 636 628 770 z "},"३":{"ha":736,"x_min":66,"x_max":625,"o":"m 625 376 q 574 233 625 289 q 424 158 522 178 l 574 -9 l 488 -82 l 279 153 l 275 153 q 122 184 177 153 q 66 273 66 216 q 90 335 66 313 q 158 357 114 357 q 255 333 212 357 q 340 253 297 310 q 460 292 417 258 q 503 376 503 325 q 481 448 503 415 q 415 509 460 481 q 235 478 336 482 l 205 582 q 412 635 351 597 q 472 736 472 673 q 338 821 472 821 q 126 778 239 821 l 96 878 q 340 925 214 925 q 529 877 463 925 q 595 739 595 829 q 519 567 595 631 q 598 479 571 528 q 625 376 625 431 z "},"४":{"ha":736,"x_min":57,"x_max":679,"o":"m 679 869 q 660 741 677 787 q 590 647 642 694 l 449 515 l 486 481 q 576 374 554 413 q 599 285 599 335 q 568 186 599 231 q 485 117 538 142 q 368 92 432 92 q 252 117 304 92 q 168 186 199 142 q 138 285 138 231 q 160 374 138 335 q 250 481 182 412 l 288 515 l 146 647 q 76 741 94 694 q 57 869 58 787 l 57 920 l 174 905 l 174 867 q 184 782 174 811 q 224 725 195 753 l 368 590 l 513 725 q 552 782 542 753 q 562 867 562 811 l 562 905 l 679 920 l 679 869 m 334 407 q 271 339 288 366 q 254 285 254 313 q 288 221 254 248 q 368 195 321 195 q 449 221 416 195 q 482 285 482 248 q 466 339 482 313 q 403 407 449 366 l 368 439 l 334 407 z "},"५":{"ha":736,"x_min":24,"x_max":733,"o":"m 465 358 q 330 335 403 334 q 176 367 245 335 q 65 459 106 399 q 24 603 24 519 q 75 785 24 693 q 216 946 126 878 l 298 875 q 183 746 224 818 q 142 607 142 675 q 192 483 142 529 q 325 437 243 437 q 421 456 371 437 q 396 521 403 497 q 390 570 390 545 q 411 622 390 603 q 468 642 432 642 q 542 624 507 642 q 599 578 578 607 q 621 517 621 549 q 570 418 621 465 l 733 53 l 632 0 l 465 358 z "},"६":{"ha":736,"x_min":84,"x_max":741,"o":"m 469 126 q 424 123 433 123 q 178 187 258 123 q 97 378 97 250 q 187 550 97 485 q 85 732 84 614 q 146 874 85 826 q 328 922 208 922 q 529 892 404 922 l 509 791 q 336 819 410 819 q 235 795 269 819 q 201 721 201 771 q 260 622 201 653 q 450 591 318 591 l 504 591 l 518 489 l 458 489 q 325 500 389 489 q 240 444 267 476 q 214 366 214 411 q 412 227 214 227 l 421 227 q 416 269 417 248 q 441 319 418 301 q 510 336 465 336 q 606 303 564 336 q 647 227 647 269 q 589 151 647 176 l 741 -40 l 653 -117 l 469 126 z "},"७":{"ha":736,"x_min":26,"x_max":701,"o":"m 475 440 q 324 516 385 456 q 264 652 264 576 q 312 778 264 732 q 444 823 359 823 q 632 732 562 823 q 701 486 701 642 q 626 245 701 334 q 422 157 551 157 q 218 226 309 157 q 77 419 127 296 q 26 700 26 543 q 57 936 26 826 l 167 892 q 143 692 143 812 q 177 468 143 567 q 273 315 211 370 q 412 260 335 260 q 538 322 492 260 q 585 490 585 385 q 551 661 585 600 q 456 721 517 721 q 380 643 380 721 q 414 579 380 610 q 493 539 447 549 l 475 440 z "},"८":{"ha":736,"x_min":111,"x_max":660,"o":"m 387 654 q 262 524 297 575 q 228 421 228 472 q 274 301 228 339 q 401 264 321 264 q 629 311 494 264 l 660 210 q 406 164 526 163 q 192 227 273 164 q 111 421 111 289 q 158 570 111 496 q 315 736 205 643 l 538 928 l 607 848 l 387 654 z "},"९":{"ha":736,"x_min":87,"x_max":628,"o":"m 510 296 q 604 181 579 224 q 628 77 628 138 q 599 -22 624 26 l 492 17 q 511 83 511 58 q 491 147 511 115 q 421 229 471 179 l 224 432 q 120 570 152 507 q 87 696 87 632 q 120 812 87 761 q 208 892 153 864 q 332 921 264 921 q 514 859 444 921 q 585 690 585 798 q 526 533 585 599 q 368 441 468 468 l 510 296 m 204 696 q 223 617 204 657 q 283 530 243 578 q 421 581 374 540 q 468 690 468 623 q 432 785 468 751 q 332 818 396 818 q 240 784 276 818 q 204 696 204 750 z "},"॰":{"ha":665,"x_min":72,"x_max":593,"o":"m 334 677 q 467 644 408 677 q 559 552 526 611 q 593 418 593 493 q 559 283 593 342 q 467 190 526 224 q 334 157 408 157 q 199 190 258 157 q 105 283 139 224 q 72 418 72 343 q 105 552 72 493 q 199 644 139 611 q 334 677 258 677 m 334 578 q 217 533 262 578 q 172 418 172 488 q 217 302 172 347 q 334 257 262 257 q 448 302 403 257 q 493 418 493 347 q 448 532 493 487 q 334 578 403 578 z "},"ॱ":{"ha":283,"x_min":83,"x_max":200,"o":"m 142 803 q 101 820 118 803 q 83 861 83 838 q 101 902 83 885 q 142 920 118 920 q 183 902 165 920 q 200 861 200 885 q 183 820 200 838 q 142 803 165 803 z "},"ॲ":{"ha":1094,"x_min":22,"x_max":1120,"o":"m 940 810 l 940 0 l 822 0 l 822 436 q 686 424 758 424 q 561 440 621 424 q 607 296 607 375 q 571 162 607 219 q 471 75 534 106 q 330 45 408 45 q 154 99 236 45 q 22 253 72 153 l 107 300 q 206 189 144 231 q 330 147 268 147 q 449 190 408 147 q 490 296 490 232 q 368 465 490 395 q 241 429 307 444 l 214 528 q 365 574 313 550 q 435 629 416 599 q 453 705 453 659 q 420 785 453 760 q 332 810 387 810 q 155 770 256 810 l 122 868 q 343 916 250 916 q 506 860 443 916 q 570 708 570 804 q 557 624 570 662 q 514 553 545 586 q 686 526 589 526 q 822 542 762 526 l 822 810 l 644 810 l 644 914 l 1120 914 l 1120 810 l 940 810 m 1105 1202 q 882 1015 1051 1015 q 658 1202 712 1015 l 750 1229 q 802 1140 771 1168 q 882 1112 833 1112 q 962 1140 930 1112 q 1014 1229 993 1168 l 1105 1202 z "},"ॳ":{"ha":1048,"x_min":37,"x_max":1074,"o":"m 914 810 l 914 0 l 796 0 l 796 436 q 660 424 731 424 q 585 429 618 424 q 623 296 622 370 q 586 162 623 219 q 487 75 550 106 q 346 45 424 45 q 170 99 252 45 q 37 253 87 153 l 122 300 q 221 189 159 231 q 346 147 283 147 q 465 190 424 147 q 505 296 505 232 q 366 475 505 404 q 215 429 306 450 l 187 528 q 338 574 287 550 q 408 629 390 599 q 427 705 427 659 q 394 785 427 760 q 306 810 361 810 q 129 770 231 810 l 96 868 q 317 916 223 916 q 480 860 416 916 q 543 708 543 804 q 531 624 543 662 q 488 553 518 586 q 660 526 563 526 q 796 542 735 526 l 796 810 l 639 810 l 639 914 l 796 914 l 796 1118 l 914 1118 l 914 914 l 1074 914 l 1074 810 l 914 810 z "},"ॴ":{"ha":1518,"x_min":22,"x_max":1525,"o":"m 1365 810 l 1365 0 l 1247 0 l 1247 810 l 940 810 l 940 0 l 822 0 l 822 436 q 686 424 758 424 q 561 440 621 424 q 607 296 607 375 q 571 162 607 219 q 471 75 534 106 q 330 45 408 45 q 154 99 236 45 q 22 253 72 153 l 107 300 q 206 189 144 231 q 330 147 268 147 q 449 190 408 147 q 490 296 490 232 q 368 465 490 395 q 241 429 307 444 l 214 528 q 365 574 313 550 q 435 629 416 599 q 453 705 453 659 q 420 785 453 760 q 332 810 387 810 q 155 770 256 810 l 122 868 q 343 916 250 916 q 506 860 443 916 q 570 708 570 804 q 557 624 570 662 q 514 553 545 586 q 686 526 589 526 q 822 542 762 526 l 822 810 l 644 810 l 644 914 l 1247 914 l 1247 1118 l 1365 1118 l 1365 914 l 1525 914 l 1525 810 l 1365 810 z "},"ॵ":{"ha":1518,"x_min":22,"x_max":1544,"o":"m 1365 810 l 1365 0 l 1247 0 l 1247 810 l 940 810 l 940 0 l 822 0 l 822 436 q 686 424 758 424 q 561 440 621 424 q 607 296 607 375 q 571 162 607 219 q 471 75 534 106 q 330 45 408 45 q 154 99 236 45 q 22 253 72 153 l 107 300 q 206 189 144 231 q 330 147 268 147 q 449 190 408 147 q 490 296 490 232 q 368 465 490 395 q 241 429 307 444 l 214 528 q 365 574 313 550 q 435 629 416 599 q 453 705 453 659 q 420 785 453 760 q 332 810 387 810 q 155 770 256 810 l 122 868 q 343 916 250 916 q 506 860 443 916 q 570 708 570 804 q 557 624 570 662 q 514 553 545 586 q 686 526 589 526 q 822 542 762 526 l 822 810 l 644 810 l 644 914 l 1251 914 q 1188 966 1221 951 q 1108 981 1156 981 q 1023 974 1079 981 q 976 969 1005 972 q 935 966 947 966 q 821 989 871 966 q 715 1071 771 1013 l 802 1145 q 874 1084 843 1102 q 946 1065 905 1067 l 1187 1065 q 1130 1095 1164 1085 q 1038 1117 1096 1105 q 922 1146 967 1129 q 841 1199 876 1164 q 775 1299 806 1235 l 878 1343 q 926 1266 903 1291 q 982 1230 950 1242 q 1071 1208 1014 1218 q 1287 1111 1219 1182 q 1360 914 1354 1040 l 1544 914 l 1544 810 l 1365 810 z "},"ॶ":{"ha":1094,"x_min":22,"x_max":1123,"o":"m 940 810 l 940 0 l 822 0 l 822 436 q 686 424 758 424 q 561 440 621 424 q 607 296 607 375 q 571 162 607 219 q 471 75 534 106 q 330 45 408 45 q 154 99 236 45 q 22 253 72 153 l 107 300 q 206 189 144 231 q 330 147 268 147 q 449 190 408 147 q 490 296 490 232 q 368 465 490 395 q 241 429 307 444 l 214 528 q 365 574 313 550 q 435 629 416 599 q 453 705 453 659 q 420 785 453 760 q 332 810 387 810 q 155 770 256 810 l 122 868 q 343 916 250 916 q 506 860 443 916 q 570 708 570 804 q 557 624 570 662 q 514 553 545 586 q 686 526 589 526 q 822 542 762 526 l 822 810 l 644 810 l 644 914 l 1120 914 l 1120 810 l 940 810 m 1123 -77 q 1030 -215 1094 -167 q 878 -262 966 -262 q 725 -215 789 -262 q 631 -77 661 -167 l 733 -49 q 791 -136 754 -106 q 878 -165 829 -165 q 964 -136 926 -165 q 1022 -49 1001 -106 l 1123 -77 z "},"ॷ":{"ha":1094,"x_min":22,"x_max":1126,"o":"m 686 424 q 561 440 621 423 q 607 296 607 375 q 571 162 607 219 q 471 75 534 106 q 330 45 408 45 q 154 99 236 45 q 22 253 72 153 l 107 300 q 206 189 144 231 q 330 147 268 147 q 449 190 408 147 q 490 296 490 232 q 368 465 490 395 q 241 429 307 444 l 214 528 q 365 574 313 550 q 435 629 416 599 q 453 705 453 659 q 420 785 453 760 q 332 810 387 810 q 155 770 256 810 l 122 868 q 343 916 250 916 q 506 860 443 916 q 570 708 570 804 q 557 624 570 662 q 514 553 545 586 q 686 526 589 526 q 822 542 762 526 l 822 810 l 644 810 l 644 914 l 1120 914 l 1120 810 l 940 810 l 940 0 l 822 0 l 822 436 q 686 424 758 424 m 880 -151 q 967 -121 929 -151 q 1025 -35 1004 -92 l 1126 -62 q 1034 -201 1097 -153 q 880 -249 970 -249 q 728 -201 791 -249 q 635 -62 664 -153 l 736 -35 q 794 -121 757 -92 q 880 -151 832 -151 m 880 -358 q 967 -328 929 -358 q 1025 -241 1004 -298 l 1126 -269 q 1034 -408 1097 -359 q 880 -456 970 -456 q 728 -408 791 -456 q 635 -269 664 -359 l 736 -241 q 794 -328 757 -298 q 880 -358 832 -358 z "},"ॹ":{"ha":1071,"x_min":-28,"x_max":1096,"o":"m 917 810 l 917 0 l 799 0 l 799 557 l 543 557 q 619 458 595 505 q 643 363 643 411 q 579 213 643 270 q 411 155 515 155 q 187 267 269 155 q 57 603 104 378 l 165 628 q 261 347 204 435 q 414 258 318 258 q 494 287 464 258 q 524 363 524 315 q 493 450 524 403 q 397 557 463 497 l 433 660 l 799 660 l 799 810 l -28 810 l -28 914 l 1096 914 l 1096 810 l 917 810 m 411 -254 q 361 -233 382 -254 q 340 -183 340 -212 q 361 -133 340 -154 q 411 -113 382 -113 q 461 -133 440 -113 q 482 -183 482 -154 q 461 -233 482 -212 q 411 -254 440 -254 m 284 -68 q 234 -47 255 -68 q 214 3 214 -26 q 234 53 214 32 q 284 73 255 73 q 334 53 313 73 q 355 3 355 32 q 334 -47 355 -26 q 284 -68 313 -68 m 534 -68 q 485 -47 505 -68 q 464 3 464 -26 q 485 53 464 32 q 534 73 505 73 q 585 53 564 73 q 606 3 606 32 q 585 -47 606 -26 q 534 -68 564 -68 z "},"ॺ":{"ha":842,"x_min":-14,"x_max":867,"o":"m 688 810 l 688 0 l 570 0 l 570 221 q 361 157 471 157 q 135 246 220 157 q 40 492 50 335 q 163 564 118 518 q 208 665 208 610 q 153 810 208 743 l -14 810 l -14 914 l 867 914 l 867 810 l 688 810 m 273 810 q 323 654 323 742 q 322 629 323 637 l 570 363 l 570 810 l 273 810 m 171 433 q 233 308 180 355 q 361 260 286 260 q 511 311 439 260 l 293 545 q 171 433 253 474 z "},"ॻ":{"ha":821,"x_min":-28,"x_max":847,"o":"m 668 810 l 668 -104 l 100 -104 l 100 0 l 550 0 l 550 810 l 271 810 l 271 460 q 255 292 271 342 q 200 243 240 243 q 127 278 164 243 q 66 361 90 314 q 41 439 41 408 q 66 489 41 477 q 153 501 92 501 l 153 810 l -28 810 l -28 914 l 847 914 l 847 810 l 668 810 z "},"ॼ":{"ha":1071,"x_min":-26,"x_max":1097,"o":"m 918 810 l 918 -104 l 131 -104 l 131 0 l 800 0 l 800 557 l 545 557 q 620 458 596 505 q 644 363 644 411 q 581 213 644 270 q 412 155 517 155 q 188 267 271 155 q 58 603 106 378 l 167 628 q 262 347 205 435 q 415 258 319 258 q 495 287 465 258 q 525 363 525 315 q 494 450 525 403 q 399 557 464 497 l 435 660 l 800 660 l 800 810 l -26 810 l -26 914 l 1097 914 l 1097 810 l 918 810 z "},"ॽ":{"ha":661,"x_min":56,"x_max":599,"o":"m 323 913 q 527 848 456 913 q 599 664 599 783 q 527 489 599 567 q 321 364 456 411 l 321 0 l 204 0 l 204 437 q 411 530 339 472 q 482 664 482 589 q 441 771 482 733 q 323 810 400 810 q 217 793 276 810 q 102 749 158 777 l 56 838 q 194 892 121 871 q 323 913 268 913 z "},"ॾ":{"ha":780,"x_min":-28,"x_max":808,"o":"m 808 810 l 615 810 l 615 587 l 306 587 q 254 541 254 587 q 277 473 254 498 q 339 449 300 449 q 446 464 363 449 q 549 478 534 477 q 659 430 619 478 q 699 297 699 382 q 661 174 699 229 q 559 85 624 118 q 415 53 494 53 q 203 105 294 53 q 46 265 111 157 l 127 313 q 256 191 197 225 q 401 157 315 157 q 529 190 475 157 q 582 281 582 222 q 563 349 582 323 q 509 374 543 374 q 432 361 492 374 q 319 345 349 344 q 188 407 239 345 q 138 564 138 469 q 176 658 138 625 q 285 692 215 692 l 498 692 l 498 810 l -28 810 l -28 914 l 808 914 l 808 810 m 715 0 l 715 -104 l 69 -104 l 69 0 l 715 0 z "},"ॿ":{"ha":801,"x_min":-14,"x_max":827,"o":"m 647 810 l 647 -104 l 100 -104 l 100 0 l 529 0 l 529 229 q 329 157 444 157 q 137 225 210 157 q 64 407 64 294 q 139 593 64 522 q 339 664 215 664 q 380 661 361 664 l 395 558 q 339 559 379 559 q 262 545 298 559 l 481 309 l 472 300 q 529 355 503 322 l 529 810 l -14 810 l -14 914 l 827 914 l 827 810 l 647 810 m 180 407 q 225 301 180 342 q 343 261 269 261 q 410 269 380 261 l 203 492 q 180 407 180 454 z "},"Ẁ":{"ha":1364,"x_min":29,"x_max":1335,"o":"m 539 1332 l 724 1104 l 672 1057 l 456 1246 l 539 1332 m 742 587 q 713 721 731 636 l 682 856 l 652 721 q 623 587 633 636 l 479 0 l 278 0 l 29 983 l 164 983 l 289 482 l 380 123 l 469 482 l 593 983 l 771 983 l 895 482 l 983 123 l 1075 482 l 1200 983 l 1335 983 l 1086 0 l 885 0 l 742 587 z "},"ẁ":{"ha":1104,"x_min":25,"x_max":1079,"o":"m 404 1063 l 589 835 l 538 787 l 321 977 l 404 1063 m 602 338 q 572 460 592 372 q 564 495 568 475 q 553 539 559 515 q 530 449 543 507 q 503 338 512 370 l 407 0 l 227 0 l 25 714 l 154 714 l 252 359 l 317 126 q 386 359 364 281 l 490 714 l 614 714 l 718 359 q 787 126 741 281 l 852 359 l 950 714 l 1079 714 l 878 0 l 697 0 l 602 338 z "},"Ẃ":{"ha":1364,"x_min":29,"x_max":1335,"o":"m 614 1104 l 799 1332 l 882 1246 l 665 1057 l 614 1104 m 742 587 q 713 721 731 636 l 682 856 l 652 721 q 623 587 633 636 l 479 0 l 278 0 l 29 983 l 164 983 l 289 482 l 380 123 l 469 482 l 593 983 l 771 983 l 895 482 l 983 123 l 1075 482 l 1200 983 l 1335 983 l 1086 0 l 885 0 l 742 587 z "},"ẃ":{"ha":1104,"x_min":25,"x_max":1079,"o":"m 479 835 l 664 1063 l 747 977 l 530 787 l 479 835 m 602 338 q 572 460 592 372 q 564 495 568 475 q 553 539 559 515 q 530 449 543 507 q 503 338 512 370 l 407 0 l 227 0 l 25 714 l 154 714 l 252 359 l 317 126 q 386 359 364 281 l 490 714 l 614 714 l 718 359 q 787 126 741 281 l 852 359 l 950 714 l 1079 714 l 878 0 l 697 0 l 602 338 z "},"Ẅ":{"ha":1364,"x_min":29,"x_max":1335,"o":"m 489 1236 l 618 1236 l 618 1107 l 489 1107 l 489 1236 m 742 1236 l 869 1236 l 869 1107 l 742 1107 l 742 1236 m 742 587 q 713 721 731 636 l 682 856 l 652 721 q 623 587 633 636 l 479 0 l 278 0 l 29 983 l 164 983 l 289 482 l 380 123 l 469 482 l 593 983 l 771 983 l 895 482 l 983 123 l 1075 482 l 1200 983 l 1335 983 l 1086 0 l 885 0 l 742 587 z "},"ẅ":{"ha":1104,"x_min":25,"x_max":1079,"o":"m 354 966 l 484 966 l 484 838 l 354 838 l 354 966 m 607 966 l 734 966 l 734 838 l 607 838 l 607 966 m 602 338 q 572 460 592 372 q 564 495 568 475 q 553 539 559 515 q 530 449 543 507 q 503 338 512 370 l 407 0 l 227 0 l 25 714 l 154 714 l 252 359 l 317 126 q 386 359 364 281 l 490 714 l 614 714 l 718 359 q 787 126 741 281 l 852 359 l 950 714 l 1079 714 l 878 0 l 697 0 l 602 338 z "},"Ỳ":{"ha":797,"x_min":7,"x_max":790,"o":"m 256 1332 l 440 1104 l 389 1057 l 172 1246 l 256 1332 m 301 714 q 357 606 329 661 q 395 529 385 550 l 403 529 q 445 614 412 550 q 497 714 478 677 l 646 983 l 790 983 l 464 414 l 464 0 l 332 0 l 332 414 l 7 983 l 153 983 l 301 714 z "},"ỳ":{"ha":690,"x_min":14,"x_max":677,"o":"m 410 835 l 358 787 l 142 977 l 225 1063 l 410 835 m 285 0 l 14 714 l 143 714 l 235 465 l 258 401 l 347 153 l 376 240 q 406 330 383 261 q 454 465 429 399 l 547 714 l 677 714 l 281 -328 l 163 -328 l 285 0 z "},"‌":{"ha":0,"x_min":0,"x_max":111,"o":"m 0 -339 l 0 1050 l 111 1050 l 111 -339 l 0 -339 z "},"‍":{"ha":0,"x_min":0,"x_max":351,"o":"m 111 947 l 111 -339 l 0 -339 l 0 1050 l 351 1050 l 351 947 l 111 947 z "},"–":{"ha":903,"x_min":104,"x_max":799,"o":"m 104 498 l 799 498 l 799 387 l 104 387 l 104 498 z "},"—":{"ha":1250,"x_min":104,"x_max":1146,"o":"m 104 498 l 1146 498 l 1146 387 l 104 387 l 104 498 z "},"‗":{"ha":833,"x_min":104,"x_max":729,"o":"m 104 -69 l 729 -69 l 729 -183 l 104 -183 l 104 -69 m 104 -250 l 729 -250 l 729 -364 l 104 -364 l 104 -250 z "},"‘":{"ha":355,"x_min":78,"x_max":262,"o":"m 257 821 l 257 672 l 78 672 l 78 791 l 171 1011 l 262 1011 l 191 821 l 257 821 z "},"’":{"ha":355,"x_min":78,"x_max":262,"o":"m 262 892 l 170 672 l 78 672 l 150 863 l 83 863 l 83 1011 l 262 1011 l 262 892 z "},"‚":{"ha":325,"x_min":107,"x_max":218,"o":"m 107 172 l 218 172 l 211 -167 l 114 -167 l 107 172 z "},"‛":{"ha":368,"x_min":86,"x_max":271,"o":"m 199 863 l 271 672 l 179 672 l 86 892 l 86 1011 l 265 1011 l 265 863 l 199 863 z "},"“":{"ha":608,"x_min":78,"x_max":515,"o":"m 257 821 l 257 672 l 78 672 l 78 791 l 171 1011 l 262 1011 l 191 821 l 257 821 m 510 821 l 510 672 l 330 672 l 330 791 l 422 1011 l 515 1011 l 441 821 l 510 821 z "},"”":{"ha":608,"x_min":78,"x_max":515,"o":"m 262 892 l 171 672 l 78 672 l 151 863 l 83 863 l 83 1011 l 262 1011 l 262 892 m 515 892 l 422 672 l 330 672 l 403 863 l 336 863 l 336 1011 l 515 1011 l 515 892 z "},"„":{"ha":608,"x_min":78,"x_max":515,"o":"m 262 53 l 171 -167 l 78 -167 l 151 24 l 83 24 l 83 172 l 262 172 l 262 53 m 515 53 l 422 -167 l 330 -167 l 403 24 l 336 24 l 336 172 l 515 172 l 515 53 z "},"†":{"ha":647,"x_min":-7,"x_max":654,"o":"m 265 1075 l 382 1075 l 382 714 l 654 714 l 654 614 l 382 614 l 382 -268 l 265 -268 l 265 614 l -7 614 l -7 714 l 265 714 l 265 1075 z "},"‡":{"ha":686,"x_min":12,"x_max":673,"o":"m 285 614 l 12 614 l 12 714 l 285 714 l 285 1075 l 401 1075 l 401 714 l 673 714 l 673 614 l 401 614 l 401 154 l 673 154 l 673 54 l 401 54 l 401 -268 l 285 -268 l 285 54 l 12 54 l 12 154 l 285 154 l 285 614 z "},"•":{"ha":503,"x_min":61,"x_max":441,"o":"m 61 458 q 87 554 61 510 q 156 623 113 597 q 252 648 200 648 q 347 623 303 648 q 416 554 390 597 q 441 458 441 510 q 416 363 441 407 q 346 294 390 319 q 252 268 302 268 q 156 294 200 268 q 87 363 113 319 q 61 458 61 407 z "},"…":{"ha":932,"x_min":106,"x_max":827,"o":"m 106 139 l 244 139 l 244 0 l 106 0 l 106 139 m 397 139 l 536 139 l 536 0 l 397 0 l 397 139 m 688 139 l 827 139 l 827 0 l 688 0 l 688 139 z "},"‰":{"ha":1908,"x_min":40,"x_max":1868,"o":"m 334 -1 l 926 1025 l 1019 974 l 427 -53 l 334 -1 m 40 668 q 100 903 40 823 q 277 982 160 982 q 454 901 393 982 q 515 668 515 821 q 454 432 515 514 q 277 350 392 350 q 101 431 161 350 q 40 668 40 513 m 399 668 q 277 893 399 893 q 155 668 156 893 q 277 440 155 440 q 368 496 338 440 q 399 668 399 553 m 838 307 q 897 542 838 463 q 1074 621 957 621 q 1251 540 1190 621 q 1312 307 1312 460 q 1251 71 1312 153 q 1074 -11 1189 -11 q 898 70 958 -11 q 838 307 838 151 m 1393 307 q 1453 542 1393 463 q 1629 621 1512 621 q 1807 540 1746 621 q 1868 307 1868 460 q 1806 71 1868 153 q 1629 -11 1744 -11 q 1453 70 1514 -11 q 1393 307 1393 151 m 1196 307 q 1074 532 1196 532 q 953 307 953 532 q 1074 79 953 79 q 1165 136 1135 79 q 1196 307 1196 192 m 1752 307 q 1629 532 1751 532 q 1508 307 1508 532 q 1629 79 1508 79 q 1721 136 1690 79 q 1752 307 1752 192 z "},"′":{"ha":330,"x_min":74,"x_max":281,"o":"m 150 983 l 281 983 l 157 667 l 74 667 l 150 983 z "},"″":{"ha":544,"x_min":74,"x_max":494,"o":"m 150 983 l 281 983 l 157 667 l 74 667 l 150 983 m 364 983 l 494 983 l 371 667 l 288 667 l 364 983 z "},"‹":{"ha":522,"x_min":96,"x_max":406,"o":"m 403 107 l 307 33 l 96 363 l 309 693 l 406 623 l 233 363 l 403 107 z "},"›":{"ha":522,"x_min":117,"x_max":427,"o":"m 427 363 l 215 33 l 119 107 l 289 363 l 117 623 l 214 693 l 427 363 z "},"‼":{"ha":642,"x_min":102,"x_max":541,"o":"m 102 1000 l 235 1000 l 216 256 l 118 256 l 102 1000 m 407 1000 l 541 1000 l 522 256 l 424 256 l 407 1000 m 104 127 l 233 127 l 233 0 l 104 0 l 104 127 m 410 127 l 539 127 l 539 0 l 410 0 l 410 127 z "},"‾":{"ha":833,"x_min":104,"x_max":729,"o":"m 104 1145 l 729 1145 l 729 1031 l 104 1031 l 104 1145 z "},"⁄":{"ha":241,"x_min":-222,"x_max":464,"o":"m -222 -1 l 371 1025 l 464 974 l -129 -53 l -222 -1 z "},"₣":{"ha":772,"x_min":20,"x_max":743,"o":"m 675 484 l 319 484 l 319 279 l 529 279 l 529 168 l 319 168 l 319 0 l 186 0 l 186 168 l 20 168 l 20 279 l 186 279 l 186 983 l 743 983 l 743 865 l 319 865 l 319 602 l 675 602 l 675 484 z "},"₤":{"ha":740,"x_min":74,"x_max":707,"o":"m 343 340 q 294 208 329 271 q 215 111 260 146 l 700 111 l 700 0 l 90 0 l 90 103 q 170 213 142 156 q 207 340 199 269 l 74 340 l 74 440 l 211 440 q 196 539 207 493 l 74 539 l 74 639 l 168 639 q 157 726 157 680 q 239 922 157 850 q 461 994 322 994 q 616 956 551 994 q 707 847 681 917 l 608 799 q 556 861 595 839 q 461 884 518 884 q 334 840 380 884 q 288 721 288 796 q 302 639 288 681 l 555 639 l 555 539 l 334 539 q 349 440 347 492 l 555 440 l 555 340 l 343 340 z "},"₨":{"ha":1451,"x_min":129,"x_max":1398,"o":"m 262 0 l 129 0 l 129 983 l 419 983 q 681 909 591 983 q 771 694 771 835 q 723 527 771 595 q 583 428 675 460 l 807 0 l 653 0 l 444 404 l 262 404 l 262 0 m 419 522 q 632 694 632 522 q 580 823 632 781 q 419 865 528 865 l 262 865 l 262 522 l 419 522 m 1179 726 q 1381 681 1266 727 l 1347 572 q 1179 612 1245 612 q 1082 589 1118 612 q 1047 525 1047 566 q 1078 466 1047 486 q 1172 427 1109 446 q 1290 383 1246 403 q 1366 319 1333 363 q 1398 203 1398 275 q 1328 46 1398 104 q 1136 -12 1257 -12 q 892 41 1010 -12 l 933 154 q 1045 115 1000 126 q 1135 103 1090 103 q 1233 128 1198 103 q 1267 200 1267 153 q 1248 251 1267 231 q 1200 282 1229 271 q 1119 310 1172 293 q 1014 352 1055 331 q 945 414 973 372 q 916 524 916 456 q 988 671 916 616 q 1179 726 1059 726 z "},"₹":{"ha":550,"x_min":-28,"x_max":578,"o":"m 380 810 q 454 602 454 704 q 397 423 454 489 q 237 350 340 357 l 457 43 l 363 -18 l 41 410 l 106 496 q 215 454 168 454 q 340 587 332 454 l -22 587 l -22 692 l 322 692 q 249 810 298 753 l -28 810 l -28 914 l 578 914 l 578 810 l 380 810 z "},"℅":{"ha":1015,"x_min":22,"x_max":993,"o":"m 150 -1 l 743 1025 l 836 974 l 243 -53 l 150 -1 m 22 747 q 83 927 22 863 q 250 991 143 991 q 397 949 324 991 l 363 871 q 250 907 300 907 q 158 865 191 907 q 125 747 125 823 q 158 628 125 669 q 256 587 192 587 q 376 619 306 587 l 401 542 q 324 514 366 524 q 245 504 282 504 q 80 567 138 504 q 22 747 22 631 m 542 239 q 602 419 542 354 q 768 484 661 484 q 934 419 876 484 q 993 239 993 354 q 934 58 993 122 q 768 -7 875 -7 q 602 58 661 -7 q 542 239 542 122 m 892 239 q 861 358 892 317 q 768 399 829 399 q 676 358 707 399 q 644 239 644 317 q 676 119 644 161 q 768 78 708 78 q 860 120 828 78 q 892 239 892 161 z "},"№":{"ha":1536,"x_min":129,"x_max":1506,"o":"m 1280 991 q 1447 927 1388 991 q 1506 747 1506 863 q 1447 566 1506 631 q 1280 501 1388 501 q 1114 566 1173 501 q 1054 747 1054 631 q 1114 927 1054 863 q 1280 991 1174 991 m 782 0 l 408 530 q 256 772 345 622 l 256 0 l 129 0 l 129 983 l 241 983 l 606 467 q 768 214 660 390 l 768 983 l 895 983 l 895 0 l 782 0 m 1280 586 q 1372 628 1340 586 q 1404 747 1404 669 q 1373 866 1404 825 q 1280 907 1341 907 q 1188 866 1219 907 q 1157 747 1157 825 q 1189 628 1157 669 q 1280 586 1221 586 z "},"™":{"ha":947,"x_min":0,"x_max":947,"o":"m 375 900 l 240 900 l 240 525 l 135 525 l 135 900 l 0 900 l 0 983 l 375 983 l 375 900 m 889 983 l 947 525 l 844 525 l 811 814 l 721 525 l 629 525 l 538 814 l 504 525 l 401 525 l 460 983 l 574 983 l 675 693 l 775 983 l 889 983 z "},"℮":{"ha":1076,"x_min":37,"x_max":1061,"o":"m 550 904 q 806 842 689 904 q 992 674 924 781 q 1061 443 1061 568 l 1061 432 l 232 432 q 225 427 225 432 l 225 175 q 237 146 225 161 q 378 46 297 82 q 551 11 460 11 q 734 51 648 11 q 880 163 819 92 l 956 163 q 778 31 885 79 q 550 -17 671 -17 q 294 45 411 -17 q 107 213 176 107 q 37 443 37 318 q 107 674 37 568 q 294 842 176 781 q 550 904 411 904 m 551 876 q 380 841 461 876 q 239 743 300 806 q 225 711 225 730 l 225 464 q 232 457 225 457 l 868 457 q 875 464 875 457 l 875 717 q 861 747 875 734 q 720 842 800 808 q 551 876 640 876 z "},"⅓":{"ha":1063,"x_min":8,"x_max":1026,"o":"m 138 -1 l 730 1025 l 823 974 l 231 -53 l 138 -1 m 292 972 l 292 361 l 174 361 l 174 873 l 29 833 l 8 900 l 214 985 l 292 972 m 642 102 q 772 82 707 82 q 870 105 836 82 q 904 171 904 127 q 764 268 904 268 l 722 268 l 722 354 l 758 354 q 856 378 822 354 q 890 447 890 403 q 862 505 890 484 q 783 525 833 525 q 642 494 724 525 l 623 582 q 800 616 710 616 q 955 573 896 616 q 1014 456 1014 530 q 983 365 1014 400 q 892 318 951 330 q 991 265 957 304 q 1026 165 1026 225 q 962 36 1026 82 q 781 -9 897 -9 q 627 14 700 -9 l 642 102 z "},"⅔":{"ha":1168,"x_min":24,"x_max":1131,"o":"m 241 -1 l 835 1025 l 928 974 l 335 -53 l 241 -1 m 197 982 q 357 930 298 982 q 416 789 416 878 q 385 667 416 721 q 262 525 354 612 l 182 449 q 431 464 305 453 l 431 361 l 28 361 l 24 440 l 157 562 q 266 683 239 636 q 293 785 293 729 q 262 860 293 833 q 178 886 232 886 q 43 852 113 886 l 25 947 q 197 982 114 982 m 746 102 q 876 82 811 82 q 974 105 940 82 q 1008 171 1008 127 q 868 268 1008 268 l 827 268 l 827 354 l 863 354 q 960 378 926 354 q 994 447 994 403 q 966 505 994 484 q 888 525 937 525 q 746 494 828 525 l 726 582 q 904 616 814 616 q 1059 573 1000 616 q 1118 456 1118 530 q 1087 365 1118 400 q 996 318 1055 330 q 1096 265 1061 304 q 1131 165 1131 225 q 1066 36 1131 82 q 885 -9 1002 -9 q 730 14 804 -9 l 746 102 z "},"⅛":{"ha":1137,"x_min":8,"x_max":1104,"o":"m 138 -1 l 730 1025 l 823 974 l 231 -53 l 138 -1 m 292 972 l 292 361 l 174 361 l 174 873 l 29 833 l 8 900 l 214 985 l 292 972 m 636 163 q 747 318 636 262 q 683 374 706 340 q 660 461 660 407 q 716 579 660 535 q 869 624 772 624 q 1022 579 965 624 q 1079 460 1079 534 q 1053 381 1079 417 q 978 321 1026 346 q 1071 260 1038 296 q 1104 164 1104 224 q 1040 35 1104 83 q 872 -14 977 -14 q 699 34 762 -14 q 636 163 636 81 m 970 456 q 943 513 970 492 q 869 534 916 534 q 797 513 823 534 q 770 456 770 492 q 802 393 770 416 q 900 349 835 371 q 970 456 969 391 m 991 168 q 969 222 991 201 q 923 253 947 243 q 828 285 899 262 q 766 229 785 256 q 747 167 747 201 q 781 100 747 125 q 872 75 815 75 q 958 101 925 75 q 991 168 991 126 z "},"⅜":{"ha":1240,"x_min":21,"x_max":1207,"o":"m 240 -1 l 833 1025 l 926 974 l 334 -53 l 240 -1 m 40 463 q 171 443 106 443 q 269 466 235 443 q 302 532 302 489 q 163 629 302 629 l 121 629 l 121 715 l 157 715 q 255 740 220 715 q 289 808 289 764 q 260 866 289 846 q 182 886 232 886 q 40 856 122 886 l 21 943 q 199 978 109 978 q 353 935 294 978 q 412 817 412 892 q 381 726 412 761 q 290 679 350 692 q 390 626 355 665 q 425 526 425 586 q 360 397 425 443 q 179 351 296 351 q 25 375 98 351 l 40 463 m 739 163 q 850 318 739 262 q 785 374 808 340 q 762 461 762 407 q 819 579 762 535 q 972 624 875 624 q 1125 579 1068 624 q 1182 460 1182 534 q 1156 381 1182 417 q 1080 321 1129 346 q 1174 260 1140 296 q 1207 164 1207 224 q 1143 35 1207 83 q 975 -14 1079 -14 q 802 34 865 -14 q 739 163 739 81 m 1072 456 q 1045 513 1072 492 q 972 534 1018 534 q 899 513 926 534 q 872 456 872 492 q 905 393 872 416 q 1003 349 937 371 q 1072 456 1072 391 m 1095 168 q 1072 222 1095 201 q 1026 253 1050 243 q 930 285 1002 262 q 869 229 888 256 q 850 167 850 201 q 884 100 850 125 q 975 75 918 75 q 1061 101 1028 75 q 1095 168 1095 126 z "},"⅝":{"ha":1261,"x_min":33,"x_max":1227,"o":"m 261 -1 l 854 1025 l 947 974 l 354 -53 l 261 -1 m 53 478 q 204 447 134 447 q 298 476 265 447 q 330 561 330 505 q 303 630 330 606 q 228 654 277 654 q 117 627 168 654 l 57 668 l 86 978 l 425 978 l 425 888 l 178 888 l 161 722 q 267 741 218 741 q 399 691 349 741 q 450 562 450 642 q 389 410 450 465 q 221 354 328 354 q 33 390 123 354 l 53 478 m 760 163 q 871 318 760 262 q 806 374 829 340 q 783 461 783 407 q 840 579 783 535 q 993 624 896 624 q 1146 579 1088 624 q 1203 460 1203 534 q 1177 381 1203 417 q 1101 321 1150 346 q 1194 260 1161 296 q 1227 164 1227 224 q 1164 35 1227 83 q 996 -14 1100 -14 q 823 34 886 -14 q 760 163 760 81 m 1093 456 q 1066 513 1093 492 q 993 534 1039 534 q 920 513 947 534 q 893 456 893 492 q 926 393 893 416 q 1023 349 958 371 q 1093 456 1093 391 m 1116 168 q 1093 222 1116 201 q 1046 253 1071 243 q 951 285 1022 262 q 890 229 909 256 q 871 167 871 201 q 905 100 871 125 q 996 75 939 75 q 1082 101 1048 75 q 1116 168 1116 126 z "},"⅞":{"ha":1236,"x_min":11,"x_max":1203,"o":"m 236 -1 l 829 1025 l 922 974 l 329 -53 l 236 -1 m 441 901 l 192 361 l 72 361 l 318 886 l 11 886 l 11 979 l 424 979 l 441 901 m 734 163 q 846 318 734 262 q 781 374 804 340 q 758 461 758 407 q 814 579 758 535 q 968 624 871 624 q 1121 579 1063 624 q 1178 460 1178 534 q 1152 381 1178 417 q 1076 321 1125 346 q 1170 260 1136 296 q 1203 164 1203 224 q 1139 35 1203 83 q 971 -14 1075 -14 q 798 34 861 -14 q 734 163 734 81 m 1068 456 q 1041 513 1068 492 q 968 534 1014 534 q 895 513 922 534 q 868 456 868 492 q 901 393 868 416 q 999 349 933 371 q 1068 456 1068 391 m 1090 168 q 1068 222 1090 201 q 1021 253 1046 243 q 926 285 997 262 q 865 229 884 256 q 846 167 846 201 q 880 100 846 125 q 971 75 914 75 q 1057 101 1024 75 q 1090 168 1090 126 z "},"←":{"ha":773,"x_min":24,"x_max":749,"o":"m 749 444 l 212 444 l 481 176 l 403 97 l 24 476 l 24 524 l 403 903 l 481 823 l 212 555 l 749 555 l 749 444 z "},"↑":{"ha":836,"x_min":16,"x_max":821,"o":"m 473 138 l 363 138 l 363 673 l 94 406 l 16 484 l 395 863 l 441 863 l 821 484 l 742 406 l 473 673 l 473 138 z "},"→":{"ha":773,"x_min":25,"x_max":750,"o":"m 293 176 l 561 444 l 25 444 l 25 555 l 561 555 l 293 823 l 371 903 l 750 524 l 750 476 l 371 97 l 293 176 z "},"↓":{"ha":833,"x_min":14,"x_max":819,"o":"m 440 138 l 393 138 l 14 517 l 93 595 l 361 326 l 361 863 l 472 863 l 472 326 l 741 595 l 819 517 l 440 138 z "},"↕":{"ha":833,"x_min":14,"x_max":821,"o":"m 393 -29 l 14 350 l 93 428 l 361 160 l 361 696 l 363 696 l 363 785 l 94 517 l 16 595 l 395 974 l 441 974 l 821 595 l 742 517 l 473 785 l 473 249 l 472 249 l 472 160 l 741 428 l 819 350 l 440 -29 l 393 -29 z "},"∂":{"ha":827,"x_min":94,"x_max":725,"o":"m 94 345 q 131 524 94 447 q 233 644 167 602 q 386 686 298 686 q 490 665 441 686 q 575 603 539 643 q 496 805 553 735 q 355 875 440 875 q 253 858 298 875 q 163 804 208 842 l 115 848 q 220 955 158 918 q 353 993 282 993 q 549 925 465 993 q 679 733 633 857 q 725 441 725 608 q 642 102 725 218 q 400 -14 559 -14 q 176 83 258 -14 q 94 345 94 179 m 586 457 q 517 542 567 509 q 408 575 467 575 q 280 513 326 575 q 233 343 233 452 q 280 165 233 233 q 401 97 326 97 q 542 177 497 97 q 586 429 586 257 l 586 457 z "},"∏":{"ha":1093,"x_min":161,"x_max":932,"o":"m 294 872 l 294 -167 l 161 -167 l 161 983 l 932 983 l 932 -167 l 799 -167 l 799 872 l 294 872 z "},"∑":{"ha":777,"x_min":74,"x_max":714,"o":"m 714 983 l 714 871 l 243 871 l 586 424 l 239 -54 l 714 -54 l 714 -167 l 74 -167 l 74 -66 l 425 416 l 74 884 l 74 983 l 714 983 z "},"−":{"ha":865,"x_min":150,"x_max":715,"o":"m 150 476 l 715 476 l 715 376 l 150 376 l 150 476 z "},"√":{"ha":895,"x_min":39,"x_max":835,"o":"m 496 121 l 708 1055 l 835 1055 l 578 0 l 421 0 l 212 568 l 81 503 l 39 597 l 293 715 l 496 121 z "},"∞":{"ha":1307,"x_min":106,"x_max":1202,"o":"m 106 433 q 137 554 106 500 q 224 639 168 608 q 350 669 281 669 q 505 624 422 669 q 656 501 589 578 q 810 624 725 578 q 968 669 896 669 q 1137 604 1072 669 q 1202 433 1202 539 q 1168 313 1202 367 q 1076 228 1135 258 q 943 197 1017 197 q 802 244 885 197 q 648 364 720 290 q 494 243 576 289 q 351 197 412 197 q 173 262 240 197 q 106 433 106 328 m 583 433 q 463 532 526 494 q 350 570 399 570 q 253 532 290 570 q 215 433 215 494 q 255 335 215 372 q 359 297 294 297 q 465 333 406 297 q 583 433 525 370 m 1090 433 q 1054 531 1090 493 q 958 570 1017 570 q 850 533 912 570 q 725 433 789 497 q 844 334 785 371 q 943 297 903 297 q 1051 333 1011 297 q 1090 433 1090 370 z "},"∫":{"ha":515,"x_min":43,"x_max":471,"o":"m 62 -165 q 107 -178 75 -171 q 154 -186 139 -186 q 213 -166 195 -186 q 228 -102 231 -146 l 158 803 l 157 827 q 201 942 157 902 q 329 982 245 982 q 425 972 379 982 q 471 953 471 962 l 452 859 q 407 871 439 864 q 359 879 375 879 q 300 858 318 879 q 286 794 282 838 l 355 -110 q 318 -242 362 -196 q 184 -289 273 -289 q 89 -279 134 -289 q 43 -260 43 -269 l 62 -165 z "},"≈":{"ha":815,"x_min":89,"x_max":726,"o":"m 89 533 q 182 620 129 587 q 286 653 236 653 q 346 644 318 653 q 412 616 374 635 q 473 591 450 600 q 526 583 497 583 q 663 653 602 583 l 726 586 q 633 499 686 532 q 529 467 579 467 q 473 476 500 467 q 410 501 447 485 q 342 528 367 519 q 289 536 318 536 q 153 467 211 536 l 89 533 m 89 239 q 182 326 129 293 q 286 358 236 358 q 346 349 318 358 q 412 322 374 340 q 473 297 450 305 q 526 289 497 289 q 663 358 602 289 l 726 292 q 633 205 686 237 q 529 172 579 172 q 473 181 500 172 q 410 207 447 191 q 342 233 367 225 q 289 241 318 241 q 153 172 211 241 l 89 239 z "},"≠":{"ha":821,"x_min":94,"x_max":730,"o":"m 285 307 l 399 504 l 94 504 l 94 604 l 456 604 l 550 765 l 635 714 l 571 604 l 730 604 l 730 504 l 513 504 l 399 307 l 730 307 l 730 207 l 342 207 l 243 36 l 158 87 l 227 207 l 94 207 l 94 307 l 285 307 z "},"≤":{"ha":866,"x_min":74,"x_max":764,"o":"m 261 570 l 761 351 l 761 232 l 75 532 l 75 608 l 761 908 l 761 789 l 261 570 m 74 172 l 764 172 l 764 72 l 74 72 l 74 172 z "},"≥":{"ha":866,"x_min":103,"x_max":793,"o":"m 791 608 l 791 532 l 106 232 l 106 351 l 606 570 l 106 789 l 106 908 l 791 608 m 103 172 l 793 172 l 793 72 l 103 72 l 103 172 z "}}}
